{
.appVersion = "1141";
copyright = "Copyright 2011, 2017 Google Inc. All Rights Reserved.";
customParameters = (
{
name = glyphOrder;
value = (
space,
nbspace,
A,
Agrave,
Aacute,
Acircumflex,
Atilde,
Adieresis,
Aring,
Amacron,
Abreve,
Aogonek,
Aringacute,
Adblgrave,
Ainvertedbreve,
Adotbelow,
Ahookabove,
Acircumflexacute,
Acircumflexgrave,
Acircumflexhookabove,
Acircumflextilde,
Acircumflexdotbelow,
Abreveacute,
Abrevegrave,
Abrevehookabove,
Abrevetilde,
Abrevedotbelow,
B,
C,
Ccedilla,
Cacute,
Ccircumflex,
Cdotaccent,
Ccaron,
D,
Dcaron,
E,
Egrave,
Eacute,
Ecircumflex,
Edieresis,
Emacron,
Ebreve,
Edotaccent,
Eogonek,
Ecaron,
Edblgrave,
Einvertedbreve,
Edotbelow,
Ehookabove,
Etilde,
Ecircumflexacute,
Ecircumflexgrave,
Ecircumflexhookabove,
Ecircumflextilde,
Ecircumflexdotbelow,
F,
G,
Gcircumflex,
Gbreve,
Gdotaccent,
Gcommaaccent,
Gcaron,
H,
Hcircumflex,
I,
Igrave,
Iacute,
Icircumflex,
Idieresis,
Itilde,
Imacron,
Ibreve,
Iogonek,
Idotaccent,
Idblgrave,
Iinvertedbreve,
Ihookabove,
Idotbelow,
J,
Jcircumflex,
K,
Kcommaaccent,
L,
Lacute,
Lcommaaccent,
Lcaron,
M,
N,
Ntilde,
Nacute,
Ncommaaccent,
Ncaron,
O,
Ograve,
Oacute,
Ocircumflex,
Otilde,
Odieresis,
Omacron,
Obreve,
Ohungarumlaut,
Ohorn,
Oogonek,
Odblgrave,
Oinvertedbreve,
Odieresismacron,
Otildemacron,
Odotaccentmacron,
Odotbelow,
Ohookabove,
Ocircumflexacute,
Ocircumflexgrave,
Ocircumflexhookabove,
Ocircumflextilde,
Ocircumflexdotbelow,
Ohornacute,
Ohorngrave,
Ohornhookabove,
Ohorntilde,
Ohorndotbelow,
P,
Q,
R,
Racute,
Rcommaaccent,
Rcaron,
Rdblgrave,
Rinvertedbreve,
S,
Sacute,
Scircumflex,
Scedilla,
Scaron,
Scommaaccent,
T,
Tcedilla,
Tcaron,
Tcommaaccent,
U,
Ugrave,
Uacute,
Ucircumflex,
Udieresis,
Utilde,
Umacron,
Ubreve,
Uring,
Uhungarumlaut,
Uogonek,
Uhorn,
Udblgrave,
Uinvertedbreve,
Udotbelow,
Uhookabove,
Uhornacute,
Uhorngrave,
Uhornhookabove,
Uhorntilde,
Uhorndotbelow,
V,
W,
Wcircumflex,
Wgrave,
Wacute,
Wdieresis,
X,
Y,
Yacute,
Ycircumflex,
Ydieresis,
Ymacron,
Ygrave,
Ydotbelow,
Yhookabove,
Ytilde,
Z,
Zacute,

glyphs = (
{
glyphname = A;
layers = (
{
layerId = "6BF8B6E1-1195-476D-8D60-16328723C279";
paths = (
{
closed = 1;
nodes = (
"560 1466 LINE",
"749 1466 LINE",
"921 0 LINE",
"754 0 LINE",
"636 1108 LINE SMOOTH",
"632 1142 OFFCURVE",
"629 1204 OFFCURVE",
"629 1236 QCURVE",
"622 1236 LINE",
"610 1204 OFFCURVE",
"584 1142 OFFCURVE",
"568 1108 QCURVE SMOOTH",
"60 0 LINE",
"-128 0 LINE"
);
},
{
closed = 1;
nodes = (
"208 536 LINE",
"771 536 LINE",
"787 382 LINE",
"136 382 LINE"
);
}
);
width = 1049;
}
);
leftKerningGroup = A_UC;
rightKerningGroup = A_UC;
unicode = 0041;
},
{
glyphname = B;
layers = (
{
layerId = "6BF8B6E1-1195-476D-8D60-16328723C279";
paths = (
{
closed = 1;
nodes = (
"294 1456 LINE",
"681 1456 LINE SMOOTH",
"868 1456 OFFCURVE",
"1048 1270 OFFCURVE",
"1013 1071 QCURVE SMOOTH",
"992 950 OFFCURVE",
"863 796 OFFCURVE",
"780 768 QCURVE",
"779 764 LINE",
"870 735 OFFCURVE",
"960 560 OFFCURVE",
"935 418 QCURVE SMOOTH",
"900 220 OFFCURVE",
"638 0 OFFCURVE",
"454 0 QCURVE SMOOTH",
"37 0 LINE"
);
},
{
closed = 1;
nodes = (
"481 153 LINE SMOOTH",
"601 153 OFFCURVE",
"738 297 OFFCURVE",
"759 419 QCURVE SMOOTH",
"780 540 OFFCURVE",
"693 682 OFFCURVE",
"574 682 QCURVE SMOOTH",
"331 682 LINE",
"236 153 LINE"
);
},
{
closed = 1;
nodes = (
"572 834 LINE SMOOTH",
"690 834 OFFCURVE",
"817 959 OFFCURVE",
"837 1071 QCURVE SMOOTH",
"856 1183 OFFCURVE",
"772 1303 OFFCURVE",
"653 1303 QCURVE SMOOTH",
"440 1303 LINE",
"359 834 LINE"
);
}
);
width = 1086;
}
);
leftKerningGroup = StraightRight_UC;
unicode = 0042;
},
{
glyphname = C;
layers = (
{
layerId = "6BF8B6E1-1195-476D-8D60-16328723C279";
paths = (
{
closed = 1;
nodes = (
"120 774 LINE SMOOTH",
"183 1138 OFFCURVE",
"521 1486 OFFCURVE",
"748 1486 QCURVE SMOOTH",
"963 1486 OFFCURVE",
"1133 1222 OFFCURVE",
"1111 1000 QCURVE SMOOTH",
"1109 983 LINE",
"938 983 LINE",
"940 1000 LINE SMOOTH",
"955 1129 OFFCURVE",
"874 1327 OFFCURVE",
"720 1327 QCURVE SMOOTH",
"558 1327 OFFCURVE",
"350 1076 OFFCURVE",
"308 815 QCURVE SMOOTH",
"280 642 LINE SMOOTH",
"239 392 OFFCURVE",
"362 129 OFFCURVE",
"509 129 QCURVE SMOOTH",
"648 129 OFFCURVE",
"821 313 OFFCURVE",
"841 436 QCURVE SMOOTH",
"846 466 LINE",
"1024 466 LINE",
"1019 436 LINE SMOOTH",
"982 217 OFFCURVE",
"695 -30 OFFCURVE",
"481 -30 QCURVE SMOOTH",
"252 -30 OFFCURVE",
"42 323 OFFCURVE",
"104 682 QCURVE SMOOTH"
);
}
);
width = 1117;
}
);
leftKerningGroup = CG_UC;
rightKerningGroup = C_UC;
unicode = 0043;
},
{
glyphname = D;
layers = (
{
layerId = "6BF8B6E1-1195-476D-8D60-16328723C279";
paths = (
{
closed = 1;
nodes = (
"294 1456 LINE",
"645 1456 LINE SMOOTH",
"882 1456 OFFCURVE",
"1134 1106 OFFCURVE",
"1079 774 QCURVE SMOOTH",
"1063 682 LINE SMOOTH",
"1008 350 OFFCURVE",
"626 0 OFFCURVE",
"388 0 QCURVE SMOOTH",
"37 0 LINE"
);
},
{
closed = 1;
nodes = (
"416 153 LINE SMOOTH",
"587 153 OFFCURVE",
"839 414 OFFCURVE",
"882 682 QCURVE SMOOTH",
"899 774 LINE SMOOTH",
"942 1042 OFFCURVE",
"789 1303 OFFCURVE",
"617 1303 QCURVE SMOOTH",
"444 1303 LINE",
"243 153 LINE"
);
}
);
width = 1183;
}
);
leftKerningGroup = StraightRight_UC;
rightKerningGroup = D_UC;
unicode = 0044;
},
{
glyphname = E;
layers = (
{
layerId = "6BF8B6E1-1195-476D-8D60-16328723C279";
paths = (
{
closed = 1;
nodes = (
"294 1456 LINE",
"1050 1456 LINE",
"1022 1303 LINE",
"444 1303 LINE",
"361 828 LINE",
"851 828 LINE",
"823 674 LINE",
"334 674 LINE",
"243 153 LINE",
"831 153 LINE",
"803 0 LINE",
"37 0 LINE"
);
}
);
width = 997;
}
);
leftKerningGroup = StraightRight_UC;
rightKerningGroup = E_UC;
unicode = 0045;
},
{
glyphname = F;
layers = (
{
layerId = "6BF8B6E1-1195-476D-8D60-16328723C279";
paths = (
{
closed = 1;
nodes = (
"294 1456 LINE",
"1039 1456 LINE",
"1011 1303 LINE",
"443 1303 LINE",
"356 798 LINE",
"842 798 LINE",
"814 646 LINE",
"329 646 LINE",
"215 0 LINE",
"37 0 LINE"
);
}
);
width = 966;
}
);
leftKerningGroup = StraightRight_UC;
unicode = 0046;
},
{
glyphname = G;
layers = (
{
layerId = "6BF8B6E1-1195-476D-8D60-16328723C279";
paths = (
{
closed = 1;
nodes = (
"120 774 LINE SMOOTH",
"179 1134 OFFCURVE",
"522 1486 OFFCURVE",
"744 1486 QCURVE SMOOTH",
"956 1486 OFFCURVE",
"1123 1239 OFFCURVE",
"1112 1040 QCURVE SMOOTH",
"1111 1022 LINE",
"940 1022 LINE",
"941 1040 LINE SMOOTH",
"948 1162 OFFCURVE",
"850 1327 OFFCURVE",
"715 1327 QCURVE SMOOTH",
"558 1327 OFFCURVE",
"350 1080 OFFCURVE",
"308 814 QCURVE SMOOTH",
"281 642 LINE SMOOTH",
"240 381 OFFCURVE",
"360 129 OFFCURVE",
"514 129 QCURVE SMOOTH",
"606 129 OFFCURVE",
"746 168 OFFCURVE",
"804 207 QCURVE",
"864 572 LINE",
"593 572 LINE",
"620 726 LINE",
"1064 726 LINE",
"964 139 LINE",
"894 77 OFFCURVE",
"659 -30 OFFCURVE",
"480 -30 QCURVE SMOOTH",
"257 -30 OFFCURVE",
"45 298 OFFCURVE",
"104 682 QCURVE SMOOTH"
);
}
);
width = 1140;
}
);
leftKerningGroup = CG_UC;
rightKerningGroup = G_UC;
unicode = 0047;
},
{
glyphname = H;
layers = (
{
layerId = "6BF8B6E1-1195-476D-8D60-16328723C279";
paths = (
{
closed = 1;
nodes = (
"294 1456 LINE",
"472 1456 LINE",
"361 828 LINE",
"933 828 LINE",
"1044 1456 LINE",
"1222 1456 LINE",
"965 0 LINE",
"787 0 LINE",
"906 674 LINE",
"334 674 LINE",
"215 0 LINE",
"37 0 LINE"
);
}
);
width = 1258;
}
);
leftKerningGroup = StraightRight_UC;
rightKerningGroup = LeftStraight_UC;
unicode = 0048;
},
{
glyphname = I;
layers = (
{
layerId = "6BF8B6E1-1195-476D-8D60-16328723C279";
paths = (
{
closed = 1;
nodes = (
"298 1456 LINE",
"476 1456 LINE",
"219 0 LINE",
"42 0 LINE"
);
}
);
width = 518;
}
);
leftKerningGroup = StraightRight_UC;
rightKerningGroup = LeftStraight_UC;
unicode = 0049;
},
{
glyphname = J;
layers = (
{
layerId = "6BF8B6E1-1195-476D-8D60-16328723C279";
paths = (
{
closed = 1;
nodes = (
"-31 410 LINE",
"147 410 LINE",
"142 370 LINE SMOOTH",
"125 235 OFFCURVE",
"200 129 OFFCURVE",
"298 129 QCURVE SMOOTH",
"395 129 OFFCURVE",
"525 253 OFFCURVE",
"549 395 QCURVE SMOOTH",
"731 1456 LINE",
"908 1456 LINE",
"727 425 LINE SMOOTH",
"690 195 OFFCURVE",
"443 -30 OFFCURVE",
"269 -30 QCURVE SMOOTH",
"94 -30 OFFCURVE",
"-68 180 OFFCURVE",
"-33 400 QCURVE SMOOTH"
);
}
);
width = 931;
}
);
leftKerningGroup = J_UC;
rightKerningGroup = JU_UC;
unicode = 004A;
},
{
glyphname = K;
layers = (
{
layerId = "6BF8B6E1-1195-476D-8D60-16328723C279";
paths = (
{
closed = 1;
nodes = (
"294 1456 LINE",
"472 1456 LINE",
"352 785 LINE",
"992 1456 LINE",
"1196 1456 LINE",
"303 524 LINE",
"215 0 LINE",
"37 0 LINE"
);
},
{
closed = 1;
nodes = (
"436 755 LINE",
"557 884 LINE",
"964 0 LINE",
"775 0 LINE"
);
}
);
width = 1073;
}
);
leftKerningGroup = StraightRight_UC;
rightKerningGroup = K_UC;
unicode = 004B;
},
{
glyphname = L;
layers = (
{
layerId = "6BF8B6E1-1195-476D-8D60-16328723C279";
paths = (
{
closed = 1;
nodes = (
"294 1456 LINE",
"472 1456 LINE",
"243 153 LINE",
"796 153 LINE",
"768 0 LINE",
"37 0 LINE"
);
}
);
width = 919;
}
);
leftKerningGroup = StraightRight_UC;
rightKerningGroup = L_UC;
unicode = 004C;
},
{
glyphname = M;
layers = (
{
layerId = "6BF8B6E1-1195-476D-8D60-16328723C279";
paths = (
{
closed = 1;
nodes = (
"294 1456 LINE",
"523 1456 LINE",
"662 351 LINE SMOOTH",
"666 316 OFFCURVE",
"668 262 OFFCURVE",
"669 222 QCURVE",
"675 222 LINE",
"686 262 OFFCURVE",
"710 317 OFFCURVE",
"725 352 QCURVE SMOOTH",
"1250 1456 LINE",
"1484 1456 LINE",
"1227 0 LINE",
"1055 0 LINE",
"1240 1012 LINE SMOOTH",
"1245 1048 OFFCURVE",
"1264 1135 OFFCURVE",
"1271 1170 QCURVE",
"1263 1170 LINE",
"1253 1135 OFFCURVE",
"1215 1048 OFFCURVE",
"1199 1012 QCURVE SMOOTH",
"710 0 LINE",
"551 0 LINE",
"422 1012 LINE SMOOTH",
"417 1048 OFFCURVE",
"410 1134 OFFCURVE",
"409 1170 QCURVE",
"402 1170 LINE",
"398 1135 OFFCURVE",
"386 1048 OFFCURVE",
"380 1012 QCURVE SMOOTH",
"205 0 LINE",
"37 0 LINE"
);
}
);
width = 1520;
}
);
leftKerningGroup = StraightRight_UC;
rightKerningGroup = LeftStraight_UC;
unicode = 004D;
},
{
glyphname = N;
layers = (
{
layerId = "6BF8B6E1-1195-476D-8D60-16328723C279";
paths = (
{
closed = 1;
nodes = (
"294 1456 LINE",
"493 1456 LINE",
"792 432 LINE SMOOTH",
"799 407 OFFCURVE",
"827 286 OFFCURVE",
"832 251 QCURVE",
"839 251 LINE",
"841 290 OFFCURVE",
"855 418 OFFCURVE",
"861 450 QCURVE SMOOTH",
"1039 1456 LINE",
"1211 1456 LINE",
"954 0 LINE",
"752 0 LINE",
"448 1030 LINE SMOOTH",
"439 1060 OFFCURVE",
"419 1146 OFFCURVE",
"414 1178 QCURVE",
"406 1178 LINE",
"404 1144 OFFCURVE",
"390 1044 OFFCURVE",
"385 1010 QCURVE SMOOTH",
"208 0 LINE",
"37 0 LINE"
);
}
);
width = 1247;
}
);
leftKerningGroup = StraightRight_UC;
rightKerningGroup = LeftStraight_UC;
unicode = 004E;
},
{
glyphname = O;
layers = (
{
layerId = "6BF8B6E1-1195-476D-8D60-16328723C279";
paths = (
{
closed = 1;
nodes = (
"120 774 LINE SMOOTH",
"179 1130 OFFCURVE",
"524 1486 OFFCURVE",
"749 1486 QCURVE SMOOTH",
"974 1486 OFFCURVE",
"1185 1130 OFFCURVE",
"1126 774 QCURVE SMOOTH",
"1110 682 LINE SMOOTH",
"1051 326 OFFCURVE",
"707 -30 OFFCURVE",
"482 -30 QCURVE SMOOTH",
"257 -30 OFFCURVE",
"45 326 OFFCURVE",
"104 682 QCURVE SMOOTH"
);
},
{
closed = 1;
nodes = (
"235 392 OFFCURVE",
"359 129 OFFCURVE",
"511 129 QCURVE SMOOTH",
"662 129 OFFCURVE",
"884 392 OFFCURVE",
"926 652 QCURVE SMOOTH",
"951 805 LINE SMOOTH",
"993 1065 OFFCURVE",
"872 1327 OFFCURVE",
"720 1327 QCURVE SMOOTH",
"569 1327 OFFCURVE",
"349 1065 OFFCURVE",
"305 805 QCURVE SMOOTH",
"279 652 LINE SMOOTH"
);
}
);
width = 1230;
}
);
leftKerningGroup = CG_UC;
rightKerningGroup = D_UC;
unicode = 004F;
},
{
glyphname = P;
layers = (
{
layerId = "6BF8B6E1-1195-476D-8D60-16328723C279";
paths = (
{
closed = 1;
nodes = (
"294 1456 LINE",
"683 1456 LINE SMOOTH",
"876 1456 OFFCURVE",
"1058 1226 OFFCURVE",
"1024 1016 QCURVE SMOOTH",
"989 797 OFFCURVE",
"730 572 OFFCURVE",
"527 572 QCURVE SMOOTH",
"316 572 LINE",
"215 0 LINE",
"37 0 LINE"
);
},
{
closed = 1;
nodes = (
"555 726 LINE SMOOTH",
"689 726 OFFCURVE",
"825 890 OFFCURVE",
"846 1016 QCURVE SMOOTH",
"867 1143 OFFCURVE",
"789 1303 OFFCURVE",
"655 1303 QCURVE SMOOTH",
"444 1303 LINE",
"344 726 LINE"
);
}
);
width = 1048;
}
);
leftKerningGroup = StraightRight_UC;
unicode = 0050;
},
{
glyphname = Q;
layers = (
{
layerId = "6BF8B6E1-1195-476D-8D60-16328723C279";
paths = (
{
closed = 1;
nodes = (
"120 774 LINE SMOOTH",
"179 1130 OFFCURVE",
"524 1486 OFFCURVE",
"749 1486 QCURVE SMOOTH",
"974 1486 OFFCURVE",
"1185 1130 OFFCURVE",
"1126 774 QCURVE SMOOTH",
"1110 682 LINE SMOOTH",
"1051 326 OFFCURVE",
"707 -30 OFFCURVE",
"482 -30 QCURVE SMOOTH",
"257 -30 OFFCURVE",
"45 326 OFFCURVE",
"104 682 QCURVE SMOOTH"
);
},
{
closed = 1;
nodes = (
"236 381 OFFCURVE",
"359 129 OFFCURVE",
"511 129 QCURVE SMOOTH",
"662 129 OFFCURVE",
"881 381 OFFCURVE",
"925 642 QCURVE SMOOTH",
"954 814 LINE SMOOTH",
"998 1075 OFFCURVE",
"872 1327 OFFCURVE",
"720 1327 QCURVE SMOOTH",
"569 1327 OFFCURVE",
"348 1075 OFFCURVE",
"306 814 QCURVE SMOOTH",
"278 642 LINE SMOOTH"
);
},
{
closed = 1;
nodes = (
"524 27 LINE",
"659 151 LINE",
"946 -119 LINE",
"806 -248 LINE"
);
}
);
width = 1231;
}
);
leftKerningGroup = CG_UC;
unicode = 0051;
},
{
glyphname = R;
layers = (
{
layerId = "6BF8B6E1-1195-476D-8D60-16328723C279";
paths = (
{
closed = 1;
nodes = (
"294 1456 LINE",
"675 1456 LINE SMOOTH",
"864 1456 OFFCURVE",
"1046 1234 OFFCURVE",
"1015 1029 QCURVE SMOOTH",
"983 816 OFFCURVE",
"722 596 OFFCURVE",
"523 596 QCURVE SMOOTH",
"320 596 LINE",
"215 0 LINE",
"37 0 LINE"
);
},
{
closed = 1;
nodes = (
"551 748 LINE SMOOTH",
"683 748 OFFCURVE",
"817 907 OFFCURVE",
"837 1029 QCURVE SMOOTH",
"858 1152 OFFCURVE",
"780 1305 OFFCURVE",
"648 1305 QCURVE SMOOTH",
"444 1305 LINE",
"347 748 LINE"
);
},
{
closed = 1;
nodes = (
"523 672 LINE",
"691 672 LINE",
"900 0 LINE",
"723 0 LINE"
);
}
);
width = 1066;
}
);
leftKerningGroup = StraightRight_UC;
rightKerningGroup = R_UC;
unicode = 0052;
},
{
glyphname = S;
layers = (
{
layerId = "6BF8B6E1-1195-476D-8D60-16328723C279";
paths = (
{
closed = 1;
nodes = (
"32 410 LINE",
"210 410 LINE",
"208 387 LINE SMOOTH",
"197 255 OFFCURVE",
"298 129 OFFCURVE",
"421 129 QCURVE SMOOTH",
"544 129 OFFCURVE",
"696 241 OFFCURVE",
"716 348 QCURVE SMOOTH",
"733 451 OFFCURVE",
"613 588 OFFCURVE",
"466 667 QCURVE SMOOTH",
"319 746 OFFCURVE",
"151 965 OFFCURVE",
"181 1134 QCURVE SMOOTH",
"211 1319 OFFCURVE",
"461 1486 OFFCURVE",
"652 1486 QCURVE SMOOTH",
"843 1486 OFFCURVE",
"1027 1266 OFFCURVE",
"994 1074 QCURVE SMOOTH",
"992 1052 LINE",
"814 1052 LINE",
"816 1075 LINE SMOOTH",
"826 1190 OFFCURVE",
"741 1327 OFFCURVE",
"623 1327 QCURVE SMOOTH",
"499 1327 OFFCURVE",
"375 1232 OFFCURVE",
"357 1147 QCURVE SMOOTH",
"340 1060 OFFCURVE",
"459 901 OFFCURVE",
"600 822 QCURVE SMOOTH",
"741 743 OFFCURVE",
"924 526 OFFCURVE",
"892 347 QCURVE SMOOTH",
"860 152 OFFCURVE",
"591 -30 OFFCURVE",
"392 -30 QCURVE SMOOTH",
"214 -30 OFFCURVE",
"2 189 OFFCURVE",
"29 388 QCURVE SMOOTH"
);
}
);
width = 1034;
}
);
leftKerningGroup = S_UC;
rightKerningGroup = S_UC;
unicode = 0053;
},
{
glyphname = T;
layers = (
{
layerId = "6BF8B6E1-1195-476D-8D60-16328723C279";
paths = (
{
closed = 1;
nodes = (
"152 1456 LINE",
"1092 1456 LINE",
"1064 1303 LINE",
"682 1303 LINE",
"453 0 LINE",
"276 0 LINE",
"505 1303 LINE",
"124 1303 LINE"
);
}
);
width = 986;
}
);
leftKerningGroup = T_UC;
rightKerningGroup = T_UC;
unicode = 0054;
},
{
glyphname = U;
layers = (
{
layerId = "6BF8B6E1-1195-476D-8D60-16328723C279";
paths = (
{
closed = 1;
nodes = (
"279 1456 LINE",
"456 1456 LINE",
"282 430 LINE SMOOTH",
"252 277 OFFCURVE",
"363 129 OFFCURVE",
"484 129 QCURVE SMOOTH",
"605 129 OFFCURVE",
"772 278 OFFCURVE",
"802 430 QCURVE SMOOTH",
"976 1456 LINE",
"1154 1456 LINE",
"981 470 LINE SMOOTH",
"937 200 OFFCURVE",
"644 -30 OFFCURVE",
"455 -30 QCURVE SMOOTH",
"267 -30 OFFCURVE",
"61 200 OFFCURVE",
"105 470 QCURVE SMOOTH"
);
}
);
width = 1177;
}
);
leftKerningGroup = U_UC;
rightKerningGroup = JU_UC;
unicode = 0055;
},
{
glyphname = V;
layers = (
{
layerId = "6BF8B6E1-1195-476D-8D60-16328723C279";
paths = (
{
closed = 1;
nodes = (
"306 1456 LINE",
"407 369 LINE SMOOTH",
"410 336 OFFCURVE",
"414 274 OFFCURVE",
"414 241 QCURVE",
"421 241 LINE",
"430 274 OFFCURVE",
"452 336 OFFCURVE",
"467 369 QCURVE SMOOTH",
"953 1456 LINE",
"1137 1456 LINE",
"465 -10 LINE",
"284 -10 LINE",
"129 1456 LINE"
);
}
);
width = 1008;
}
);
unicode = 0056;
},
{
glyphname = W;
layers = (
{
layerId = "6BF8B6E1-1195-476D-8D60-16328723C279";
paths = (
{
closed = 1;
nodes = (
"177 1456 LINE",
"342 1456 LINE",
"346 370 LINE SMOOTH",
"346 334 OFFCURVE",
"344 298 OFFCURVE",
"341 262 QCURVE",
"349 262 LINE",
"359 298 OFFCURVE",
"370 334 OFFCURVE",
"384 370 QCURVE SMOOTH",
"794 1456 LINE",
"981 1456 LINE",
"1023 370 LINE SMOOTH",
"1024 334 OFFCURVE",
"1022 298 OFFCURVE",
"1021 262 QCURVE",
"1029 262 LINE",
"1039 298 OFFCURVE",
"1052 334 OFFCURVE",
"1064 370 QCURVE SMOOTH",
"1433 1456 LINE",
"1611 1456 LINE",
"1068 -10 LINE",
"888 -10 LINE",
"844 1084 LINE SMOOTH",
"843 1120 OFFCURVE",
"844 1171 OFFCURVE",
"845 1206 QCURVE",
"837 1206 LINE",
"827 1171 OFFCURVE",
"808 1120 OFFCURVE",
"794 1084 QCURVE SMOOTH",
"382 -10 LINE",
"204 -10 LINE"
);
}
);
width = 1531;
}
);
leftKerningGroup = W_UC;
rightKerningGroup = W_UC;
unicode = 0057;
},
{
glyphname = X;
layers = (
{
layerId = "6BF8B6E1-1195-476D-8D60-16328723C279";
paths = (
{
closed = 1;
nodes = (
"453 804 LINE",
"459 804 LINE",
"893 1456 LINE",
"1090 1456 LINE",
"553 672 LINE",
"548 672 LINE",
"90 0 LINE",
"-107 0 LINE"
);
},
{
closed = 1;
nodes = (
"357 1456 LINE",
"562 804 LINE",
"570 804 LINE",
"845 0 LINE",
"666 0 LINE",
"444 672 LINE",
"437 672 LINE",
"178 1456 LINE"
);
}
);
width = 1003;
}
);
unicode = 0058;
},
{
glyphname = Y;
layers = (
{
layerId = "6BF8B6E1-1195-476D-8D60-16328723C279";
paths = (
{
closed = 1;
nodes = (
"381 546 LINE",
"143 1456 LINE",
"333 1456 LINE",
"471 867 LINE SMOOTH",
"478 837 OFFCURVE",
"494 768 OFFCURVE",
"499 738 QCURVE",
"507 738 LINE",
"521 768 OFFCURVE",
"554 837 OFFCURVE",
"572 867 QCURVE SMOOTH",
"931 1456 LINE",
"1119 1456 LINE",
"560 546 LINE",
"464 0 LINE",
"285 0 LINE"
);
}
);
width = 1006;
}
);
leftKerningGroup = Y_UC;
rightKerningGroup = Y_UC;
unicode = 0059;
},
{
glyphname = Z;
layers = (
{
layerId = "6BF8B6E1-1195-476D-8D60-16328723C279";
paths = (
{
closed = 1;
nodes = (
"-69 135 LINE",
"781 1303 LINE",
"147 1303 LINE",
"174 1456 LINE",
"1016 1456 LINE",
"991 1321 LINE",
"141 153 LINE",
"818 153 LINE",
"790 0 LINE",
"-94 0 LINE"
);
}
);
width = 952;
}
);
leftKerningGroup = Z_UC;
rightKerningGroup = Z_UC;
unicode = 005A;
},
{
glyphname = AE;
layers = (
{
layerId = "6BF8B6E1-1195-476D-8D60-16328723C279";
paths = (
{
closed = 1;
nodes = (
"372 517 LINE",
"935 517 LINE",
"935 363 LINE",
"272 363 LINE"
);
},
{
closed = 1;
nodes = (
"762 1456 LINE",
"1614 1456 LINE",
"1614 1303 LINE",
"1014 1303 LINE",
"1014 828 LINE",
"1522 828 LINE",
"1522 674 LINE",
"1014 674 LINE",
"1014 153 LINE",
"1624 153 LINE",
"1624 0 LINE",
"830 0 LINE",
"830 1258 LINE",
"182 0 LINE",
"0 0 LINE"
);
}
);
width = 1692;
}
);
leftKerningGroup = AE_UC;
rightKerningGroup = E_UC;
unicode = 00C6;
},
{
glyphname = Thorn;
layers = (
{
guideLines = (
{
position = "{0, 901}";
},
{
position = "{0, 555}";
}
);
layerId = "6BF8B6E1-1195-476D-8D60-16328723C279";
paths = (
{
closed = 1;
nodes = (
"353 1456 LINE",
"353 1165 LINE",
"574 1165 LINE SMOOTH",
"784 1165 OFFCURVE",
"1008 960 OFFCURVE",
"1008 741 QCURVE SMOOTH",
"1008 522 OFFCURVE",
"784 312 OFFCURVE",
"574 311 QCURVE SMOOTH",
"354 311 LINE",
"354 0 LINE",
"170 0 LINE",
"170 1456 LINE"
);
},
{
closed = 1;
nodes = (
"354 1012 LINE",
"354 465 LINE",
"574 465 LINE SMOOTH",
"713 465 OFFCURVE",
"824 615 OFFCURVE",
"824 741 QCURVE SMOOTH",
"824 868 OFFCURVE",
"713 1011 OFFCURVE",
"574 1012 QCURVE SMOOTH"
);
}
);
width = 1084;
}
);
leftKerningGroup = StraightRight_UC;
unicode = 00DE;
userData = {
com.typemytype.robofont.guideline.magnetic.T8KKW8oxop = 5;
com.typemytype.robofont.guideline.magnetic.i9jYwjBDP4 = 5;
};
},
{
glyphname = OE;
layers = (
{
layerId = "6BF8B6E1-1195-476D-8D60-16328723C279";
paths = (
{
closed = 1;
nodes = (
"676 1477 OFFCURVE",
"827 1464 OFFCURVE",
"894 1456 QCURVE",
"1600 1456 LINE",
"1600 1303 LINE",
"1000 1303 LINE",
"1000 828 LINE",
"1508 828 LINE",
"1508 674 LINE",
"1000 674 LINE",
"1000 153 LINE",
"1610 153 LINE",
"1610 0 LINE",
"894 0 LINE",
"827 -7 OFFCURVE",
"678 -21 OFFCURVE",
"602 -21 QCURVE SMOOTH",
"388 -21 OFFCURVE",
"115 340 OFFCURVE",
"115 682 QCURVE SMOOTH",
"115 772 LINE SMOOTH",
"115 1105 OFFCURVE",
"385 1477 OFFCURVE",
"643 1477 QCURVE SMOOTH"
);
},
{
closed = 1;
nodes = (
"300 418 OFFCURVE",
"473 128 OFFCURVE",
"645 128 QCURVE SMOOTH",
"698 128 OFFCURVE",
"778 137 OFFCURVE",
"816 143 QCURVE",
"816 1310 LINE",
"764 1317 OFFCURVE",
"669 1325 OFFCURVE",
"647 1325 QCURVE SMOOTH",
"470 1325 OFFCURVE",
"300 1030 OFFCURVE",
"300 774 QCURVE SMOOTH",
"300 682 LINE SMOOTH"
);
}
);
width = 1678;
}
);
leftKerningGroup = CG_UC;
rightKerningGroup = E_UC;
unicode = 0152;
},
{
glyphname = Schwa;
layers = (
{
layerId = "6BF8B6E1-1195-476D-8D60-16328723C279";
paths = (
{
closed = 1;
nodes = (
"160 1353 OFFCURVE",
"437 1519 OFFCURVE",
"599 1519 QCURVE SMOOTH",
"932 1519 OFFCURVE",
"1226 1094 OFFCURVE",
"1226 789 QCURVE SMOOTH",
"1226 445 OFFCURVE",
"912 -30 OFFCURVE",
"622 -30 QCURVE SMOOTH",
"371 -30 OFFCURVE",
"102 285 OFFCURVE",
"102 578 QCURVE SMOOTH",
"102 686 LINE",
"1088 686 LINE",
"1088 554 LINE",
"595 562 LINE",
"298 556 LINE",
"298 481 LINE SMOOTH",
"298 296 OFFCURVE",
"471 97 OFFCURVE",
"632 97 QCURVE SMOOTH",
"842 97 OFFCURVE",
"1037 462 OFFCURVE",
"1035 749 QCURVE SMOOTH",
"1033 1047 OFFCURVE",
"790 1375 OFFCURVE",
"581 1375 QCURVE SMOOTH",
"444 1375 OFFCURVE",
"225 1246 OFFCURVE",
"157 1126 QCURVE",
"64 1199 LINE"
);
}
);
width = 1306;
}
);
rightKerningGroup = D_UC;
unicode = 018F;
},
{
glyphname = Germandbls;
layers = (
{
layerId = "6BF8B6E1-1195-476D-8D60-16328723C279";
paths = (
{
closed = 1;
nodes = (
"188 1280 OFFCURVE",
"392 1510 OFFCURVE",
"581 1510 QCURVE SMOOTH",
"758 1510 OFFCURVE",
"949 1372 OFFCURVE",
"949 1244 QCURVE SMOOTH",
"949 1142 OFFCURVE",
"866 1010 OFFCURVE",
"806 966 QCURVE SMOOTH",
"761 933 OFFCURVE",
"720 888 OFFCURVE",
"720 871 QCURVE SMOOTH",
"720 838 OFFCURVE",
"821 785 OFFCURVE",
"956 736 QCURVE SMOOTH",
"1149 666 OFFCURVE",
"1279 486 OFFCURVE",
"1279 336 QCURVE SMOOTH",
"1279 160 OFFCURVE",
"1067 -30 OFFCURVE",
"870 -30 QCURVE SMOOTH",
"670 -30 OFFCURVE",
"455 161 OFFCURVE",
"455 338 QCURVE SMOOTH",
"455 350 LINE",
"658 350 LINE",
"658 338 LINE SMOOTH",
"658 240 OFFCURVE",
"762 135 OFFCURVE",
"859 135 QCURVE SMOOTH",
"966 135 OFFCURVE",
"1082 236 OFFCURVE",
"1082 330 QCURVE SMOOTH",
"1082 427 OFFCURVE",
"990 521 OFFCURVE",
"819 584 QCURVE SMOOTH",
"644 648 OFFCURVE",
"514 763 OFFCURVE",
"514 841 QCURVE SMOOTH",
"514 906 OFFCURVE",
"575 1008 OFFCURVE",
"642 1056 QCURVE SMOOTH",
"712 1106 OFFCURVE",
"774 1172 OFFCURVE",
"774 1229 QCURVE SMOOTH",
"774 1286 OFFCURVE",
"677 1348 OFFCURVE",
"587 1348 QCURVE SMOOTH",
"482 1348 OFFCURVE",
"370 1186 OFFCURVE",
"370 1036 QCURVE SMOOTH",
"370 355 LINE SMOOTH",
"370 184 OFFCURVE",
"213 -16 OFFCURVE",
"78 -16 QCURVE SMOOTH",
"65 -16 OFFCURVE",
"38 -14 OFFCURVE",
"25 -12 QCURVE",
"23 172 LINE",
"32 169 OFFCURVE",
"51 167 OFFCURVE",
"60 167 QCURVE SMOOTH",
"120 167 OFFCURVE",
"188 264 OFFCURVE",
"188 355 QCURVE SMOOTH",
"188 1066 LINE SMOOTH"
);
}
);
width = 1359;
}
);
unicode = 1E9E;
},
{
glyphname = micro;
layers = (
{
layerId = "6BF8B6E1-1195-476D-8D60-16328723C279";
paths = (
{
closed = 1;
nodes = (
"418 1052 LINE",
"286 371 LINE SMOOTH",
"261 247 OFFCURVE",
"314 136 OFFCURVE",
"397 136 QCURVE SMOOTH",
"463 136 OFFCURVE",
"580 217 OFFCURVE",
"643 308 QCURVE",
"787 1052 LINE",
"973 1052 LINE",
"769 0 LINE",
"601 0 LINE",
"619 135 LINE",
"613 135 LINE",
"552 63 OFFCURVE",
"412 -20 OFFCURVE",
"338 -20 QCURVE SMOOTH",
"285 -20 OFFCURVE",
"229 18 OFFCURVE",
"222 42 QCURVE",
"134 -416 LINE",
"-44 -416 LINE",
"240 1052 LINE"
);
}
);
width = 1072;
}
);
unicode = 00B5;
},
{
glyphname = a;
layers = (
{
layerId = "6BF8B6E1-1195-476D-8D60-16328723C279";
paths = (
{
closed = 1;
nodes = (
"42 473 OFFCURVE",
"272 646 OFFCURVE",
"444 646 QCURVE SMOOTH",
"619 646 LINE",
"632 720 LINE SMOOTH",
"648 817 OFFCURVE",
"598 938 OFFCURVE",
"511 938 QCURVE SMOOTH",
"423 938 OFFCURVE",
"330 837 OFFCURVE",
"319 770 QCURVE SMOOTH",
"318 765 LINE",
"146 765 LINE",
"147 770 LINE SMOOTH",
"169 905 OFFCURVE",
"386 1082 OFFCURVE",
"541 1082 QCURVE SMOOTH",
"697 1082 OFFCURVE",
"836 910 OFFCURVE",
"804 720 QCURVE SMOOTH",
"719 240 LINE SMOOTH",
"708 175 OFFCURVE",
"705 60 OFFCURVE",
"713 16 QCURVE",
"710 0 LINE",
"542 0 LINE",
"536 23 OFFCURVE",
"531 95 OFFCURVE",
"534 132 QCURVE",
"495 72 OFFCURVE",
"351 -20 OFFCURVE",
"252 -20 QCURVE SMOOTH",
"127 -20 OFFCURVE",
"-14 139 OFFCURVE",
"14 308 QCURVE SMOOTH"
);
},
{
closed = 1;
nodes = (
"172 212 OFFCURVE",
"233 124 OFFCURVE",
"309 124 QCURVE SMOOTH",
"390 124 OFFCURVE",
"554 243 OFFCURVE",
"569 344 QCURVE",
"596 518 LINE",
"437 518 LINE SMOOTH",
"333 518 OFFCURVE",
"204 418 OFFCURVE",
"188 308 QCURVE SMOOTH"
);
}
);
width = 939;
}
);
leftKerningGroup = a_LC;
rightKerningGroup = a_LC;
unicode = 0061;
},
{
glyphname = b;
layers = (
{
layerId = "6BF8B6E1-1195-476D-8D60-16328723C279";
paths = (
{
closed = 1;
nodes = (
"286 1536 LINE",
"459 1536 LINE",
"352 943 LINE",
"400 1002 OFFCURVE",
"536 1072 OFFCURVE",
"623 1072 QCURVE SMOOTH",
"784 1072 OFFCURVE",
"924 772 OFFCURVE",
"882 542 QCURVE SMOOTH",
"876 509 LINE SMOOTH",
"834 279 OFFCURVE",
"591 -20 OFFCURVE",
"430 -20 QCURVE SMOOTH",
"343 -20 OFFCURVE",
"229 62 OFFCURVE",
"208 122 QCURVE",
"204 122 LINE",
"174 0 LINE",
"16 0 LINE"
);
},
{
closed = 1;
nodes = (
"255 224 OFFCURVE",
"340 128 OFFCURVE",
"415 128 QCURVE SMOOTH",
"528 128 OFFCURVE",
"672 318 OFFCURVE",
"700 480 QCURVE SMOOTH",
"716 572 LINE SMOOTH",
"744 734 OFFCURVE",
"667 924 OFFCURVE",
"558 924 QCURVE SMOOTH",
"486 924 OFFCURVE",
"351 820 OFFCURVE",
"318 764 QCURVE",
"243 288 LINE"
);
}
);
width = 997;
}
);
leftKerningGroup = bhk_LC;
rightKerningGroup = b_LC;
unicode = 0062;
},
{
glyphname = c;
layers = (
{
layerId = "6BF8B6E1-1195-476D-8D60-16328723C279";
paths = (
{
closed = 1;
nodes = (
"50 542 LINE SMOOTH",
"92 800 OFFCURVE",
"358 1082 OFFCURVE",
"546 1082 QCURVE SMOOTH",
"718 1082 OFFCURVE",
"857 865 OFFCURVE",
"832 715 QCURVE SMOOTH",
"831 710 LINE",
"665 710 LINE",
"666 715 LINE SMOOTH",
"680 802 OFFCURVE",
"623 933 OFFCURVE",
"518 933 QCURVE SMOOTH",
"405 933 OFFCURVE",
"253 739 OFFCURVE",
"226 572 QCURVE SMOOTH",
"211 480 LINE SMOOTH",
"184 313 OFFCURVE",
"259 118 OFFCURVE",
"366 118 QCURVE SMOOTH",
"473 118 OFFCURVE",
"584 250 OFFCURVE",
"599 337 QCURVE SMOOTH",
"600 342 LINE",
"766 342 LINE",
"765 337 LINE SMOOTH",
"741 187 OFFCURVE",
"522 -30 OFFCURVE",
"342 -30 QCURVE SMOOTH",
"162 -30 OFFCURVE",
"2 252 OFFCURVE",
"44 510 QCURVE SMOOTH"
);
}
);
width = 867;
}
);
leftKerningGroup = alpha;
rightKerningGroup = c_LC;
unicode = 0063;
},
{
glyphname = d;
layers = (
{
layerId = "6BF8B6E1-1195-476D-8D60-16328723C279";
paths = (
{
closed = 1;
nodes = (
"50 542 LINE SMOOTH",
"91 772 OFFCURVE",
"335 1072 OFFCURVE",
"496 1072 QCURVE SMOOTH",
"583 1072 OFFCURVE",
"691 1002 OFFCURVE",
"717 943 QCURVE",
"824 1536 LINE",
"996 1536 LINE",
"725 0 LINE",
"567 0 LINE",
"585 122 LINE",
"581 122 LINE",
"538 62 OFFCURVE",
"390 -20 OFFCURVE",
"304 -20 QCURVE SMOOTH",
"143 -20 OFFCURVE",
"4 280 OFFCURVE",
"44 510 QCURVE SMOOTH"
);
},
{
closed = 1;
nodes = (
"185 318 OFFCURVE",
"260 128 OFFCURVE",
"372 128 QCURVE SMOOTH",
"447 128 OFFCURVE",
"572 225 OFFCURVE",
"608 288 QCURVE",
"683 764 LINE",
"672 827 OFFCURVE",
"586 924 OFFCURVE",
"511 924 QCURVE SMOOTH",
"399 924 OFFCURVE",
"252 734 OFFCURVE",
"226 572 QCURVE SMOOTH",
"211 480 LINE SMOOTH"
);
}
);
width = 997;
}
);
leftKerningGroup = alpha;
unicode = 0064;
},
{
glyphname = e;
layers = (
{
layerId = "6BF8B6E1-1195-476D-8D60-16328723C279";
paths = (
{
closed = 1;
nodes = (
"50 542 LINE SMOOTH",
"92 800 OFFCURVE",
"360 1082 OFFCURVE",
"537 1082 QCURVE SMOOTH",
"714 1082 OFFCURVE",
"855 820 OFFCURVE",
"813 560 QCURVE SMOOTH",
"799 486 LINE",
"135 486 LINE",
"161 630 LINE",
"651 630 LINE",
"655 651 LINE SMOOTH",
"675 772 OFFCURVE",
"616 934 OFFCURVE",
"510 934 QCURVE SMOOTH",
"403 934 OFFCURVE",
"253 757 OFFCURVE",
"223 572 QCURVE SMOOTH",
"208 480 LINE SMOOTH",
"179 303 OFFCURVE",
"260 118 OFFCURVE",
"383 118 QCURVE SMOOTH",
"469 118 OFFCURVE",
"592 206 OFFCURVE",
"639 265 QCURVE",
"750 186 LINE",
"690 92 OFFCURVE",
"488 -30 OFFCURVE",
"366 -30 QCURVE SMOOTH",
"164 -30 OFFCURVE",
"2 252 OFFCURVE",
"44 510 QCURVE SMOOTH"
);
}
);
width = 896;
}
);
leftKerningGroup = alpha;
rightKerningGroup = e_LC;
unicode = 0065;
},
{
glyphname = f;
layers = (
{
layerId = "6BF8B6E1-1195-476D-8D60-16328723C279";
paths = (
{
closed = 1;
nodes = (
"240 1200 LINE SMOOTH",
"270 1374 OFFCURVE",
"465 1556 OFFCURVE",
"606 1556 QCURVE SMOOTH",
"631 1556 OFFCURVE",
"686 1548 OFFCURVE",
"708 1540 QCURVE",
"673 1394 LINE",
"656 1399 OFFCURVE",
"615 1405 OFFCURVE",
"593 1405 QCURVE SMOOTH",
"523 1405 OFFCURVE",
"430 1302 OFFCURVE",
"412 1200 QCURVE SMOOTH",
"375 994 LINE",
"372 972 LINE",
"201 0 LINE",
"28 0 LINE"
);
},
{
closed = 1;
nodes = (
"82 1052 LINE",
"282 1052 LINE",
"318 1052 LINE",
"565 1052 LINE",
"540 914 LINE",
"57 914 LINE"
);
}
);
width = 498;
}
);
leftKerningGroup = f_LC;
rightKerningGroup = f_LC;
unicode = 0066;
},
{
glyphname = g;
layers = (
{
layerId = "6BF8B6E1-1195-476D-8D60-16328723C279";
paths = (
{
closed = 1;
nodes = (
"65 -150 LINE",
"92 -200 OFFCURVE",
"204 -279 OFFCURVE",
"284 -279 QCURVE SMOOTH",
"386 -279 OFFCURVE",
"532 -122 OFFCURVE",
"556 20 QCURVE SMOOTH",
"575 109 LINE",
"527 50 OFFCURVE",
"390 -20 OFFCURVE",
"291 -20 QCURVE SMOOTH",
"133 -20 OFFCURVE",
"4 270 OFFCURVE",
"44 510 QCURVE SMOOTH",
"50 542 LINE SMOOTH",
"91 772 OFFCURVE",
"335 1072 OFFCURVE",
"496 1072 QCURVE SMOOTH",
"583 1072 OFFCURVE",
"698 990 OFFCURVE",
"718 930 QCURVE",
"722 930 LINE",
"753 1052 LINE",
"911 1052 LINE",
"729 20 LINE SMOOTH",
"690 -200 OFFCURVE",
"433 -436 OFFCURVE",
"261 -436 QCURVE SMOOTH",
"153 -436 OFFCURVE",
"-12 -352 OFFCURVE",
"-63 -286 QCURVE"
);
},
{
closed = 1;
nodes = (
"185 314 OFFCURVE",
"257 128 OFFCURVE",
"365 128 QCURVE SMOOTH",
"450 128 OFFCURVE",
"579 225 OFFCURVE",
"608 288 QCURVE",
"683 764 LINE",
"676 816 OFFCURVE",
"593 924 OFFCURVE",
"518 924 QCURVE SMOOTH",
"399 924 OFFCURVE",
"252 730 OFFCURVE",
"226 568 QCURVE SMOOTH",
"211 476 LINE SMOOTH"
);
}
);
width = 997;
}
);
leftKerningGroup = alpha;
unicode = 0067;
},
{
glyphname = h;
layers = (
{
layerId = "6BF8B6E1-1195-476D-8D60-16328723C279";
paths = (
{
closed = 1;
nodes = (
"286 1536 LINE",
"459 1536 LINE",
"351 914 LINE",
"401 986 OFFCURVE",
"552 1072 OFFCURVE",
"649 1072 QCURVE SMOOTH",
"759 1072 OFFCURVE",
"872 900 OFFCURVE",
"835 724 QCURVE SMOOTH",
"715 0 LINE",
"543 0 LINE",
"664 726 LINE SMOOTH",
"680 822 OFFCURVE",
"635 921 OFFCURVE",
"564 921 QCURVE SMOOTH",
"485 921 OFFCURVE",
"355 814 OFFCURVE",
"319 744 QCURVE",
"188 0 LINE",
"16 0 LINE"
);
}
);
width = 977;
}
);
leftKerningGroup = bhk_LC;
rightKerningGroup = hmn_LC;
unicode = 0068;
},
{
glyphname = i;
layers = (
{
layerId = "6BF8B6E1-1195-476D-8D60-16328723C279";
paths = (
{
closed = 1;
nodes = (
"210 1052 LINE",
"382 1052 LINE",
"197 0 LINE",
"24 0 LINE"
);
},
{
closed = 1;
nodes = (
"253 1417 OFFCURVE",
"310 1476 OFFCURVE",
"360 1476 QCURVE SMOOTH",
"409 1475 OFFCURVE",
"458 1415 OFFCURVE",
"455 1371 QCURVE SMOOTH",
"451 1327 OFFCURVE",
"394 1268 OFFCURVE",
"344 1268 QCURVE SMOOTH",
"295 1269 OFFCURVE",
"246 1329 OFFCURVE",
"250 1373 QCURVE SMOOTH"
);
}
);
width = 477;
}
);
leftKerningGroup = i_LC;
rightKerningGroup = i_LC;
unicode = 0069;
},
{
glyphname = j;
layers = (
{
layerId = "6BF8B6E1-1195-476D-8D60-16328723C279";
paths = (
{
closed = 1;
nodes = (
"-221 -265 LINE",
"-205 -271 OFFCURVE",
"-148 -285 OFFCURVE",
"-122 -285 QCURVE SMOOTH",
"-76 -285 OFFCURVE",
"-13 -213 OFFCURVE",
"1 -130 QCURVE SMOOTH",
"210 1052 LINE",
"382 1052 LINE",
"181 -90 LINE SMOOTH",
"149 -270 OFFCURVE",
"-1 -436 OFFCURVE",
"-117 -436 QCURVE SMOOTH",
"-150 -436 OFFCURVE",
"-228 -419 OFFCURVE",
"-247 -410 QCURVE"
);
},
{
closed = 1;
nodes = (
"253 1417 OFFCURVE",
"310 1476 OFFCURVE",
"360 1476 QCURVE SMOOTH",
"409 1475 OFFCURVE",
"458 1415 OFFCURVE",
"455 1371 QCURVE SMOOTH",
"451 1327 OFFCURVE",
"394 1268 OFFCURVE",
"344 1268 QCURVE SMOOTH",
"295 1269 OFFCURVE",
"246 1329 OFFCURVE",
"250 1373 QCURVE SMOOTH"
);
}
);
width = 477;
}
);
rightKerningGroup = j_LC;
unicode = 006A;
},
{
glyphname = k;
layers = (
{
layerId = "6BF8B6E1-1195-476D-8D60-16328723C279";
paths = (
{
closed = 1;
nodes = (
"286 1536 LINE",
"459 1536 LINE",
"287 603 LINE",
"714 1052 LINE",
"902 1052 LINE",
"251 384 LINE",
"188 0 LINE",
"16 0 LINE"
);
},
{
closed = 1;
nodes = (
"380 594 LINE",
"492 731 LINE",
"753 0 LINE",
"583 0 LINE"
);
}
);
width = 867;
}
);
leftKerningGroup = bhk_LC;
rightKerningGroup = k_LC;
unicode = 006B;
},
{
glyphname = l;
layers = (
{
layerId = "6BF8B6E1-1195-476D-8D60-16328723C279";
paths = (
{
closed = 1;
nodes = (
"294 1536 LINE",
"467 1536 LINE",
"196 0 LINE",
"23 0 LINE"
);
}
);
width = 476;
}
);
leftKerningGroup = bhk_LC;
rightKerningGroup = l_LC;
unicode = 006C;
},
{
glyphname = m;
layers = (
{
layerId = "6BF8B6E1-1195-476D-8D60-16328723C279";
paths = (
{
closed = 1;
nodes = (
"201 1052 LINE",
"359 1052 LINE",
"342 932 LINE",
"346 932 LINE",
"403 998 OFFCURVE",
"542 1072 OFFCURVE",
"618 1072 QCURVE SMOOTH",
"704 1072 OFFCURVE",
"809 988 OFFCURVE",
"823 900 QCURVE",
"827 900 LINE",
"888 982 OFFCURVE",
"1034 1072 OFFCURVE",
"1121 1072 QCURVE SMOOTH",
"1248 1072 OFFCURVE",
"1360 900 OFFCURVE",
"1323 773 QCURVE SMOOTH",
"1203 0 LINE",
"1030 0 LINE",
"1149 744 LINE SMOOTH",
"1164 838 OFFCURVE",
"1113 921 OFFCURVE",
"1046 921 QCURVE SMOOTH",
"973 921 OFFCURVE",
"858 836 OFFCURVE",
"827 784 QCURVE",
"696 0 LINE",
"522 0 LINE",
"641 746 LINE SMOOTH",
"656 838 OFFCURVE",
"599 921 OFFCURVE",
"542 921 QCURVE SMOOTH",
"479 921 OFFCURVE",
"354 836 OFFCURVE",
"319 784 QCURVE",
"188 0 LINE",
"16 0 LINE"
);
}
);
width = 1466;
}
);
leftKerningGroup = mnpr_LC;
rightKerningGroup = hmn_LC;
unicode = 006D;
},
{
glyphname = n;
layers = (
{
layerId = "6BF8B6E1-1195-476D-8D60-16328723C279";
paths = (
{
closed = 1;
nodes = (
"201 1052 LINE",
"359 1052 LINE",
"342 932 LINE",
"346 932 LINE",
"403 998 OFFCURVE",
"548 1072 OFFCURVE",
"627 1072 QCURVE SMOOTH",
"755 1072 OFFCURVE",
"872 900 OFFCURVE",
"835 698 QCURVE SMOOTH",
"715 0 LINE",
"543 0 LINE",
"663 710 LINE SMOOTH",
"685 820 OFFCURVE",
"627 921 OFFCURVE",
"546 921 QCURVE SMOOTH",
"471 921 OFFCURVE",
"353 828 OFFCURVE",
"319 774 QCURVE",
"188 0 LINE",
"16 0 LINE"
);
}
);
width = 977;
}
);
leftKerningGroup = mnpr_LC;
rightKerningGroup = hmn_LC;
unicode = 006E;
},
{
glyphname = o;
layers = (
{
layerId = "6BF8B6E1-1195-476D-8D60-16328723C279";
paths = (
{
closed = 1;
nodes = (
"50 542 LINE SMOOTH",
"92 800 OFFCURVE",
"367 1082 OFFCURVE",
"553 1082 QCURVE SMOOTH",
"740 1082 OFFCURVE",
"909 800 OFFCURVE",
"867 542 QCURVE SMOOTH",
"862 510 LINE SMOOTH",
"820 252 OFFCURVE",
"544 -30 OFFCURVE",
"357 -30 QCURVE SMOOTH",
"171 -30 OFFCURVE",
"2 252 OFFCURVE",
"44 510 QCURVE SMOOTH"
);
},
{
closed = 1;
nodes = (
"211 480 LINE SMOOTH",
"184 313 OFFCURVE",
"269 118 OFFCURVE",
"384 118 QCURVE SMOOTH",
"500 118 OFFCURVE",
"660 313 OFFCURVE",
"685 480 QCURVE SMOOTH",
"699 572 LINE SMOOTH",
"725 744 OFFCURVE",
"648 934 OFFCURVE",
"527 934 QCURVE SMOOTH",
"405 934 OFFCURVE",
"253 739 OFFCURVE",
"226 572 QCURVE SMOOTH"
);
}
);
width = 981;
}
);
leftKerningGroup = o_LC;
rightKerningGroup = o_LC;
unicode = 006F;
},
{
glyphname = p;
layers = (
{
layerId = "6BF8B6E1-1195-476D-8D60-16328723C279";
paths = (
{
closed = 1;
nodes = (
"201 1052 LINE",
"359 1052 LINE",
"342 930 LINE",
"345 930 LINE",
"389 990 OFFCURVE",
"536 1072 OFFCURVE",
"623 1072 QCURVE SMOOTH",
"784 1072 OFFCURVE",
"923 772 OFFCURVE",
"882 542 QCURVE SMOOTH",
"876 510 LINE SMOOTH",
"836 280 OFFCURVE",
"591 -20 OFFCURVE",
"430 -20 QCURVE SMOOTH",
"343 -20 OFFCURVE",
"235 43 OFFCURVE",
"210 102 QCURVE",
"115 -416 LINE",
"-58 -416 LINE"
);
},
{
closed = 1;
nodes = (
"250 230 OFFCURVE",
"330 128 OFFCURVE",
"415 128 QCURVE SMOOTH",
"525 128 OFFCURVE",
"662 318 OFFCURVE",
"690 480 QCURVE SMOOTH",
"706 572 LINE SMOOTH",
"734 734 OFFCURVE",
"667 924 OFFCURVE",
"559 924 QCURVE SMOOTH",
"481 924 OFFCURVE",
"353 828 OFFCURVE",
"318 774 QCURVE",
"243 276 LINE"
);
}
);
width = 997;
}
);
leftKerningGroup = mnpr_LC;
rightKerningGroup = b_LC;
unicode = 0070;
},
{
glyphname = q;
layers = (
{
layerId = "6BF8B6E1-1195-476D-8D60-16328723C279";
paths = (
{
closed = 1;
nodes = (
"50 542 LINE SMOOTH",
"91 772 OFFCURVE",
"335 1072 OFFCURVE",
"496 1072 QCURVE SMOOTH",
"583 1072 OFFCURVE",
"698 990 OFFCURVE",
"718 930 QCURVE",
"722 930 LINE",
"753 1052 LINE",
"911 1052 LINE",
"652 -416 LINE",
"480 -416 LINE",
"575 109 LINE",
"575 109 LINE",
"527 50 OFFCURVE",
"390 -20 OFFCURVE",
"304 -20 QCURVE SMOOTH",
"143 -20 OFFCURVE",
"4 280 OFFCURVE",
"44 510 QCURVE SMOOTH"
);
},
{
closed = 1;
nodes = (
"185 318 OFFCURVE",
"260 128 OFFCURVE",
"372 128 QCURVE SMOOTH",
"447 128 OFFCURVE",
"572 225 OFFCURVE",
"608 288 QCURVE",
"683 774 LINE",
"676 828 OFFCURVE",
"598 924 OFFCURVE",
"521 924 QCURVE SMOOTH",
"409 924 OFFCURVE",
"254 745 OFFCURVE",
"226 572 QCURVE SMOOTH",
"211 480 LINE SMOOTH"
);
}
);
width = 997;
}
);
leftKerningGroup = alpha;
unicode = 0071;
},
{
glyphname = r;
layers = (
{
layerId = "6BF8B6E1-1195-476D-8D60-16328723C279";
paths = (
{
closed = 1;
nodes = (
"201 1052 LINE",
"359 1052 LINE",
"342 937 LINE",
"346 937 LINE",
"388 996 OFFCURVE",
"503 1082 OFFCURVE",
"569 1082 QCURVE SMOOTH",
"588 1082 OFFCURVE",
"626 1072 OFFCURVE",
"634 1068 QCURVE",
"604 902 LINE",
"587 906 OFFCURVE",
"551 910 OFFCURVE",
"530 910 QCURVE SMOOTH",
"464 910 OFFCURVE",
"354 827 OFFCURVE",
"318 764 QCURVE",
"188 0 LINE",
"16 0 LINE"
);
}
);
width = 603;
}
);
leftKerningGroup = mnpr_LC;
rightKerningGroup = r_LC;
unicode = 0072;
},
{
glyphname = s;
layers = (
{
layerId = "6BF8B6E1-1195-476D-8D60-16328723C279";
paths = (
{
closed = 1;
nodes = (
"177 310 LINE",
"176 305 LINE SMOOTH",
"160 212 OFFCURVE",
"244 114 OFFCURVE",
"324 114 QCURVE SMOOTH",
"405 114 OFFCURVE",
"511 185 OFFCURVE",
"523 255 QCURVE SMOOTH",
"535 328 OFFCURVE",
"469 421 OFFCURVE",
"344 472 QCURVE SMOOTH",
"218 523 OFFCURVE",
"97 694 OFFCURVE",
"121 821 QCURVE SMOOTH",
"143 940 OFFCURVE",
"346 1082 OFFCURVE",
"494 1082 QCURVE SMOOTH",
"646 1082 OFFCURVE",
"796 909 OFFCURVE",
"766 760 QCURVE SMOOTH",
"765 755 LINE",
"594 755 LINE",
"596 780 LINE SMOOTH",
"603 863 OFFCURVE",
"547 938 OFFCURVE",
"467 938 QCURVE SMOOTH",
"388 938 OFFCURVE",
"298 878 OFFCURVE",
"288 814 QCURVE SMOOTH",
"277 749 OFFCURVE",
"349 663 OFFCURVE",
"476 613 QCURVE SMOOTH",
"602 563 OFFCURVE",
"721 402 OFFCURVE",
"696 267 QCURVE SMOOTH",
"672 122 OFFCURVE",
"470 -30 OFFCURVE",
"297 -30 QCURVE SMOOTH",
"118 -30 OFFCURVE",
"-23 146 OFFCURVE",
"3 305 QCURVE SMOOTH",
"4 310 LINE"
);
}
);
width = 854;
}
);
leftKerningGroup = s_LC;
rightKerningGroup = s_LC;
unicode = 0073;
},
{
glyphname = t;
layers = (
{
layerId = "6BF8B6E1-1195-476D-8D60-16328723C279";
paths = (
{
closed = 1;
nodes = (
"57 1052 LINE",
"558 1052 LINE",
"533 914 LINE",
"32 914 LINE"
);
},
{
closed = 1;
nodes = (
"191 968 LINE",
"196 998 LINE",
"252 1312 LINE",
"424 1312 LINE",
"239 253 LINE SMOOTH",
"226 177 OFFCURVE",
"258 125 OFFCURVE",
"305 125 QCURVE SMOOTH",
"327 125 OFFCURVE",
"371 134 OFFCURVE",
"395 142 QCURVE",
"368 0 LINE",
"345 -12 OFFCURVE",
"273 -30 OFFCURVE",
"232 -30 QCURVE SMOOTH",
"133 -30 OFFCURVE",
"40 110 OFFCURVE",
"66 260 QCURVE SMOOTH"
);
}
);
width = 550;
}
);
leftKerningGroup = t_LC;
rightKerningGroup = t_LC;
unicode = 0074;
},
{
glyphname = u;
layers = (
{
layerId = "6BF8B6E1-1195-476D-8D60-16328723C279";
paths = (
{
closed = 1;
nodes = (
"191 1052 LINE",
"364 1052 LINE",
"244 352 LINE SMOOTH",
"221 234 OFFCURVE",
"277 131 OFFCURVE",
"360 131 QCURVE SMOOTH",
"432 131 OFFCURVE",
"541 204 OFFCURVE",
"587 268 QCURVE",
"718 1052 LINE",
"891 1052 LINE",
"705 0 LINE",
"547 0 LINE",
"565 100 LINE",
"560 100 LINE",
"505 47 OFFCURVE",
"366 -20 OFFCURVE",
"269 -20 QCURVE SMOOTH",
"153 -20 OFFCURVE",
"34 152 OFFCURVE",
"72 354 QCURVE SMOOTH"
);
}
);
width = 977;
}
);
leftKerningGroup = u_LC;
rightKerningGroup = u_LC;
unicode = 0075;
},
{
glyphname = v;
layers = (
{
layerId = "6BF8B6E1-1195-476D-8D60-16328723C279";
paths = (
{
closed = 1;
nodes = (
"227 1052 LINE",
"289 374 LINE SMOOTH",
"293 334 OFFCURVE",
"295 264 OFFCURVE",
"297 224 QCURVE",
"302 224 LINE",
"310 264 OFFCURVE",
"338 334 OFFCURVE",
"356 374 QCURVE SMOOTH",
"665 1052 LINE",
"839 1052 LINE",
"332 0 LINE",
"194 0 LINE",
"57 1052 LINE"
);
}
);
width = 782;
}
);
leftKerningGroup = gamma;
rightKerningGroup = gamma;
unicode = 0076;
},
{
glyphname = w;
layers = (
{
layerId = "6BF8B6E1-1195-476D-8D60-16328723C279";
paths = (
{
closed = 1;
nodes = (
"249 1052 LINE",
"266 384 LINE SMOOTH",
"267 344 OFFCURVE",
"272 274 OFFCURVE",
"270 234 QCURVE",
"275 234 LINE",
"288 274 OFFCURVE",
"312 344 OFFCURVE",
"329 384 QCURVE SMOOTH",
"627 1052 LINE",
"784 1052 LINE",
"839 384 LINE SMOOTH",
"842 344 OFFCURVE",
"847 274 OFFCURVE",
"846 234 QCURVE",
"852 234 LINE",
"864 274 OFFCURVE",
"888 344 OFFCURVE",
"903 384 QCURVE SMOOTH",
"1161 1052 LINE",
"1322 1052 LINE",
"887 0 LINE",
"730 0 LINE",
"672 657 LINE SMOOTH",
"669 697 OFFCURVE",
"664 777 OFFCURVE",
"666 817 QCURVE",
"660 817 LINE",
"646 777 OFFCURVE",
"616 697 OFFCURVE",
"598 657 QCURVE SMOOTH",
"303 0 LINE",
"147 0 LINE",
"82 1052 LINE"
);
}
);
width = 1289;
}
);
leftKerningGroup = w_LC;
rightKerningGroup = w_LC;
unicode = 0077;
},
{
glyphname = x;
layers = (
{
layerId = "6BF8B6E1-1195-476D-8D60-16328723C279";
paths = (
{
closed = 1;
nodes = (
"318 580 LINE",
"328 580 LINE",
"656 1052 LINE",
"838 1052 LINE",
"427 486 LINE",
"415 486 LINE",
"73 0 LINE",
"-109 0 LINE"
);
},
{
closed = 1;
nodes = (
"270 1052 LINE",
"438 580 LINE",
"440 580 LINE",
"661 0 LINE",
"494 0 LINE",
"318 486 LINE",
"315 486 LINE",
"102 1052 LINE"
);
}
);
width = 817;
}
);
unicode = 0078;
},
{
glyphname = y;
layers = (
{
layerId = "6BF8B6E1-1195-476D-8D60-16328723C279";
paths = (
{
closed = 1;
nodes = (
"-123 -263 LINE",
"-103 -271 OFFCURVE",
"-52 -281 OFFCURVE",
"-28 -281 QCURVE SMOOTH",
"28 -281 OFFCURVE",
"125 -158 OFFCURVE",
"209 20 QCURVE",
"209 21 LINE",
"74 1052 LINE",
"244 1052 LINE",
"309 374 LINE SMOOTH",
"313 334 OFFCURVE",
"316 264 OFFCURVE",
"315 224 QCURVE",
"321 224 LINE",
"330 264 OFFCURVE",
"358 334 OFFCURVE",
"376 374 QCURVE SMOOTH",
"680 1052 LINE",
"853 1052 LINE",
"323 -63 LINE SMOOTH",
"223 -274 OFFCURVE",
"57 -436 OFFCURVE",
"-47 -436 QCURVE SMOOTH",
"-81 -436 OFFCURVE",
"-130 -426 OFFCURVE",
"-151 -416 QCURVE"
);
}
);
width = 796;
}
);
leftKerningGroup = gamma;
rightKerningGroup = gamma;
unicode = 0079;
},
{
glyphname = z;
layers = (
{
layerId = "6BF8B6E1-1195-476D-8D60-16328723C279";
paths = (
{
closed = 1;
nodes = (
"-51 133 LINE",
"537 904 LINE",
"90 904 LINE",
"117 1052 LINE",
"758 1052 LINE",
"734 922 LINE",
"143 148 LINE",
"624 148 LINE",
"597 0 LINE",
"-75 0 LINE"
);
}
);
width = 773;
}
);
leftKerningGroup = z_LC;
rightKerningGroup = z_LC;
unicode = 007A;
},
{
glyphname = germandbls;
layers = (
{
layerId = "6BF8B6E1-1195-476D-8D60-16328723C279";
paths = (
{
closed = 1;
nodes = (
"327 0 LINE",
"148 0 LINE",
"148 1092 LINE SMOOTH",
"148 1295 OFFCURVE",
"356 1534 OFFCURVE",
"555 1534 QCURVE SMOOTH",
"719 1534 OFFCURVE",
"897 1361 OFFCURVE",
"897 1215 QCURVE SMOOTH",
"897 1127 OFFCURVE",
"857 1016 OFFCURVE",
"820 973 QCURVE SMOOTH",
"788 935 OFFCURVE",
"734 859 OFFCURVE",
"734 830 QCURVE SMOOTH",
"734 782 OFFCURVE",
"852 681 OFFCURVE",
"933 619 QCURVE SMOOTH",
"1011 560 OFFCURVE",
"1098 411 OFFCURVE",
"1098 282 QCURVE SMOOTH",
"1098 136 OFFCURVE",
"919 -20 OFFCURVE",
"753 -20 QCURVE SMOOTH",
"598 -20 OFFCURVE",
"432 134 OFFCURVE",
"432 278 QCURVE SMOOTH",
"432 304 LINE",
"595 304 LINE",
"595 295 LINE SMOOTH",
"595 216 OFFCURVE",
"678 131 OFFCURVE",
"755 131 QCURVE SMOOTH",
"836 131 OFFCURVE",
"923 220 OFFCURVE",
"923 302 QCURVE SMOOTH",
"923 371 OFFCURVE",
"844 466 OFFCURVE",
"787 512 QCURVE SMOOTH",
"715 569 OFFCURVE",
"563 706 OFFCURVE",
"563 797 QCURVE SMOOTH",
"563 871 OFFCURVE",
"636 982 OFFCURVE",
"668 1026 QCURVE SMOOTH",
"697 1066 OFFCURVE",
"722 1149 OFFCURVE",
"722 1204 QCURVE SMOOTH",
"722 1293 OFFCURVE",
"633 1383 OFFCURVE",
"551 1383 QCURVE SMOOTH",
"448 1383 OFFCURVE",
"327 1241 OFFCURVE",
"327 1092 QCURVE {name = hr00;}"
);
}
);
width = 1178;
}
);
unicode = 00DF;
},
{
glyphname = ae;
layers = (
{
layerId = "6BF8B6E1-1195-476D-8D60-16328723C279";
paths = (
{
closed = 1;
nodes = (
"268 212 OFFCURVE",
"350 124 OFFCURVE",
"429 124 QCURVE SMOOTH",
"513 124 OFFCURVE",
"656 243 OFFCURVE",
"656 344 QCURVE",
"656 518 LINE",
"491 518 LINE SMOOTH",
"383 518 OFFCURVE",
"268 418 OFFCURVE",
"268 308 QCURVE SMOOTH"
);
},
{
closed = 1;
nodes = (
"90 473 OFFCURVE",
"296 646 OFFCURVE",
"474 646 QCURVE SMOOTH",
"656 646 LINE",
"656 720 LINE SMOOTH",
"656 817 OFFCURVE",
"582 938 OFFCURVE",
"491 938 QCURVE SMOOTH",
"400 938 OFFCURVE",
"321 837 OFFCURVE",
"321 770 QCURVE SMOOTH",
"321 765 LINE",
"144 765 LINE",
"144 770 LINE SMOOTH",
"144 905 OFFCURVE",
"334 1082 OFFCURVE",
"495 1082 QCURVE SMOOTH",
"593 1082 OFFCURVE",
"737 1021 OFFCURVE",
"778 956 QCURVE",
"831 1017 OFFCURVE",
"975 1082 OFFCURVE",
"1062 1082 QCURVE SMOOTH",
"1245 1082 OFFCURVE",
"1443 820 OFFCURVE",
"1443 560 QCURVE SMOOTH",
"1443 486 LINE",
"755 486 LINE",
"755 630 LINE",
"1263 630 LINE",
"1263 651 LINE",
"1263 772 OFFCURVE",
"1172 934 OFFCURVE",
"1062 934 QCURVE SMOOTH",
"951 934 OFFCURVE",
"835 757 OFFCURVE",
"835 572 QCURVE SMOOTH",
"835 480 LINE SMOOTH",
"835 303 OFFCURVE",
"950 118 OFFCURVE",
"1078 118 QCURVE SMOOTH",
"1167 118 OFFCURVE",
"1279 206 OFFCURVE",
"1317 265 QCURVE",
"1448 186 LINE",
"1400 92 OFFCURVE",
"1215 -30 OFFCURVE",
"1088 -30 QCURVE SMOOTH",
"966 -30 OFFCURVE",
"786 68 OFFCURVE",
"733 161 QCURVE",
"679 73 OFFCURVE",
"506 -20 OFFCURVE",
"397 -20 QCURVE SMOOTH",
"268 -20 OFFCURVE",
"90 139 OFFCURVE",
"90 308 QCURVE SMOOTH"
);
}
);
width = 1499;
}
);
leftKerningGroup = a_LC;
rightKerningGroup = e_LC;
unicode = 00E6;
},
{
glyphname = eth;
layers = (
{
layerId = "6BF8B6E1-1195-476D-8D60-16328723C279";
paths = (
{
closed = 1;
nodes = (
"271 1581 LINE",
"588 1510 OFFCURVE",
"929 1019 OFFCURVE",
"929 633 QCURVE",
"929 535 LINE",
"929 289 OFFCURVE",
"713 -20 OFFCURVE",
"511 -20 QCURVE SMOOTH",
"301 -20 OFFCURVE",
"85 265 OFFCURVE",
"85 468 QCURVE SMOOTH",
"85 698 OFFCURVE",
"290 978 OFFCURVE",
"483 978 QCURVE SMOOTH",
"652 978 OFFCURVE",
"833 748 OFFCURVE",
"833 613 QCURVE",
"764 614 LINE",
"764 708 OFFCURVE",
"630 830 OFFCURVE",
"527 830 QCURVE SMOOTH",
"381 830 OFFCURVE",
"266 632 OFFCURVE",
"266 468 QCURVE SMOOTH",
"266 345 OFFCURVE",
"374 118 OFFCURVE",
"515 118 QCURVE SMOOTH",
"643 118 OFFCURVE",
"748 363 OFFCURVE",
"748 535 QCURVE SMOOTH",
"748 635 LINE SMOOTH",
"748 980 OFFCURVE",
"473 1362 OFFCURVE",
"217 1429 QCURVE"
);
},
{
closed = 1;
nodes = (
"400 1061 LINE",
"317 1181 LINE",
"754 1546 LINE",
"837 1427 LINE"
);
}
);
width = 1014;
}
);
unicode = 00F0;
},
{
glyphname = thorn;
layers = (
{
layerId = "6BF8B6E1-1195-476D-8D60-16328723C279";
paths = (
{
closed = 1;
nodes = (
"148 1536 LINE",
"318 1536 LINE",
"318 930 LINE",
"355 990 OFFCURVE",
"491 1072 OFFCURVE",
"581 1072 QCURVE SMOOTH",
"748 1072 OFFCURVE",
"947 772 OFFCURVE",
"947 542 QCURVE SMOOTH",
"947 510 LINE SMOOTH",
"947 280 OFFCURVE",
"748 -20 OFFCURVE",
"581 -20 QCURVE SMOOTH",
"491 -20 OFFCURVE",
"364 43 OFFCURVE",
"326 102 QCURVE",
"326 102 LINE",
"326 -416 LINE",
"148 -416 LINE"
);
},
{
closed = 1;
nodes = (
"346 230 OFFCURVE",
"450 128 OFFCURVE",
"538 128 QCURVE SMOOTH",
"652 128 OFFCURVE",
"765 318 OFFCURVE",
"765 480 QCURVE SMOOTH",
"765 572 LINE SMOOTH",
"765 734 OFFCURVE",
"655 924 OFFCURVE",
"543 924 QCURVE SMOOTH",
"462 924 OFFCURVE",
"349 828 OFFCURVE",
"326 774 QCURVE",
"326 276 LINE"
);
}
);
width = 1032;
}
);
rightKerningGroup = b_LC;
unicode = 00FE;
},
{
glyphname = kgreenlandic;
layers = (
{
layerId = "6BF8B6E1-1195-476D-8D60-16328723C279";
paths = (
{
closed = 1;
nodes = (
"335 0 LINE",
"155 0 LINE",
"155 1052 LINE",
"335 1052 LINE"
);
},
{
closed = 1;
nodes = (
"511 466 LINE",
"250 466 LINE",
"250 620 LINE",
"432 620 LINE",
"712 1052 LINE",
"926 1052 LINE"
);
},
{
closed = 1;
nodes = (
"423 490 LINE",
"536 624 LINE",
"982 0 LINE",
"754 0 LINE"
);
}
);
width = 966;
}
);
leftKerningGroup = mnpr_LC;
rightKerningGroup = k_LC;
unicode = 0138;
},
{
glyphname = oe;
layers = (
{
layerId = "6BF8B6E1-1195-476D-8D60-16328723C279";
paths = (
{
closed = 1;
nodes = (
"267 480 LINE SMOOTH",
"267 315 OFFCURVE",
"388 118 OFFCURVE",
"508 118 QCURVE SMOOTH",
"628 118 OFFCURVE",
"750 315 OFFCURVE",
"750 480 QCURVE SMOOTH",
"750 572 LINE SMOOTH",
"750 742 OFFCURVE",
"634 934 OFFCURVE",
"508 934 QCURVE SMOOTH",
"382 934 OFFCURVE",
"267 737 OFFCURVE",
"267 572 QCURVE SMOOTH"
);
},
{
closed = 1;
nodes = (
"892 993 OFFCURVE",
"1055 1082 OFFCURVE",
"1157 1082 QCURVE SMOOTH",
"1340 1082 OFFCURVE",
"1538 820 OFFCURVE",
"1538 560 QCURVE SMOOTH",
"1538 486 LINE",
"850 486 LINE",
"850 630 LINE",
"1358 630 LINE",
"1358 651 LINE",
"1358 772 OFFCURVE",
"1267 934 OFFCURVE",
"1157 934 QCURVE SMOOTH",
"1046 934 OFFCURVE",
"930 757 OFFCURVE",
"930 572 QCURVE SMOOTH",
"930 480 LINE SMOOTH",
"930 303 OFFCURVE",
"1045 118 OFFCURVE",
"1173 118 QCURVE SMOOTH",
"1262 118 OFFCURVE",
"1374 206 OFFCURVE",
"1412 265 QCURVE",
"1543 186 LINE",
"1495 92 OFFCURVE",
"1310 -30 OFFCURVE",
"1183 -30 QCURVE SMOOTH",
"1067 -30 OFFCURVE",
"893 58 OFFCURVE",
"839 142 QCURVE",
"784 58 OFFCURVE",
"615 -30 OFFCURVE",
"508 -30 QCURVE SMOOTH",
"315 -30 OFFCURVE",
"85 252 OFFCURVE",
"85 510 QCURVE SMOOTH",
"85 542 LINE SMOOTH",
"85 800 OFFCURVE",
"315 1082 OFFCURVE",
"508 1082 QCURVE SMOOTH",
"615 1082 OFFCURVE",
"785 993 OFFCURVE",
"839 909 QCURVE"
);
}
);
width = 1594;
}
);
leftKerningGroup = alpha;
rightKerningGroup = e_LC;
unicode = 0153;
},
{
glyphname = schwa;
layers = (
{
layerId = "6BF8B6E1-1195-476D-8D60-16328723C279";
paths = (
{
closed = 1;
nodes = (
"895 510 LINE SMOOTH",
"895 250 OFFCURVE",
"669 -30 OFFCURVE",
"459 -30 QCURVE SMOOTH",
"263 -30 OFFCURVE",
"52 240 OFFCURVE",
"52 492 QCURVE SMOOTH",
"52 568 LINE",
"781 568 LINE",
"781 420 LINE",
"240 420 LINE",
"239 396 LINE",
"240 264 OFFCURVE",
"350 122 OFFCURVE",
"451 122 QCURVE SMOOTH",
"573 122 OFFCURVE",
"705 323 OFFCURVE",
"705 510 QCURVE SMOOTH",
"705 542 LINE SMOOTH",
"705 729 OFFCURVE",
"562 930 OFFCURVE",
"429 930 QCURVE SMOOTH",
"363 930 OFFCURVE",
"233 853 OFFCURVE",
"180 782 QCURVE",
"60 877 LINE",
"126 976 OFFCURVE",
"317 1082 OFFCURVE",
"429 1082 QCURVE SMOOTH",
"654 1082 OFFCURVE",
"895 802 OFFCURVE",
"895 542 QCURVE SMOOTH"
);
}
);
width = 980;
}
);
rightKerningGroup = o_LC;
unicode = 0259;
},
{
glyphname = primemod;
layers = (
{
layerId = "6BF8B6E1-1195-476D-8D60-16328723C279";
paths = (
{
closed = 1;
nodes = (
"413 1502 LINE",
"294 991 LINE",
"172 996 LINE",
"224 1502 LINE"
);
}
);
width = 600;
}
);
unicode = 02B9;
},
{
glyphname = doubleprimemod;
layers = (
{
layerId = "6BF8B6E1-1195-476D-8D60-16328723C279";
paths = (
{
closed = 1;
nodes = (
"413 1502 LINE",
"295 1004 LINE",
"173 1009 LINE",
"224 1502 LINE"
);
},
{
closed = 1;
nodes = (
"713 1502 LINE",
"595 1004 LINE",
"473 1009 LINE",
"524 1502 LINE"
);
}
);
width = 788;
}
);
unicode = 02BA;
},
{
glyphname = apostrophemod;
layers = (
{
layerId = "6BF8B6E1-1195-476D-8D60-16328723C279";
paths = (
{
closed = 1;
nodes = (
"195 1092 OFFCURVE",
"299 1210 OFFCURVE",
"314 1277 QCURVE",
"243 1277 OFFCURVE",
"163 1352 OFFCURVE",
"163 1411 QCURVE SMOOTH",
"163 1469 OFFCURVE",
"244 1546 OFFCURVE",
"307 1546 QCURVE SMOOTH",
"366 1546 OFFCURVE",
"462 1450 OFFCURVE",
"462 1373 QCURVE SMOOTH",
"462 1251 OFFCURVE",
"303 1063 OFFCURVE",
"198 1013 QCURVE",
"155 1062 LINE"
);
}
);
width = 600;
}
);
leftKerningGroup = minute;
rightKerningGroup = minute;
unicode = 02BC;
},
{
glyphname = ordfeminine;
layers = (
{
guideLines = (
{
position = "{0, 1681}";
},
{
position = "{0, 909}";
}
);
layerId = "6BF8B6E1-1195-476D-8D60-16328723C279";
paths = (
{
closed = 1;
nodes = (
"505 821 OFFCURVE",
"525 736 OFFCURVE",
"548 706 QCURVE",
"683 706 LINE",
"669 749 OFFCURVE",
"657 838 OFFCURVE",
"657 887 QCURVE SMOOTH",
"657 1201 LINE SMOOTH",
"657 1334 OFFCURVE",
"525 1477 OFFCURVE",
"403 1477 QCURVE SMOOTH",
"278 1477 OFFCURVE",
"144 1365 OFFCURVE",
"144 1261 QCURVE SMOOTH",
"144 1234 LINE",
"299 1234 LINE",
"299 1247 LINE SMOOTH",
"299 1295 OFFCURVE",
"354 1346 OFFCURVE",
"405 1346 QCURVE SMOOTH",
"453 1346 OFFCURVE",
"505 1271 OFFCURVE",
"505 1202 QCURVE SMOOTH",
"505 862 LINE"
);
},
{
closed = 1;
nodes = (
"416 1149 LINE SMOOTH",
"273 1149 OFFCURVE",
"120 1029 OFFCURVE",
"120 918 QCURVE SMOOTH",
"120 809 OFFCURVE",
"227 692 OFFCURVE",
"326 692 QCURVE SMOOTH",
"427 692 OFFCURVE",
"532 788 OFFCURVE",
"540 837 QCURVE",
"522 949 LINE",
"522 911 OFFCURVE",
"429 822 OFFCURVE",
"365 822 QCURVE SMOOTH",
"323 822 OFFCURVE",
"277 874 OFFCURVE",
"277 922 QCURVE SMOOTH",
"277 980 OFFCURVE",
"350 1042 OFFCURVE",
"417 1042 QCURVE SMOOTH",
"534 1042 LINE",
"534 1149 LINE"
);
}
);
width = 805;
}
);
unicode = 00AA;
userData = {
com.typemytype.robofont.guideline.magnetic.3CJlALCfkl = 5;
com.typemytype.robofont.guideline.magnetic.Zdl6NZVQAy = 5;
};
},
{
glyphname = ordmasculine;
layers = (
{
guideLines = (
{
position = "{0, 1975}";
}
);
layerId = "6BF8B6E1-1195-476D-8D60-16328723C279";
paths = (
{
closed = 1;
nodes = (
"120 1124 LINE",
"120 1294 OFFCURVE",
"282 1477 OFFCURVE",
"432 1477 QCURVE SMOOTH",
"582 1477 OFFCURVE",
"744 1294 OFFCURVE",
"744 1124 QCURVE",
"744 1043 LINE",
"744 873 OFFCURVE",
"583 691 OFFCURVE",
"434 691 QCURVE SMOOTH",
"283 691 OFFCURVE",
"120 873 OFFCURVE",
"120 1043 QCURVE"
);
},
{
closed = 1;
nodes = (
"283 1043 LINE",
"283 940 OFFCURVE",
"361 830 OFFCURVE",
"434 830 QCURVE SMOOTH",
"505 830 OFFCURVE",
"582 940 OFFCURVE",
"582 1043 QCURVE",
"582 1124 LINE",
"582 1226 OFFCURVE",
"504 1336 OFFCURVE",
"432 1336 QCURVE SMOOTH",
"360 1336 OFFCURVE",
"283 1226 OFFCURVE",
"283 1124 QCURVE"
);
}
);
width = 864;
}
);
unicode = 00BA;
userData = {
com.typemytype.robofont.guideline.magnetic.Jnt0R9CyOf = 5;
};
},
{
glyphname = hookabovecomb;
layers = (
{
layerId = "6BF8B6E1-1195-476D-8D60-16328723C279";
paths = (
{
closed = 1;
nodes = (
"454 1186 LINE SMOOTH",
"454 1238 OFFCURVE",
"513 1308 OFFCURVE",
"589 1319 QCURVE SMOOTH",
"645 1327 OFFCURVE",
"685 1359 OFFCURVE",
"685 1400 QCURVE SMOOTH",
"685 1439 OFFCURVE",
"626 1475 OFFCURVE",
"572 1475 QCURVE SMOOTH",
"508 1475 OFFCURVE",
"396 1442 OFFCURVE",
"386 1434 QCURVE",
"332 1559 LINE",
"367 1578 OFFCURVE",
"521 1619 OFFCURVE",
"603 1619 QCURVE SMOOTH",
"723 1619 OFFCURVE",
"848 1505 OFFCURVE",
"848 1409 QCURVE SMOOTH",
"848 1308 OFFCURVE",
"720 1189 OFFCURVE",
"577 1178 QCURVE",
"577 1147 LINE",
"454 1147 LINE"
);
}
);
width = 1024;
}
);
unicode = 0309;
},
{
glyphname = breveinvertedcomb;
layers = (
{
layerId = "6BF8B6E1-1195-476D-8D60-16328723C279";
paths = (
{
closed = 1;
nodes = (
"177 1252 LINE",
"212 1351 OFFCURVE",
"387 1518 OFFCURVE",
"513 1518 QCURVE SMOOTH",
"626 1518 OFFCURVE",
"807 1365 OFFCURVE",
"849 1251 QCURVE",
"745 1198 LINE",
"710 1255 OFFCURVE",
"591 1354 OFFCURVE",
"512 1354 QCURVE SMOOTH",
"428 1354 OFFCURVE",
"308 1259 OFFCURVE",
"272 1198 QCURVE"
);
}
);
width = 1024;
}
);
unicode = 030F;
},
{
glyphname = horncomb;
layers = (
{
layerId = "6BF8B6E1-1195-476D-8D60-16328723C279";
paths = (
{
closed = 1;
nodes = (
"84 998 LINE SMOOTH",
"132 998 OFFCURVE",
"204 1032 OFFCURVE",
"204 1084 QCURVE SMOOTH",
"204 1130 OFFCURVE",
"191 1203 OFFCURVE",
"181 1239 QCURVE",
"327 1239 LINE",
"347 1206 OFFCURVE",
"380 1103 OFFCURVE",
"380 1039 QCURVE SMOOTH",
"380 951 OFFCURVE",
"240 866 OFFCURVE",
"144 866 QCURVE SMOOTH",
"98 866 OFFCURVE",
"26 878 OFFCURVE",
"0 887 QCURVE",
"0 998 LINE"
);
}
);
width = 1024;
}
);
unicode = 031B;
},
{
glyphname = dotbelowcomb;
layers = (
{
layerId = "6BF8B6E1-1195-476D-8D60-16328723C279";
paths = (
{
closed = 1;
nodes = (
"394 -224 OFFCURVE",
"454 -164 OFFCURVE",
"512 -164 QCURVE SMOOTH",
"566 -164 OFFCURVE",
"630 -228 OFFCURVE",
"630 -279 QCURVE SMOOTH",
"630 -335 OFFCURVE",
"570 -395 OFFCURVE",
"512 -395 QCURVE SMOOTH",
"458 -395 OFFCURVE",
"394 -331 OFFCURVE",
"394 -279 QCURVE SMOOTH"
);
}
);
width = 1024;
}
);
unicode = 0323;
},
{
glyphname = dieresisbelowcomb;
layers = (
{
layerId = "6BF8B6E1-1195-476D-8D60-16328723C279";
paths = (
{
closed = 1;
nodes = (
"273 -276 OFFCURVE",
"329 -214 OFFCURVE",
"382 -214 QCURVE SMOOTH",
"436 -214 OFFCURVE",
"492 -276 OFFCURVE",
"492 -321 QCURVE SMOOTH",
"492 -364 OFFCURVE",
"436 -425 OFFCURVE",
"382 -425 QCURVE SMOOTH",
"329 -425 OFFCURVE",
"273 -364 OFFCURVE",
"273 -321 QCURVE SMOOTH"
);
},
{
closed = 1;
nodes = (
"624 -278 OFFCURVE",
"679 -216 OFFCURVE",
"733 -216 QCURVE SMOOTH",
"786 -216 OFFCURVE",
"843 -278 OFFCURVE",
"843 -323 QCURVE SMOOTH",
"843 -366 OFFCURVE",
"786 -427 OFFCURVE",
"733 -427 QCURVE SMOOTH",
"679 -427 OFFCURVE",
"624 -366 OFFCURVE",
"624 -323 QCURVE SMOOTH"
);
}
);
width = 1024;
}
);
unicode = 0324;
},
{
glyphname = commaaccentcomb;
layers = (
{
layerId = "6BF8B6E1-1195-476D-8D60-16328723C279";
paths = (
{
closed = 1;
nodes = (
"404 -424 OFFCURVE",
"440 -284 OFFCURVE",
"463 -156 QCURVE",
"665 -154 LINE",
"538 -531 LINE",
"375 -528 LINE"
);
}
);
width = 1024;
}
);
unicode = 0326;
},
{
glyphname = brevebelowcomb;
layers = (
{
layerId = "6BF8B6E1-1195-476D-8D60-16328723C279";
paths = (
{
closed = 1;
nodes = (
"849 -197 LINE",
"814 -296 OFFCURVE",
"639 -463 OFFCURVE",
"513 -463 QCURVE SMOOTH",
"400 -463 OFFCURVE",
"219 -310 OFFCURVE",
"177 -196 QCURVE",
"281 -143 LINE",
"316 -200 OFFCURVE",
"435 -299 OFFCURVE",
"514 -299 QCURVE SMOOTH",
"598 -299 OFFCURVE",
"718 -204 OFFCURVE",
"754 -143 QCURVE"
);
}
);
width = 1024;
}
);
unicode = 032E;
},
{
glyphname = macronbelowcomb;
layers = (
{
layerId = "6BF8B6E1-1195-476D-8D60-16328723C279";
paths = (
{
closed = 1;
nodes = (
"248 -103 LINE",
"776 -103 LINE",
"776 -255 LINE",
"248 -255 LINE"
);
}
);
width = 1024;
}
);
unicode = 0331;
},
{
glyphname = zero;
layers = (
{
layerId = "6BF8B6E1-1195-476D-8D60-16328723C279";
paths = (
{
closed = 1;
nodes = (
"164 1051 LINE SMOOTH",
"195 1264 OFFCURVE",
"437 1486 OFFCURVE",
"636 1486 QCURVE SMOOTH",
"806 1486 OFFCURVE",
"963 1230 OFFCURVE",
"937 1051 QCURVE SMOOTH",
"844 405 LINE SMOOTH",
"812 186 OFFCURVE",
"569 -30 OFFCURVE",
"368 -30 QCURVE SMOOTH",
"204 -30 OFFCURVE",
"42 220 OFFCURVE",
"69 405 QCURVE SMOOTH"
);
},
{
closed = 1;
nodes = (
"231 288 OFFCURVE",
"302 123 OFFCURVE",
"396 123 QCURVE SMOOTH",
"520 123 OFFCURVE",
"645 276 OFFCURVE",
"662 395 QCURVE SMOOTH",
"759 1061 LINE SMOOTH",
"776 1177 OFFCURVE",
"711 1333 OFFCURVE",
"608 1333 QCURVE SMOOTH",
"487 1333 OFFCURVE",
"365 1188 OFFCURVE",
"346 1061 QCURVE SMOOTH",
"247 395 LINE SMOOTH"
);
}
);
width = 1004;
}
);
unicode = 0030;
},
{
glyphname = one;
layers = (
{
layerId = "6BF8B6E1-1195-476D-8D60-16328723C279";
paths = (
{
closed = 1;
nodes = (
"559 1239 LINE",
"245 1113 LINE",
"278 1293 LINE",
"753 1476 LINE",
"778 1476 LINE",
"518 0 LINE",
"340 0 LINE"
);
}
);
width = 1003;
}
);
unicode = 0031;
},
{
glyphname = two;
layers = (
{
layerId = "6BF8B6E1-1195-476D-8D60-16328723C279";
paths = (
{
closed = 1;
nodes = (
"11 136 LINE",
"535 756 LINE SMOOTH",
"627 864 OFFCURVE",
"749 1034 OFFCURVE",
"766 1127 QCURVE SMOOTH",
"784 1229 OFFCURVE",
"705 1333 OFFCURVE",
"615 1333 QCURVE SMOOTH",
"523 1333 OFFCURVE",
"369 1187 OFFCURVE",
"345 1030 QCURVE SMOOTH",
"343 1020 LINE",
"167 1020 LINE",
"168 1030 LINE SMOOTH",
"204 1244 OFFCURVE",
"477 1486 OFFCURVE",
"642 1486 QCURVE SMOOTH",
"807 1486 OFFCURVE",
"969 1276 OFFCURVE",
"940 1115 QCURVE SMOOTH",
"915 996 OFFCURVE",
"781 798 OFFCURVE",
"659 658 QCURVE SMOOTH",
"219 153 LINE",
"810 151 LINE",
"781 0 LINE",
"-13 0 LINE"
);
}
);
width = 1003;
}
);
unicode = 0032;
},
{
glyphname = three;
layers = (
{
layerId = "6BF8B6E1-1195-476D-8D60-16328723C279";
paths = (
{
closed = 1;
nodes = (
"26 390 LINE",
"199 390 LINE",
"197 380 LINE SMOOTH",
"176 258 OFFCURVE",
"275 123 OFFCURVE",
"376 123 QCURVE SMOOTH",
"477 123 OFFCURVE",
"618 258 OFFCURVE",
"643 388 QCURVE SMOOTH",
"670 531 OFFCURVE",
"565 684 OFFCURVE",
"442 684 QCURVE SMOOTH",
"344 684 LINE",
"371 834 LINE",
"460 834 LINE SMOOTH",
"566 834 OFFCURVE",
"703 969 OFFCURVE",
"724 1091 QCURVE SMOOTH",
"745 1212 OFFCURVE",
"670 1333 OFFCURVE",
"587 1333 QCURVE SMOOTH",
"494 1333 OFFCURVE",
"376 1227 OFFCURVE",
"360 1118 QCURVE SMOOTH",
"356 1090 LINE",
"184 1090 LINE",
"187 1118 LINE SMOOTH",
"203 1271 OFFCURVE",
"452 1486 OFFCURVE",
"615 1486 QCURVE SMOOTH",
"784 1486 OFFCURVE",
"928 1251 OFFCURVE",
"902 1104 QCURVE SMOOTH",
"881 981 OFFCURVE",
"747 808 OFFCURVE",
"636 763 QCURVE",
"635 759 LINE",
"733 724 OFFCURVE",
"844 526 OFFCURVE",
"816 363 QCURVE SMOOTH",
"788 200 OFFCURVE",
"522 -30 OFFCURVE",
"348 -30 QCURVE SMOOTH",
"175 -30 OFFCURVE",
"-7 200 OFFCURVE",
"25 380 QCURVE SMOOTH"
);
}
);
width = 1003;
}
);
unicode = 0033;
},
{
glyphname = four;
layers = (
{
layerId = "6BF8B6E1-1195-476D-8D60-16328723C279";
paths = (
{
closed = 1;
nodes = (
"540 398 LINE",
"550 448 LINE",
"673 1088 LINE",
"661 1088 LINE",
"206 496 LINE",
"622 496 LINE",
"684 496 LINE",
"898 496 LINE",
"870 344 LINE",
"-13 344 LINE",
"9 466 LINE",
"756 1456 LINE",
"894 1456 LINE",
"637 0 LINE",
"470 0 LINE"
);
}
);
width = 1004;
}
);
unicode = 0034;
},
{
glyphname = five;
layers = (
{
layerId = "6BF8B6E1-1195-476D-8D60-16328723C279";
paths = (
{
closed = 1;
nodes = (
"43 375 LINE",
"214 375 LINE",
"212 365 LINE SMOOTH",
"192 253 OFFCURVE",
"289 123 OFFCURVE",
"388 123 QCURVE SMOOTH",
"489 123 OFFCURVE",
"646 303 OFFCURVE",
"674 465 QCURVE SMOOTH",
"702 626 OFFCURVE",
"606 796 OFFCURVE",
"507 796 QCURVE SMOOTH",
"432 796 OFFCURVE",
"304 730 OFFCURVE",
"248 676 QCURVE",
"148 730 LINE",
"346 1456 LINE",
"962 1456 LINE",
"932 1292 LINE",
"461 1292 LINE",
"347 888 LINE",
"394 916 OFFCURVE",
"500 950 OFFCURVE",
"558 950 QCURVE SMOOTH",
"716 950 OFFCURVE",
"891 694 OFFCURVE",
"850 465 QCURVE SMOOTH",
"810 235 OFFCURVE",
"535 -30 OFFCURVE",
"361 -30 QCURVE SMOOTH",
"187 -30 OFFCURVE",
"11 195 OFFCURVE",
"41 365 QCURVE SMOOTH"
);
}
);
width = 1003;
}
);
unicode = 0035;
},
{
glyphname = six;
layers = (
{
layerId = "6BF8B6E1-1195-476D-8D60-16328723C279";
paths = (
{
closed = 1;
nodes = (
"79 644 LINE SMOOTH",
"146 1024 OFFCURVE",
"569 1486 OFFCURVE",
"883 1486 QCURVE SMOOTH",
"899 1486 LINE",
"871 1333 LINE",
"855 1333 LINE SMOOTH",
"632 1333 OFFCURVE",
"317 1004 OFFCURVE",
"255 654 QCURVE SMOOTH",
"246 604 LINE SMOOTH",
"200 341 OFFCURVE",
"305 123 OFFCURVE",
"413 123 QCURVE SMOOTH",
"519 123 OFFCURVE",
"669 302 OFFCURVE",
"697 464 QCURVE SMOOTH",
"725 625 OFFCURVE",
"638 801 OFFCURVE",
"531 801 QCURVE SMOOTH",
"430 801 OFFCURVE",
"244 624 OFFCURVE",
"216 464 QCURVE",
"151 464 LINE",
"190 683 OFFCURVE",
"431 954 OFFCURVE",
"590 954 QCURVE SMOOTH",
"756 954 OFFCURVE",
"912 683 OFFCURVE",
"873 464 QCURVE SMOOTH",
"835 244 OFFCURVE",
"558 -30 OFFCURVE",
"385 -30 QCURVE SMOOTH",
"211 -30 OFFCURVE",
"14 274 OFFCURVE",
"74 614 QCURVE SMOOTH"
);
}
);
width = 1003;
}
);
unicode = 0036;
},
{
glyphname = seven;
layers = (
{
layerId = "6BF8B6E1-1195-476D-8D60-16328723C279";
paths = (
{
closed = 1;
nodes = (
"813 1304 LINE",
"182 1304 LINE",
"210 1456 LINE",
"1023 1456 LINE",
"1005 1354 LINE",
"289 0 LINE",
"107 0 LINE"
);
}
);
width = 1003;
}
);
unicode = 0037;
},
{
glyphname = eight;
layers = (
{
layerId = "6BF8B6E1-1195-476D-8D60-16328723C279";
paths = (
{
closed = 1;
nodes = (
"72 515 OFFCURVE",
"220 697 OFFCURVE",
"325 743 QCURVE",
"325 747 LINE",
"259 792 OFFCURVE",
"190 968 OFFCURVE",
"211 1087 QCURVE SMOOTH",
"243 1267 OFFCURVE",
"483 1486 OFFCURVE",
"636 1486 QCURVE SMOOTH",
"788 1486 OFFCURVE",
"952 1267 OFFCURVE",
"919 1087 QCURVE SMOOTH",
"898 968 OFFCURVE",
"767 792 OFFCURVE",
"686 747 QCURVE",
"686 743 LINE",
"774 697 OFFCURVE",
"857 516 OFFCURVE",
"835 386 QCURVE SMOOTH",
"800 188 OFFCURVE",
"537 -30 OFFCURVE",
"368 -30 QCURVE SMOOTH",
"199 -30 OFFCURVE",
"14 188 OFFCURVE",
"49 386 QCURVE SMOOTH"
);
},
{
closed = 1;
nodes = (
"204 274 OFFCURVE",
"292 123 OFFCURVE",
"396 123 QCURVE SMOOTH",
"499 123 OFFCURVE",
"640 274 OFFCURVE",
"661 395 QCURVE SMOOTH",
"682 517 OFFCURVE",
"594 668 OFFCURVE",
"491 668 QCURVE SMOOTH",
"387 668 OFFCURVE",
"246 517 OFFCURVE",
"225 395 QCURVE SMOOTH"
);
},
{
closed = 1;
nodes = (
"360 966 OFFCURVE",
"431 822 OFFCURVE",
"519 822 QCURVE SMOOTH",
"606 822 OFFCURVE",
"728 966 OFFCURVE",
"747 1078 QCURVE SMOOTH",
"767 1190 OFFCURVE",
"694 1333 OFFCURVE",
"608 1333 QCURVE SMOOTH",
"520 1333 OFFCURVE",
"399 1190 OFFCURVE",
"380 1078 QCURVE SMOOTH"
);
}
);
width = 1004;
}
);
unicode = 0038;
},
{
glyphname = nine;
layers = (
{
layerId = "6BF8B6E1-1195-476D-8D60-16328723C279";
paths = (
{
closed = 1;
nodes = (
"171 1218 OFFCURVE",
"446 1486 OFFCURVE",
"619 1486 QCURVE SMOOTH",
"794 1486 OFFCURVE",
"990 1182 OFFCURVE",
"930 842 QCURVE SMOOTH",
"925 812 LINE SMOOTH",
"858 432 OFFCURVE",
"435 -30 OFFCURVE",
"121 -30 QCURVE SMOOTH",
"105 -30 LINE",
"133 123 LINE",
"149 123 LINE SMOOTH",
"372 123 OFFCURVE",
"687 452 OFFCURVE",
"749 802 QCURVE SMOOTH",
"758 852 LINE SMOOTH",
"804 1115 OFFCURVE",
"699 1333 OFFCURVE",
"591 1333 QCURVE SMOOTH",
"485 1333 OFFCURVE",
"337 1159 OFFCURVE",
"310 1002 QCURVE SMOOTH",
"282 846 OFFCURVE",
"370 675 OFFCURVE",
"477 675 QCURVE SMOOTH",
"578 675 OFFCURVE",
"763 846 OFFCURVE",
"790 1002 QCURVE",
"856 1002 LINE",
"818 787 OFFCURVE",
"576 522 OFFCURVE",
"417 522 QCURVE SMOOTH",
"252 522 OFFCURVE",
"94 787 OFFCURVE",
"133 1002 QCURVE SMOOTH"
);
}
);
width = 1003;
}
);
unicode = 0039;
},
{
glyphname = onesuperior;
layers = (
{
layerId = "6BF8B6E1-1195-476D-8D60-16328723C279";
paths = (
{
closed = 1;
nodes = (
"123 1370 LINE",
"407 1486 LINE",
"451 1486 LINE",
"451 697 LINE",
"289 697 LINE",
"289 1278 LINE",
"123 1211 LINE"
);
}
);
width = 661;
}
);
unicode = 00B9;
},
{
glyphname = twosuperior;
layers = (
{
layerId = "6BF8B6E1-1195-476D-8D60-16328723C279";
paths = (
{
closed = 1;
nodes = (
"78 805 LINE",
"306 1066 LINE SMOOTH",
"367 1135 OFFCURVE",
"419 1216 OFFCURVE",
"419 1249 QCURVE SMOOTH",
"419 1299 OFFCURVE",
"374 1352 OFFCURVE",
"333 1352 QCURVE SMOOTH",
"279 1352 OFFCURVE",
"222 1272 OFFCURVE",
"223 1198 QCURVE",
"60 1198 LINE",
"59 1337 OFFCURVE",
"198 1487 OFFCURVE",
"329 1487 QCURVE SMOOTH",
"452 1487 OFFCURVE",
"585 1365 OFFCURVE",
"585 1251 QCURVE SMOOTH",
"585 1195 OFFCURVE",
"503 1063 OFFCURVE",
"411 971 QCURVE SMOOTH",
"296 845 LINE",
"616 845 LINE",
"616 697 LINE",
"78 697 LINE"
);
}
);
width = 676;
}
);
unicode = 00B2;
},
{
glyphname = threesuperior;
layers = (
{
layerId = "6BF8B6E1-1195-476D-8D60-16328723C279";
paths = (
{
closed = 1;
nodes = (
"217 915 LINE",
"217 869 OFFCURVE",
"277 819 OFFCURVE",
"333 819 QCURVE SMOOTH",
"385 819 OFFCURVE",
"441 874 OFFCURVE",
"441 925 QCURVE SMOOTH",
"441 978 OFFCURVE",
"390 1035 OFFCURVE",
"317 1034 QCURVE SMOOTH",
"263 1034 LINE",
"263 1146 LINE",
"317 1146 LINE SMOOTH",
"389 1146 OFFCURVE",
"428 1207 OFFCURVE",
"428 1255 QCURVE SMOOTH",
"428 1303 OFFCURVE",
"377 1354 OFFCURVE",
"330 1354 QCURVE SMOOTH",
"281 1354 OFFCURVE",
"228 1306 OFFCURVE",
"228 1261 QCURVE",
"71 1261 LINE",
"71 1370 OFFCURVE",
"204 1487 OFFCURVE",
"327 1487 QCURVE SMOOTH",
"455 1487 OFFCURVE",
"593 1371 OFFCURVE",
"593 1263 QCURVE SMOOTH",
"593 1212 OFFCURVE",
"530 1120 OFFCURVE",
"470 1098 QCURVE",
"538 1075 OFFCURVE",
"604 983 OFFCURVE",
"604 917 QCURVE SMOOTH",
"604 806 OFFCURVE",
"461 686 OFFCURVE",
"328 686 QCURVE SMOOTH",
"199 686 OFFCURVE",
"60 805 OFFCURVE",
"60 915 QCURVE"
);
}
);
width = 664;
}
);
unicode = 00B3;
},
{
glyphname = foursuperior;
layers = (
{
layerId = "6BF8B6E1-1195-476D-8D60-16328723C279";
paths = (
{
closed = 1;
nodes = (
"54 982 LINE",
"362 1496 LINE",
"486 1496 LINE",
"358 1270 LINE",
"212 1010 LINE",
"630 1010 LINE",
"630 880 LINE",
"61 880 LINE"
);
},
{
closed = 1;
nodes = (
"522 697 LINE",
"365 697 LINE",
"365 1496 LINE",
"522 1496 LINE"
);
}
);
width = 681;
}
);
unicode = 2074;
},
{
glyphname = underscore;
layers = (
{
layerId = "6BF8B6E1-1195-476D-8D60-16328723C279";
paths = (
{
closed = 1;
nodes = (
"-171 -100 LINE",
"606 -100 LINE",
"576 -261 LINE",
"-201 -261 LINE"
);
}
);
width = 777;
}
);
unicode = 005F;
},
{
glyphname = hyphen;
layers = (
{
layerId = "6BF8B6E1-1195-476D-8D60-16328723C279";
paths = (
{
closed = 1;
nodes = (
"36 714 LINE",
"508 714 LINE",
"477 547 LINE",
"6 547 LINE"
);
}
);
width = 547;
}
);
leftKerningGroup = emdash;
rightKerningGroup = emdash;
unicode = 002D;
},
{
glyphname = endash;
layers = (
{
layerId = "6BF8B6E1-1195-476D-8D60-16328723C279";
paths = (
{
closed = 1;
nodes = (
"0 700 LINE",
"944 700 LINE",
"944 532 LINE",
"0 532 LINE"
);
}
);
width = 944;
}
);
leftKerningGroup = emdash;
rightKerningGroup = emdash;
unicode = 2013;
},
{
glyphname = emdash;
layers = (
{
layerId = "6BF8B6E1-1195-476D-8D60-16328723C279";
paths = (
{
closed = 1;
nodes = (
"260 700 LINE",
"1708 700 LINE",
"1708 532 LINE",
"260 532 LINE"
);
}
);
width = 1968;
}
);
leftKerningGroup = emdash;
rightKerningGroup = emdash;
unicode = 2014;
},
{
glyphname = horizontalbar;
layers = (
{
layerId = "6BF8B6E1-1195-476D-8D60-16328723C279";
paths = (
{
closed = 1;
nodes = (
"20 792 LINE",
"495 792 LINE",
"495 626 LINE",
"20 626 LINE"
);
}
);
width = 525;
}
);
leftKerningGroup = emdash;
rightKerningGroup = emdash;
unicode = 2015;
},
{
glyphname = parenleft;
layers = (
{
layerId = "6BF8B6E1-1195-476D-8D60-16328723C279";
paths = (
{
closed = 1;
nodes = (
"195 -336 OFFCURVE",
"-2 125 OFFCURVE",
"83 515 QCURVE SMOOTH",
"93 561 LINE SMOOTH",
"178 952 OFFCURVE",
"499 1376 OFFCURVE",
"700 1476 QCURVE",
"669 1291 LINE",
"547 1214 OFFCURVE",
"324 882 OFFCURVE",
"266 532 QCURVE SMOOTH",
"262 508 LINE SMOOTH",
"206 158 OFFCURVE",
"300 -204 OFFCURVE",
"395 -281 QCURVE",
"363 -436 LINE"
);
}
);
width = 671;
}
);
rightKerningGroup = parens;
unicode = 0028;
},
{
glyphname = parenright;
layers = (
{
layerId = "6BF8B6E1-1195-476D-8D60-16328723C279";
paths = (
{
closed = 1;
nodes = (
"-65 -248 LINE",
"56 -171 OFFCURVE",
"276 158 OFFCURVE",
"331 508 QCURVE SMOOTH",
"335 532 LINE SMOOTH",
"393 882 OFFCURVE",
"298 1244 OFFCURVE",
"203 1321 QCURVE",
"235 1476 LINE",
"402 1376 OFFCURVE",
"572 921 OFFCURVE",
"515 525 QCURVE SMOOTH",
"509 483 LINE SMOOTH",
"452 87 OFFCURVE",
"110 -343 OFFCURVE",
"-102 -436 QCURVE"
);
}
);
width = 671;
}
);
leftKerningGroup = parens;
unicode = 0029;
},
{
glyphname = bracketleft;
layers = (
{
layerId = "6BF8B6E1-1195-476D-8D60-16328723C279";
paths = (
{
closed = 1;
nodes = (
"268 1456 LINE",
"662 1456 LINE",
"634 1301 LINE",
"412 1301 LINE",
"157 -155 LINE",
"379 -155 LINE",
"351 -310 LINE",
"-43 -310 LINE"
);
}
);
width = 621;
}
);
rightKerningGroup = parens;
unicode = 005B;
},
{
glyphname = bracketright;
layers = (
{
layerId = "6BF8B6E1-1195-476D-8D60-16328723C279";
paths = (
{
closed = 1;
nodes = (
"-95 -310 LINE",
"-67 -155 LINE",
"155 -155 LINE",
"410 1301 LINE",
"188 1301 LINE",
"216 1456 LINE",
"610 1456 LINE",
"299 -310 LINE"
);
}
);
width = 621;
}
);
leftKerningGroup = parens;
unicode = 005D;
},
{
glyphname = braceleft;
layers = (
{
layerId = "6BF8B6E1-1195-476D-8D60-16328723C279";
paths = (
{
closed = 1;
nodes = (
"224 -312 OFFCURVE",
"57 -61 OFFCURVE",
"116 103 QCURVE SMOOTH",
"199 334 LINE SMOOTH",
"239 442 OFFCURVE",
"144 510 OFFCURVE",
"50 510 QCURVE",
"73 638 LINE",
"168 638 OFFCURVE",
"286 706 OFFCURVE",
"283 814 QCURVE SMOOTH",
"275 1045 LINE SMOOTH",
"270 1209 OFFCURVE",
"536 1460 OFFCURVE",
"722 1460 QCURVE",
"697 1318 LINE",
"587 1318 OFFCURVE",
"443 1178 OFFCURVE",
"447 1045 QCURVE SMOOTH",
"456 814 LINE SMOOTH",
"458 730 OFFCURVE",
"364 605 OFFCURVE",
"264 574 QCURVE",
"355 543 OFFCURVE",
"403 418 OFFCURVE",
"371 334 QCURVE SMOOTH",
"288 103 LINE SMOOTH",
"241 -30 OFFCURVE",
"326 -170 OFFCURVE",
"436 -170 QCURVE",
"410 -312 LINE"
);
}
);
width = 671;
}
);
rightKerningGroup = parens;
unicode = 007B;
},
{
glyphname = braceright;
layers = (
{
layerId = "6BF8B6E1-1195-476D-8D60-16328723C279";
paths = (
{
closed = 1;
nodes = (
"-79 -170 LINE",
"30 -170 OFFCURVE",
"175 -30 OFFCURVE",
"170 103 QCURVE SMOOTH",
"162 334 LINE SMOOTH",
"159 418 OFFCURVE",
"253 543 OFFCURVE",
"354 574 QCURVE",
"262 605 OFFCURVE",
"214 730 OFFCURVE",
"246 814 QCURVE SMOOTH",
"329 1045 LINE SMOOTH",
"377 1178 OFFCURVE",
"291 1318 OFFCURVE",
"182 1318 QCURVE",
"208 1460 LINE",
"394 1460 OFFCURVE",
"562 1209 OFFCURVE",
"502 1045 QCURVE SMOOTH",
"419 814 LINE SMOOTH",
"379 706 OFFCURVE",
"473 638 OFFCURVE",
"568 638 QCURVE",
"544 510 LINE",
"450 510 OFFCURVE",
"332 442 OFFCURVE",
"334 334 QCURVE SMOOTH",
"342 103 LINE SMOOTH",
"348 -61 OFFCURVE",
"81 -312 OFFCURVE",
"-105 -312 QCURVE"
);
}
);
width = 671;
}
);
leftKerningGroup = parens;
unicode = 007D;
},
{
glyphname = leftanglebracket;
layers = (
{
layerId = "6BF8B6E1-1195-476D-8D60-16328723C279";
paths = (
{
closed = 1;
nodes = (
"1 665 LINE",
"503 1499 LINE",
"606 1413 LINE",
"182 604 LINE",
"605 -219 LINE",
"503 -304 LINE",
"1 536 LINE"
);
}
);
width = 607;
}
);
rightKerningGroup = parens;
unicode = 27E8;
},
{
glyphname = rightanglebracket;
layers = (
{
layerId = "6BF8B6E1-1195-476D-8D60-16328723C279";
paths = (
{
closed = 1;
nodes = (
"425 591 LINE",
"2 1414 LINE",
"104 1499 LINE",
"606 659 LINE",
"606 530 LINE",
"104 -304 LINE",
"1 -218 LINE"
);
}
);
width = 607;
}
);
leftKerningGroup = parens;
unicode = 27E9;
},
{
glyphname = numbersign;
layers = (
{
layerId = "6BF8B6E1-1195-476D-8D60-16328723C279";
paths = (
{
closed = 1;
nodes = (
"767 1476 LINE",
"901 1476 LINE",
"242 -20 LINE",
"107 -20 LINE"
);
},
{
closed = 1;
nodes = (
"1170 1476 LINE",
"1305 1476 LINE",
"645 -20 LINE",
"511 -20 LINE"
);
},
{
closed = 1;
nodes = (
"78 540 LINE",
"1199 540 LINE",
"1175 406 LINE",
"53 406 LINE"
);
},
{
closed = 1;
nodes = (
"236 1050 LINE",
"1358 1050 LINE",
"1334 916 LINE",
"212 916 LINE"
);
}
);
width = 1405;
}
);
unicode = 0023;
},
{
glyphname = quotesingle;
layers = (
{
layerId = "6BF8B6E1-1195-476D-8D60-16328723C279";
paths = (
{
closed = 1;
nodes = (
"202 1322 LINE",
"226 1456 LINE",
"413 1456 LINE",
"389 1322 LINE",
"302 975 LINE",
"163 975 LINE"
);
}
);
width = 381;
}
);
leftKerningGroup = minute;
rightKerningGroup = minute;
unicode = 0027;
},
{
glyphname = quotedbl;
layers = (
{
layerId = "6BF8B6E1-1195-476D-8D60-16328723C279";
paths = (
{
closed = 1;
nodes = (
"202 1322 LINE",
"226 1456 LINE",
"394 1456 LINE",
"370 1322 LINE",
"293 975 LINE",
"153 975 LINE"
);
},
{
closed = 1;
nodes = (
"564 1322 LINE",
"588 1456 LINE",
"756 1456 LINE",
"732 1322 LINE",
"655 975 LINE",
"515 975 LINE"
);
}
);
width = 724;
}
);
leftKerningGroup = minute;
rightKerningGroup = minute;
unicode = 0022;
},
{
glyphname = quoteleft;
layers = (
{
layerId = "6BF8B6E1-1195-476D-8D60-16328723C279";
paths = (
{
closed = 1;
nodes = (
"92 1194 LINE SMOOTH",
"92 1284 OFFCURVE",
"183 1488 OFFCURVE",
"266 1556 QCURVE",
"371 1483 LINE",
"325 1417 OFFCURVE",
"275 1278 OFFCURVE",
"275 1197 QCURVE SMOOTH",
"275 1073 LINE",
"92 1073 LINE"
);
}
);
width = 410;
}
);
leftKerningGroup = minute;
rightKerningGroup = minute;
unicode = 2018;
},
{
glyphname = quoteright;
layers = (
{
layerId = "6BF8B6E1-1195-476D-8D60-16328723C279";
paths = (
{
closed = 1;
nodes = (
"318 1330 LINE SMOOTH",
"318 1240 OFFCURVE",
"227 1036 OFFCURVE",
"145 968 QCURVE",
"39 1041 LINE",
"86 1107 OFFCURVE",
"134 1246 OFFCURVE",
"134 1327 QCURVE SMOOTH",
"134 1458 LINE",
"318 1458 LINE"
);
}
);
width = 410;
}
);
leftKerningGroup = minute;
rightKerningGroup = minute;
unicode = 2019;
},
{
glyphname = quotedblleft;
layers = (
{
layerId = "6BF8B6E1-1195-476D-8D60-16328723C279";
paths = (
{
closed = 1;
nodes = (
"92 1194 LINE SMOOTH",
"92 1284 OFFCURVE",
"183 1488 OFFCURVE",
"266 1556 QCURVE",
"371 1483 LINE",
"325 1417 OFFCURVE",
"275 1278 OFFCURVE",
"275 1197 QCURVE SMOOTH",
"275 1073 LINE",
"92 1073 LINE"
);
},
{
closed = 1;
nodes = (
"512 1194 LINE SMOOTH",
"512 1284 OFFCURVE",
"603 1488 OFFCURVE",
"686 1556 QCURVE",
"791 1483 LINE",
"745 1417 OFFCURVE",
"695 1278 OFFCURVE",
"695 1197 QCURVE SMOOTH",
"695 1073 LINE",
"512 1073 LINE"
);
}
);
width = 830;
}
);
leftKerningGroup = minute;
rightKerningGroup = minute;
unicode = 201C;
},
{
glyphname = quotedblright;
layers = (
{
layerId = "6BF8B6E1-1195-476D-8D60-16328723C279";
paths = (
{
closed = 1;
nodes = (
"318 1330 LINE SMOOTH",
"318 1240 OFFCURVE",
"227 1036 OFFCURVE",
"145 968 QCURVE",
"39 1041 LINE",
"86 1107 OFFCURVE",
"134 1246 OFFCURVE",
"134 1327 QCURVE SMOOTH",
"134 1458 LINE",
"318 1458 LINE"
);
},
{
closed = 1;
nodes = (
"738 1330 LINE SMOOTH",
"738 1240 OFFCURVE",
"647 1036 OFFCURVE",
"565 968 QCURVE",
"459 1041 LINE",
"506 1107 OFFCURVE",
"554 1246 OFFCURVE",
"554 1327 QCURVE SMOOTH",
"554 1458 LINE",
"738 1458 LINE"
);
}
);
width = 830;
}
);
leftKerningGroup = minute;
rightKerningGroup = minute;
unicode = 201D;
},
{
glyphname = quotesinglbase;
layers = (
{
layerId = "6BF8B6E1-1195-476D-8D60-16328723C279";
paths = (
{
closed = 1;
nodes = (
"318 92 LINE SMOOTH",
"318 2 OFFCURVE",
"227 -202 OFFCURVE",
"145 -270 QCURVE",
"39 -197 LINE",
"86 -131 OFFCURVE",
"134 8 OFFCURVE",
"134 89 QCURVE SMOOTH",
"134 220 LINE",
"318 220 LINE"
);
}
);
width = 410;
}
);
leftKerningGroup = comma;
rightKerningGroup = comma;
unicode = 201A;
},
{
glyphname = quotedblbase;
layers = (
{
layerId = "6BF8B6E1-1195-476D-8D60-16328723C279";
paths = (
{
closed = 1;
nodes = (
"318 92 LINE SMOOTH",
"318 2 OFFCURVE",
"227 -202 OFFCURVE",
"145 -270 QCURVE",
"39 -197 LINE",
"86 -131 OFFCURVE",
"134 8 OFFCURVE",
"134 89 QCURVE SMOOTH",
"134 220 LINE",
"318 220 LINE"
);
},
{
closed = 1;
nodes = (
"738 92 LINE SMOOTH",
"738 2 OFFCURVE",
"647 -202 OFFCURVE",
"565 -270 QCURVE",
"459 -197 LINE",
"506 -131 OFFCURVE",
"554 8 OFFCURVE",
"554 89 QCURVE SMOOTH",
"554 220 LINE",
"738 220 LINE"
);
}
);
width = 830;
}
);
leftKerningGroup = comma;
rightKerningGroup = comma;
unicode = 201E;
},
{
glyphname = guilsinglleft;
layers = (
{
guideLines = (
{
position = "{0, 901}";
},
{
position = "{0, 555}";
}
);
layerId = "6BF8B6E1-1195-476D-8D60-16328723C279";
paths = (
{
closed = 1;
nodes = (
"108 581 LINE",
"353 949 LINE",
"515 949 LINE",
"307 551 LINE",
"515 153 LINE",
"353 153 LINE",
"108 522 LINE"
);
}
);
width = 595;
}
);
leftKerningGroup = guillemotleft;
rightKerningGroup = guillemotleft;
unicode = 2039;
userData = {
com.typemytype.robofont.guideline.magnetic.Amp5Ormvx4 = 5;
com.typemytype.robofont.guideline.magnetic.JDX5vz3jKp = 5;
};
},
{
glyphname = guilsinglright;
layers = (
{
guideLines = (
{
position = "{0, 901}";
},
{
position = "{0, 555}";
}
);
layerId = "6BF8B6E1-1195-476D-8D60-16328723C279";
paths = (
{
closed = 1;
nodes = (
"288 551 LINE",
"80 949 LINE",
"242 949 LINE",
"487 580 LINE",
"487 521 LINE",
"242 153 LINE",
"80 153 LINE"
);
}
);
width = 595;
}
);
leftKerningGroup = guillemotright;
rightKerningGroup = guillemotright;
unicode = 203A;
userData = {
com.typemytype.robofont.guideline.magnetic.Amp5Ormvx4 = 5;
com.typemytype.robofont.guideline.magnetic.JDX5vz3jKp = 5;
};
},
{
glyphname = guillemotleft;
layers = (
{
guideLines = (
{
position = "{0, 901}";
},
{
position = "{0, 555}";
}
);
layerId = "6BF8B6E1-1195-476D-8D60-16328723C279";
paths = (
{
closed = 1;
nodes = (
"108 581 LINE",
"353 949 LINE",
"515 949 LINE",
"307 551 LINE",
"515 153 LINE",
"353 153 LINE",
"108 522 LINE"
);
},
{
closed = 1;
nodes = (
"548 581 LINE",
"793 949 LINE",
"955 949 LINE",
"747 551 LINE",
"955 153 LINE",
"793 153 LINE",
"548 522 LINE"
);
}
);
width = 1035;
}
);
leftKerningGroup = guillemotleft;
rightKerningGroup = guillemotleft;
unicode = 00AB;
userData = {
com.typemytype.robofont.guideline.magnetic.MVJpdoVRVd = 5;
com.typemytype.robofont.guideline.magnetic.ZftBQarVKw = 5;
};
},
{
glyphname = guillemotright;
layers = (
{
guideLines = (
{
position = "{0, 98}";
},
{
position = "{0, 443}";
}
);
layerId = "6BF8B6E1-1195-476D-8D60-16328723C279";
paths = (
{
closed = 1;
nodes = (
"728 551 LINE",
"520 949 LINE",
"682 949 LINE",
"927 580 LINE",
"927 521 LINE",
"682 153 LINE",
"520 153 LINE"
);
},
{
closed = 1;
nodes = (
"288 551 LINE",
"80 949 LINE",
"242 949 LINE",
"487 580 LINE",
"487 521 LINE",
"242 153 LINE",
"80 153 LINE"
);
}
);
width = 1035;
}
);
leftKerningGroup = guillemotright;
rightKerningGroup = guillemotright;
unicode = 00BB;
userData = {
com.typemytype.robofont.guideline.magnetic.G9bQni2n1K = 5;
com.typemytype.robofont.guideline.magnetic.MTEldNnfdj = 5;
};
},
{
glyphname = asterisk;
layers = (
{
layerId = "6BF8B6E1-1195-476D-8D60-16328723C279";
paths = (
{
closed = 1;
nodes = (
"201 1269 LINE",
"478 1128 LINE",
"514 1476 LINE",
"690 1476 LINE",
"587 1128 LINE",
"929 1269 LINE",
"952 1094 LINE",
"606 1020 LINE",
"779 760 LINE",
"621 652 LINE",
"511 954 LINE",
"279 652 LINE",
"152 760 LINE",
"429 1020 LINE",
"115 1094 LINE"
);
}
);
width = 950;
}
);
unicode = 002A;
},
{
glyphname = dagger;
layers = (
{
layerId = "6BF8B6E1-1195-476D-8D60-16328723C279";
paths = (
{
closed = 1;
nodes = (
"407 8 LINE",
"428 748 LINE",
"428 852 LINE",
"122 852 LINE",
"122 1025 LINE",
"424 1025 LINE",
"411 1508 LINE",
"592 1508 LINE",
"579 1025 LINE",
"881 1025 LINE",
"881 852 LINE",
"575 852 LINE",
"575 748 LINE",
"596 8 LINE",
"592 -274 LINE",
"519 -415 OFFCURVE",
"485 -416 OFFCURVE",
"411 -274 QCURVE"
);
}
);
width = 1008;
}
);
unicode = 2020;
},
{
glyphname = daggerdbl;
layers = (
{
layerId = "6BF8B6E1-1195-476D-8D60-16328723C279";
paths = (
{
closed = 1;
nodes = (
"127 204 LINE",
"433 204 LINE",
"413 534 LINE",
"428 855 LINE",
"127 855 LINE",
"127 1022 LINE",
"414 1022 LINE",
"411 1508 LINE",
"592 1508 LINE",
"589 1022 LINE",
"876 1022 LINE",
"876 855 LINE",
"575 855 LINE",
"590 534 LINE",
"570 204 LINE",
"876 204 LINE",
"876 38 LINE",
"584 38 LINE",
"587 -452 LINE",
"416 -452 LINE",
"419 38 LINE",
"127 38 LINE"
);
}
);
width = 1008;
}
);
unicode = 2021;
},
{
glyphname = period;
layers = (
{
layerId = "6BF8B6E1-1195-476D-8D60-16328723C279";
paths = (
{
closed = 1;
nodes = (
"48 163 OFFCURVE",
"113 234 OFFCURVE",
"173 234 QCURVE SMOOTH",
"231 233 OFFCURVE",
"290 161 OFFCURVE",
"288 109 QCURVE SMOOTH",
"285 59 OFFCURVE",
"221 -12 OFFCURVE",
"161 -12 QCURVE SMOOTH",
"103 -11 OFFCURVE",
"43 61 OFFCURVE",
"45 112 QCURVE SMOOTH"
);
}
);
width = 553;
}
);
leftKerningGroup = comma;
rightKerningGroup = comma;
unicode = 002E;
},
{
glyphname = comma;
layers = (
{
layerId = "6BF8B6E1-1195-476D-8D60-16328723C279";
paths = (
{
closed = 1;
nodes = (
"0 -152 OFFCURVE",
"72 -20 OFFCURVE",
"88 68 QCURVE SMOOTH",
"114 216 LINE",
"283 216 LINE",
"257 68 LINE SMOOTH",
"237 -40 OFFCURVE",
"115 -220 OFFCURVE",
"29 -285 QCURVE",
"-56 -214 LINE"
);
}
);
width = 557;
}
);
leftKerningGroup = comma;
rightKerningGroup = comma;
unicode = 002C;
},
{
glyphname = colon;
layers = (
{
layerId = "6BF8B6E1-1195-476D-8D60-16328723C279";
paths = (
{
closed = 1;
nodes = (
"71 144 OFFCURVE",
"135 212 OFFCURVE",
"191 212 QCURVE SMOOTH",
"247 212 OFFCURVE",
"304 142 OFFCURVE",
"302 94 QCURVE SMOOTH",
"301 46 OFFCURVE",
"237 -22 OFFCURVE",
"181 -22 QCURVE SMOOTH",
"125 -22 OFFCURVE",
"68 48 OFFCURVE",
"70 96 QCURVE SMOOTH"
);
},
{
closed = 1;
nodes = (
"212 1000 OFFCURVE",
"275 1068 OFFCURVE",
"331 1068 QCURVE SMOOTH",
"388 1068 OFFCURVE",
"444 998 OFFCURVE",
"443 950 QCURVE SMOOTH",
"441 902 OFFCURVE",
"378 834 OFFCURVE",
"321 834 QCURVE SMOOTH",
"265 834 OFFCURVE",
"208 904 OFFCURVE",
"210 952 QCURVE SMOOTH"
);
}
);
width = 574;
}
);
leftKerningGroup = colon;
rightKerningGroup = colon;
unicode = 003A;
},
{
glyphname = semicolon;
layers = (
{
layerId = "6BF8B6E1-1195-476D-8D60-16328723C279";
paths = (
{
closed = 1;
nodes = (
"9 -152 OFFCURVE",
"82 -20 OFFCURVE",
"98 68 QCURVE SMOOTH",
"124 216 LINE",
"292 216 LINE",
"265 69 LINE SMOOTH",
"246 -40 OFFCURVE",
"124 -219 OFFCURVE",
"38 -285 QCURVE",
"-47 -214 LINE"
);
},
{
closed = 1;
nodes = (
"212 1000 OFFCURVE",
"275 1068 OFFCURVE",
"331 1068 QCURVE SMOOTH",
"388 1068 OFFCURVE",
"444 998 OFFCURVE",
"443 950 QCURVE SMOOTH",
"441 902 OFFCURVE",
"378 834 OFFCURVE",
"321 834 QCURVE SMOOTH",
"265 834 OFFCURVE",
"208 904 OFFCURVE",
"210 952 QCURVE SMOOTH"
);
}
);
width = 574;
}
);
leftKerningGroup = colon;
rightKerningGroup = colon;
unicode = 003B;
},
{
glyphname = exclam;
layers = (
{
layerId = "6BF8B6E1-1195-476D-8D60-16328723C279";
paths = (
{
closed = 1;
nodes = (
"71 144 OFFCURVE",
"135 212 OFFCURVE",
"191 212 QCURVE SMOOTH",
"247 212 OFFCURVE",
"304 142 OFFCURVE",
"302 94 QCURVE SMOOTH",
"300 46 OFFCURVE",
"237 -22 OFFCURVE",
"181 -22 QCURVE SMOOTH",
"125 -22 OFFCURVE",
"68 48 OFFCURVE",
"70 96 QCURVE SMOOTH"
);
},
{
closed = 1;
nodes = (
"335 1456 LINE",
"515 1456 LINE",
"317 408 LINE",
"164 408 LINE"
);
}
);
width = 594;
}
);
unicode = 0021;
},
{
glyphname = exclamdown;
layers = (
{
layerId = "6BF8B6E1-1195-476D-8D60-16328723C279";
paths = (
{
closed = 1;
nodes = (
"426 1007 OFFCURVE",
"364 938 OFFCURVE",
"306 938 QCURVE SMOOTH",
"248 938 OFFCURVE",
"186 1007 OFFCURVE",
"186 1055 QCURVE SMOOTH",
"186 1103 OFFCURVE",
"248 1172 OFFCURVE",
"306 1172 QCURVE SMOOTH",
"364 1172 OFFCURVE",
"426 1103 OFFCURVE",
"426 1055 QCURVE SMOOTH"
);
},
{
closed = 1;
nodes = (
"399 -306 LINE",
"214 -306 LINE",
"228 740 LINE",
"385 740 LINE"
);
}
);
width = 612;
}
);
unicode = 00A1;
},
{
glyphname = question;
layers = (
{
layerId = "6BF8B6E1-1195-476D-8D60-16328723C279";
paths = (
{
closed = 1;
nodes = (
"197 144 OFFCURVE",
"261 212 OFFCURVE",
"316 212 QCURVE SMOOTH",
"372 212 OFFCURVE",
"429 142 OFFCURVE",
"427 94 QCURVE SMOOTH",
"425 46 OFFCURVE",
"363 -22 OFFCURVE",
"307 -22 QCURVE SMOOTH",
"251 -22 OFFCURVE",
"194 48 OFFCURVE",
"196 96 QCURVE SMOOTH"
);
},
{
closed = 1;
nodes = (
"175 1115 LINE SMOOTH",
"204 1287 OFFCURVE",
"420 1476 OFFCURVE",
"577 1476 QCURVE SMOOTH",
"734 1476 OFFCURVE",
"875 1278 OFFCURVE",
"845 1102 QCURVE SMOOTH",
"821 965 OFFCURVE",
"659 759 OFFCURVE",
"587 694 QCURVE SMOOTH",
"507 622 OFFCURVE",
"447 491 OFFCURVE",
"437 423 QCURVE SMOOTH",
"435 410 LINE",
"272 410 LINE",
"275 430 LINE SMOOTH",
"294 554 OFFCURVE",
"367 686 OFFCURVE",
"469 786 QCURVE SMOOTH",
"551 865 OFFCURVE",
"655 1001 OFFCURVE",
"672 1102 QCURVE SMOOTH",
"690 1208 OFFCURVE",
"630 1319 OFFCURVE",
"549 1319 QCURVE SMOOTH",
"467 1319 OFFCURVE",
"363 1217 OFFCURVE",
"346 1115 QCURVE SMOOTH",
"343 1095 LINE",
"171 1095 LINE"
);
}
);
width = 923;
}
);
unicode = 003F;
},
{
glyphname = questiondown;
layers = (
{
guideLines = (
{
position = "{0, -181}";
},
{
position = "{0, 921}";
}
);
layerId = "6BF8B6E1-1195-476D-8D60-16328723C279";
paths = (
{
closed = 1;
nodes = (
"636 1005 OFFCURVE",
"574 936 OFFCURVE",
"517 936 QCURVE SMOOTH",
"459 936 OFFCURVE",
"397 1005 OFFCURVE",
"397 1053 QCURVE SMOOTH",
"397 1101 OFFCURVE",
"458 1170 OFFCURVE",
"516 1170 QCURVE SMOOTH",
"574 1170 OFFCURVE",
"636 1101 OFFCURVE",
"636 1053 QCURVE SMOOTH"
);
},
{
closed = 1;
nodes = (
"844 33 LINE SMOOTH",
"844 -139 OFFCURVE",
"656 -328 OFFCURVE",
"493 -328 QCURVE SMOOTH",
"330 -328 OFFCURVE",
"147 -130 OFFCURVE",
"147 46 QCURVE SMOOTH",
"147 183 OFFCURVE",
"277 389 OFFCURVE",
"340 454 QCURVE SMOOTH",
"409 526 OFFCURVE",
"436 660 OFFCURVE",
"436 728 QCURVE SMOOTH",
"436 738 LINE",
"614 738 LINE",
"614 728 LINE SMOOTH",
"614 605 OFFCURVE",
"566 462 OFFCURVE",
"478 362 QCURVE SMOOTH",
"408 283 OFFCURVE",
"325 147 OFFCURVE",
"325 46 QCURVE SMOOTH",
"325 -60 OFFCURVE",
"408 -171 OFFCURVE",
"493 -171 QCURVE SMOOTH",
"578 -171 OFFCURVE",
"667 -69 OFFCURVE",
"667 33 QCURVE SMOOTH",
"667 53 LINE",
"844 53 LINE"
);
}
);
width = 952;
}
);
unicode = 00BF;
userData = {
com.typemytype.robofont.guideline.magnetic.5ZPZZL8Rim = 5;
com.typemytype.robofont.guideline.magnetic.apukwP5ffL = 5;
};
},
{
glyphname = slash;
layers = (
{
layerId = "6BF8B6E1-1195-476D-8D60-16328723C279";
paths = (
{
closed = 1;
nodes = (
"521 1456 LINE",
"694 1456 LINE",
"-80 -125 LINE",
"-253 -125 LINE"
);
}
);
width = 462;
}
);
unicode = 002F;
},
{
glyphname = backslash;
layers = (
{
layerId = "6BF8B6E1-1195-476D-8D60-16328723C279";
paths = (
{
closed = 1;
nodes = (
"199 1456 LINE",
"415 -125 LINE",
"242 -125 LINE",
"25 1456 LINE"
);
}
);
width = 461;
}
);
unicode = 005C;
},
{
glyphname = fraction;
layers = (
{
guideLines = (
{
position = "{0, 901}";
},
{
position = "{0, 555}";
}
);
layerId = "6BF8B6E1-1195-476D-8D60-16328723C279";
paths = (
{
closed = 1;
nodes = (
"-298 -43 LINE",
"-408 41 LINE",
"634 1494 LINE",
"749 1416 LINE"
);
}
);
width = 342;
}
);
unicode = 2044;
userData = {
com.typemytype.robofont.guideline.magnetic.0lx51aIE0d = 5;
com.typemytype.robofont.guideline.magnetic.tcCoNUQTdD = 5;
};
},
{
glyphname = bar;
layers = (
{
layerId = "6BF8B6E1-1195-476D-8D60-16328723C279";
paths = (
{
closed = 1;
nodes = (
"347 1456 LINE",
"505 1456 LINE",
"161 -416 LINE",
"2 -416 LINE"
);
}
);
width = 566;
}
);
unicode = 007C;
},
{
glyphname = brokenbar;
layers = (
{
guideLines = (
{
position = "{0, 901}";
},
{
position = "{0, 555}";
}
);
layerId = "6BF8B6E1-1195-476D-8D60-16328723C279";
paths = (
{
closed = 1;
nodes = (
"205 -416 LINE",
"205 359 LINE",
"387 359 LINE",
"387 -416 LINE"
);
},
{
closed = 1;
nodes = (
"387 761 LINE",
"205 761 LINE",
"205 1536 LINE",
"387 1536 LINE"
);
}
);
width = 592;
}
);
unicode = 00A6;
userData = {
com.typemytype.robofont.guideline.magnetic.Z0RZpP7MTi = 5;
com.typemytype.robofont.guideline.magnetic.jmguX8NWKI = 5;
};
},
{
glyphname = at;
layers = (
{
layerId = "6BF8B6E1-1195-476D-8D60-16328723C279";
paths = (
{
closed = 1;
nodes = (
"515 680 OFFCURVE",
"832 1052 OFFCURVE",
"996 1052 QCURVE SMOOTH",
"1070 1052 OFFCURVE",
"1183 984 OFFCURVE",
"1217 946 QCURVE",
"1311 946 LINE",
"1105 350 LINE SMOOTH",
"1062 228 OFFCURVE",
"1113 132 OFFCURVE",
"1173 132 QCURVE SMOOTH",
"1280 132 OFFCURVE",
"1475 418 OFFCURVE",
"1515 650 QCURVE SMOOTH",
"1563 922 OFFCURVE",
"1319 1345 OFFCURVE",
"1043 1345 QCURVE SMOOTH",
"765 1345 OFFCURVE",
"291 822 OFFCURVE",
"227 460 QCURVE SMOOTH",
"164 98 OFFCURVE",
"429 -305 OFFCURVE",
"673 -305 QCURVE SMOOTH",
"791 -305 OFFCURVE",
"964 -251 OFFCURVE",
"1027 -215 QCURVE",
"999 -356 LINE",
"932 -400 OFFCURVE",
"763 -446 OFFCURVE",
"645 -446 QCURVE SMOOTH",
"343 -446 OFFCURVE",
"-10 40 OFFCURVE",
"64 460 QCURVE SMOOTH",
"138 880 OFFCURVE",
"735 1486 OFFCURVE",
"1070 1486 QCURVE SMOOTH",
"1405 1486 OFFCURVE",
"1734 1000 OFFCURVE",
"1673 650 QCURVE SMOOTH",
"1622 360 OFFCURVE",
"1326 0 OFFCURVE",
"1159 0 QCURVE SMOOTH",
"1062 0 OFFCURVE",
"934 100 OFFCURVE",
"914 180 QCURVE",
"859 100 OFFCURVE",
"726 0 OFFCURVE",
"658 0 QCURVE SMOOTH",
"538 0 OFFCURVE",
"434 220 OFFCURVE",
"466 400 QCURVE SMOOTH"
);
},
{
closed = 1;
nodes = (
"621 278 OFFCURVE",
"665 151 OFFCURVE",
"725 151 QCURVE SMOOTH",
"784 151 OFFCURVE",
"897 258 OFFCURVE",
"944 390 QCURVE SMOOTH",
"1115 873 LINE",
"1093 894 OFFCURVE",
"1029 916 OFFCURVE",
"995 916 QCURVE SMOOTH",
"881 916 OFFCURVE",
"681 622 OFFCURVE",
"642 400 QCURVE SMOOTH"
);
}
);
width = 1797;
}
);
unicode = 0040;
},
{
glyphname = ampersand;
layers = (
{
layerId = "6BF8B6E1-1195-476D-8D60-16328723C279";
paths = (
{
closed = 1;
nodes = (
"44 539 OFFCURVE",
"269 760 OFFCURVE",
"406 859 QCURVE SMOOTH",
"551 963 LINE SMOOTH",
"623 1014 OFFCURVE",
"682 1108 OFFCURVE",
"693 1170 QCURVE SMOOTH",
"705 1250 OFFCURVE",
"659 1338 OFFCURVE",
"595 1338 QCURVE SMOOTH",
"533 1338 OFFCURVE",
"446 1240 OFFCURVE",
"434 1160 QCURVE SMOOTH",
"421 1090 OFFCURVE",
"455 964 OFFCURVE",
"514 844 QCURVE SMOOTH",
"926 0 LINE",
"731 0 LINE",
"370 741 LINE SMOOTH",
"304 874 OFFCURVE",
"247 1060 OFFCURVE",
"264 1160 QCURVE SMOOTH",
"289 1308 OFFCURVE",
"491 1486 OFFCURVE",
"622 1486 QCURVE SMOOTH",
"752 1486 OFFCURVE",
"877 1318 OFFCURVE",
"854 1180 QCURVE SMOOTH",
"833 1061 OFFCURVE",
"708 904 OFFCURVE",
"618 841 QCURVE SMOOTH",
"472 738 LINE SMOOTH",
"347 651 OFFCURVE",
"206 490 OFFCURVE",
"187 380 QCURVE SMOOTH",
"168 268 OFFCURVE",
"263 128 OFFCURVE",
"363 128 QCURVE SMOOTH",
"505 128 OFFCURVE",
"763 418 OFFCURVE",
"808 674 QCURVE",
"968 674 LINE",
"916 380 OFFCURVE",
"552 -20 OFFCURVE",
"336 -20 QCURVE SMOOTH",
"154 -20 OFFCURVE",
"-13 206 OFFCURVE",
"17 380 QCURVE SMOOTH"
);
}
);
width = 1078;
}
);
unicode = 0026;
},
{
glyphname = section;
layers = (
{
guideLines = (
{
position = "{0, 1658}";
},
{
position = "{0, 578}";
}
);
layerId = "6BF8B6E1-1195-476D-8D60-16328723C279";
paths = (
{
closed = 1;
nodes = (
"691 252 LINE",
"784 252 OFFCURVE",
"904 371 OFFCURVE",
"904 463 QCURVE",
"904 556 OFFCURVE",
"787 672 OFFCURVE",
"606 734 QCURVE SMOOTH",
"416 793 OFFCURVE",
"246 980 OFFCURVE",
"246 1129 QCURVE SMOOTH",
"246 1303 OFFCURVE",
"441 1490 OFFCURVE",
"623 1491 QCURVE SMOOTH",
"800 1492 OFFCURVE",
"990 1289 OFFCURVE",
"989 1100 QCURVE",
"824 1100 LINE",
"825 1214 OFFCURVE",
"721 1337 OFFCURVE",
"623 1337 QCURVE SMOOTH",
"521 1337 OFFCURVE",
"411 1235 OFFCURVE",
"411 1140 QCURVE SMOOTH",
"411 1058 OFFCURVE",
"540 943 OFFCURVE",
"684 897 QCURVE SMOOTH",
"868 839 OFFCURVE",
"1085 652 OFFCURVE",
"1085 478 QCURVE SMOOTH",
"1085 327 OFFCURVE",
"863 133 OFFCURVE",
"691 133 QCURVE"
);
},
{
closed = 1;
nodes = (
"546 756 LINE",
"455 756 OFFCURVE",
"351 649 OFFCURVE",
"351 567 QCURVE SMOOTH",
"351 487 OFFCURVE",
"447 387 OFFCURVE",
"636 317 QCURVE SMOOTH",
"827 246 OFFCURVE",
"998 43 OFFCURVE",
"998 -113 QCURVE SMOOTH",
"998 -304 OFFCURVE",
"791 -509 OFFCURVE",
"599 -509 QCURVE SMOOTH",
"398 -509 OFFCURVE",
"181 -283 OFFCURVE",
"181 -72 QCURVE",
"345 -70 LINE",
"345 -207 OFFCURVE",
"477 -355 OFFCURVE",
"599 -355 QCURVE SMOOTH",
"712 -355 OFFCURVE",
"834 -242 OFFCURVE",
"834 -136 QCURVE SMOOTH",
"834 -31 OFFCURVE",
"695 109 OFFCURVE",
"540 161 QCURVE SMOOTH",
"355 222 OFFCURVE",
"169 420 OFFCURVE",
"169 577 QCURVE SMOOTH",
"169 715 OFFCURVE",
"376 894 OFFCURVE",
"547 894 QCURVE"
);
}
);
width = 1256;
}
);
unicode = 00A7;
userData = {
com.typemytype.robofont.guideline.magnetic.9Hxjf2sdFw = 5;
com.typemytype.robofont.guideline.magnetic.QzZ5gIiCyn = 5;
};
},
{
glyphname = paragraph;
layers = (
{
guideLines = (
{
position = "{0, 901}";
},
{
position = "{0, 555}";
}
);
layerId = "6BF8B6E1-1195-476D-8D60-16328723C279";
paths = (
{
closed = 1;
nodes = (
"414 -146 LINE",
"414 716 LINE",
"327 716 LINE SMOOTH",
"210 716 OFFCURVE",
"60 924 OFFCURVE",
"60 1086 QCURVE SMOOTH",
"60 1248 OFFCURVE",
"210 1456 OFFCURVE",
"327 1456 QCURVE SMOOTH",
"590 1456 LINE",
"590 -146 LINE"
);
},
{
closed = 1;
nodes = (
"908 1459 LINE",
"908 -146 LINE",
"732 -146 LINE",
"732 1459 LINE"
);
}
);
width = 1058;
}
);
unicode = 00B6;
userData = {
com.typemytype.robofont.guideline.magnetic.27539Lsr1A = 5;
com.typemytype.robofont.guideline.magnetic.e34wUdCmXR = 5;
};
},
{
glyphname = numero;
layers = (
{
layerId = "6BF8B6E1-1195-476D-8D60-16328723C279";
paths = (
{
closed = 1;
nodes = (
"170 1456 LINE",
"378 1456 LINE",
"881 432 LINE SMOOTH",
"893 407 OFFCURVE",
"928 324 OFFCURVE",
"937 291 QCURVE",
"945 291 LINE",
"942 326 OFFCURVE",
"942 418 OFFCURVE",
"942 450 QCURVE SMOOTH",
"942 1456 LINE",
"1121 1456 LINE",
"1121 0 LINE",
"913 0 LINE",
"405 1030 LINE SMOOTH",
"390 1060 OFFCURVE",
"361 1124 OFFCURVE",
"351 1156 QCURVE",
"343 1156 LINE",
"346 1122 OFFCURVE",
"347 1044 OFFCURVE",
"347 1010 QCURVE SMOOTH",
"347 0 LINE",
"170 0 LINE"
);
},
{
closed = 1;
nodes = (
"1274 1019 LINE SMOOTH",
"1274 1219 OFFCURVE",
"1480 1473 OFFCURVE",
"1676 1473 QCURVE SMOOTH",
"1872 1473 OFFCURVE",
"2081 1219 OFFCURVE",
"2081 1019 QCURVE SMOOTH",
"2081 992 LINE SMOOTH",
"2081 792 OFFCURVE",
"1884 539 OFFCURVE",
"1676 539 QCURVE SMOOTH",
"1468 539 OFFCURVE",
"1274 792 OFFCURVE",
"1274 992 QCURVE SMOOTH"
);
},
{
closed = 1;
nodes = (
"1456 991 LINE SMOOTH",
"1456 864 OFFCURVE",
"1555 687 OFFCURVE",
"1676 687 QCURVE SMOOTH",
"1797 687 OFFCURVE",
"1899 864 OFFCURVE",
"1899 991 QCURVE SMOOTH",
"1899 1016 LINE SMOOTH",
"1899 1143 OFFCURVE",
"1796 1325 OFFCURVE",
"1676 1325 QCURVE SMOOTH",
"1556 1325 OFFCURVE",
"1456 1143 OFFCURVE",
"1456 1016 QCURVE SMOOTH"
);
},
{
closed = 1;
nodes = (
"1300 414 LINE",
"2053 414 LINE",
"2053 232 LINE",
"1300 232 LINE"
);
}
);
width = 2171;
}
);
unicode = 2116;
},
{
glyphname = periodcentered;
layers = (
{
layerId = "6BF8B6E1-1195-476D-8D60-16328723C279";
paths = (
{
closed = 1;
nodes = (
"176 798 OFFCURVE",
"240 868 OFFCURVE",
"300 868 QCURVE SMOOTH",
"360 868 OFFCURVE",
"424 798 OFFCURVE",
"424 749 QCURVE SMOOTH",
"424 700 OFFCURVE",
"360 630 OFFCURVE",
"300 630 QCURVE SMOOTH",
"240 630 OFFCURVE",
"176 700 OFFCURVE",
"176 749 QCURVE SMOOTH"
);
}
);
width = 600;
}
);
unicode = 00B7;
},
{
glyphname = bullet;
layers = (
{
layerId = "6BF8B6E1-1195-476D-8D60-16328723C279";
paths = (
{
closed = 1;
nodes = (
"104 889 OFFCURVE",
"266 1061 OFFCURVE",
"392 1061 QCURVE SMOOTH",
"518 1061 OFFCURVE",
"680 889 OFFCURVE",
"680 773 QCURVE SMOOTH",
"680 659 OFFCURVE",
"518 487 OFFCURVE",
"392 487 QCURVE SMOOTH",
"266 487 OFFCURVE",
"104 659 OFFCURVE",
"104 773 QCURVE SMOOTH"
);
}
);
width = 784;
}
);
unicode = 2022;
},
{
glyphname = minute;
layers = (
{
layerId = "6BF8B6E1-1195-476D-8D60-16328723C279";
paths = (
{
closed = 1;
nodes = (
"270 1578 LINE",
"479 1507 LINE",
"231 884 LINE",
"88 939 LINE"
);
}
);
width = 545;
}
);
leftKerningGroup = minute;
rightKerningGroup = minute;
unicode = 2032;
},
{
glyphname = second;
layers = (
{
layerId = "6BF8B6E1-1195-476D-8D60-16328723C279";
paths = (
{
closed = 1;
nodes = (
"270 1578 LINE",
"479 1507 LINE",
"231 884 LINE",
"88 939 LINE"
);
},
{
closed = 1;
nodes = (
"670 1578 LINE",
"879 1507 LINE",
"631 884 LINE",
"488 939 LINE"
);
}
);
width = 945;
}
);
leftKerningGroup = minute;
rightKerningGroup = minute;
unicode = 2033;
},
{
glyphname = plus;
layers = (
{
layerId = "6BF8B6E1-1195-476D-8D60-16328723C279";
paths = (
{
closed = 1;
nodes = (
"159 754 LINE",
"990 754 LINE",
"961 594 LINE",
"130 594 LINE"
);
},
{
closed = 1;
nodes = (
"563 1180 LINE",
"729 1180 LINE",
"558 168 LINE",
"391 168 LINE"
);
}
);
width = 1139;
}
);
unicode = 002B;
},
{
glyphname = minus;
layers = (
{
layerId = "6BF8B6E1-1195-476D-8D60-16328723C279";
paths = (
{
closed = 1;
nodes = (
"57 768 LINE",
"867 768 LINE",
"867 588 LINE",
"57 588 LINE"
);
}
);
width = 924;
}
);
unicode = 2212;
},
{
glyphname = plusminus;
layers = (
{
layerId = "6BF8B6E1-1195-476D-8D60-16328723C279";
paths = (
{
closed = 1;
nodes = (
"83 773 LINE",
"941 773 LINE",
"941 613 LINE",
"83 613 LINE"
);
},
{
closed = 1;
nodes = (
"426 1160 LINE",
"598 1160 LINE",
"598 248 LINE",
"426 248 LINE"
);
},
{
closed = 1;
nodes = (
"83 165 LINE",
"941 165 LINE",
"941 1 LINE",
"83 1 LINE"
);
}
);
width = 1024;
}
);
unicode = 00B1;
},
{
glyphname = divide;
layers = (
{
layerId = "6BF8B6E1-1195-476D-8D60-16328723C279";
paths = (
{
closed = 1;
nodes = (
"336 1118 OFFCURVE",
"399 1188 OFFCURVE",
"461 1188 QCURVE SMOOTH",
"522 1188 OFFCURVE",
"587 1118 OFFCURVE",
"587 1065 QCURVE SMOOTH",
"587 1014 OFFCURVE",
"522 945 OFFCURVE",
"461 945 QCURVE SMOOTH",
"399 945 OFFCURVE",
"336 1014 OFFCURVE",
"336 1065 QCURVE SMOOTH"
);
},
{
closed = 1;
nodes = (
"336 340 OFFCURVE",
"399 411 OFFCURVE",
"461 411 QCURVE SMOOTH",
"522 411 OFFCURVE",
"587 340 OFFCURVE",
"587 288 QCURVE SMOOTH",
"587 237 OFFCURVE",
"522 167 OFFCURVE",
"461 167 QCURVE SMOOTH",
"399 167 OFFCURVE",
"336 237 OFFCURVE",
"336 288 QCURVE SMOOTH"
);
},
{
closed = 1;
nodes = (
"57 768 LINE",
"867 768 LINE",
"867 588 LINE",
"57 588 LINE"
);
}
);
width = 924;
}
);
unicode = 00F7;
},
{
glyphname = multiply;
layers = (
{
layerId = "6BF8B6E1-1195-476D-8D60-16328723C279";
paths = (
{
closed = 1;
nodes = (
"80 349 LINE",
"718 1104 LINE",
"826 991 LINE",
"188 237 LINE"
);
},
{
closed = 1;
nodes = (
"83 980 LINE",
"202 1104 LINE",
"829 360 LINE",
"710 237 LINE"
);
}
);
width = 909;
}
);
unicode = 00D7;
},
{
glyphname = equal;
layers = (
{
layerId = "6BF8B6E1-1195-476D-8D60-16328723C279";
paths = (
{
closed = 1;
nodes = (
"123 552 LINE",
"846 552 LINE",
"816 393 LINE",
"93 393 LINE"
);
},
{
closed = 1;
nodes = (
"193 955 LINE",
"916 955 LINE",
"886 796 LINE",
"163 796 LINE"
);
}
);
width = 1031;
}
);
unicode = 003D;
},
{
glyphname = less;
layers = (
{
layerId = "6BF8B6E1-1195-476D-8D60-16328723C279";
paths = (
{
closed = 1;
nodes = (
"147 604 LINE",
"172 744 LINE",
"930 1124 LINE",
"895 933 LINE",
"340 666 LINE",
"806 399 LINE",
"771 224 LINE"
);
}
);
width = 1037;
}
);
unicode = 003C;
},
{
glyphname = greater;
layers = (
{
layerId = "6BF8B6E1-1195-476D-8D60-16328723C279";
paths = (
{
closed = 1;
nodes = (
"123 411 LINE",
"679 678 LINE",
"212 945 LINE",
"247 1124 LINE",
"871 744 LINE",
"846 604 LINE",
"88 224 LINE"
);
}
);
width = 1038;
}
);
unicode = 003E;
},
{
glyphname = lessequal;
layers = (
{
layerId = "6BF8B6E1-1195-476D-8D60-16328723C279";
paths = (
{
closed = 1;
nodes = (
"172 604 LINE",
"172 744 LINE",
"888 1124 LINE",
"888 941 LINE",
"359 674 LINE",
"888 407 LINE",
"888 224 LINE"
);
},
{
closed = 1;
nodes = (
"132 164 LINE",
"912 164 LINE",
"912 1 LINE",
"132 1 LINE"
);
}
);
width = 1024;
}
);
unicode = 2264;
},
{
glyphname = greaterequal;
layers = (
{
layerId = "6BF8B6E1-1195-476D-8D60-16328723C279";
paths = (
{
closed = 1;
nodes = (
"156 407 LINE",
"685 674 LINE",
"156 941 LINE",
"156 1124 LINE",
"872 744 LINE",
"872 604 LINE",
"156 224 LINE"
);
},
{
closed = 1;
nodes = (
"132 1 LINE",
"132 164 LINE",
"912 164 LINE",
"912 1 LINE"
);
}
);
width = 1024;
}
);
unicode = 2265;
},
{
glyphname = approxequal;
layers = (
{
layerId = "6BF8B6E1-1195-476D-8D60-16328723C279";
paths = (
{
closed = 1;
nodes = (
"121 897 LINE",
"160 947 OFFCURVE",
"271 1004 OFFCURVE",
"326 1005 QCURVE SMOOTH",
"392 1006 OFFCURVE",
"469 964 OFFCURVE",
"522 934 QCURVE SMOOTH",
"572 904 OFFCURVE",
"643 865 OFFCURVE",
"705 865 QCURVE SMOOTH",
"760 865 OFFCURVE",
"865 932 OFFCURVE",
"904 991 QCURVE",
"904 797 LINE",
"865 746 OFFCURVE",
"761 689 OFFCURVE",
"706 689 QCURVE SMOOTH",
"644 689 OFFCURVE",
"572 728 OFFCURVE",
"523 757 QCURVE SMOOTH",
"470 788 OFFCURVE",
"392 829 OFFCURVE",
"326 829 QCURVE SMOOTH",
"271 829 OFFCURVE",
"160 762 OFFCURVE",
"121 703 QCURVE"
);
},
{
closed = 1;
nodes = (
"120 486 LINE",
"159 537 OFFCURVE",
"270 593 OFFCURVE",
"325 594 QCURVE SMOOTH",
"391 595 OFFCURVE",
"468 552 OFFCURVE",
"521 522 QCURVE SMOOTH",
"571 492 OFFCURVE",
"642 454 OFFCURVE",
"704 454 QCURVE SMOOTH",
"759 454 OFFCURVE",
"864 521 OFFCURVE",
"903 580 QCURVE",
"903 385 LINE",
"864 335 OFFCURVE",
"760 278 OFFCURVE",
"705 278 QCURVE SMOOTH",
"643 278 OFFCURVE",
"572 316 OFFCURVE",
"522 346 QCURVE SMOOTH",
"469 376 OFFCURVE",
"391 417 OFFCURVE",
"325 417 QCURVE SMOOTH",
"270 417 OFFCURVE",
"159 351 OFFCURVE",
"120 292 QCURVE"
);
}
);
width = 1024;
}
);
unicode = 2248;
},
{
glyphname = notequal;
layers = (
{
layerId = "6BF8B6E1-1195-476D-8D60-16328723C279";
paths = (
{
closed = 1;
nodes = (
"683 880 LINE",
"659 849 LINE",
"475 462 LINE",
"473 438 LINE",
"320 117 LINE",
"184 178 LINE",
"302 426 LINE",
"323 450 LINE",
"501 824 LINE",
"509 861 LINE",
"682 1233 LINE",
"818 1172 LINE"
);
},
{
closed = 1;
nodes = (
"156 541 LINE",
"906 541 LINE",
"906 382 LINE",
"156 382 LINE"
);
},
{
closed = 1;
nodes = (
"156 944 LINE",
"906 944 LINE",
"906 785 LINE",
"156 785 LINE"
);
}
);
width = 1024;
}
);
unicode = 2260;
},
{
glyphname = logicalnot;
layers = (
{
layerId = "6BF8B6E1-1195-476D-8D60-16328723C279";
paths = (
{
closed = 1;
nodes = (
"828 376 LINE",
"649 376 LINE",
"649 643 LINE",
"58 643 LINE",
"58 801 LINE",
"828 801 LINE"
);
}
);
width = 948;
}
);
unicode = 00AC;
},
{
glyphname = commercialMinusSign;
layers = (
{
layerId = "6BF8B6E1-1195-476D-8D60-16328723C279";
paths = (
{
closed = 1;
nodes = (
"646 1501 LINE",
"814 1458 LINE",
"229 -45 LINE",
"61 -2 LINE"
);
},
{
closed = 1;
nodes = (
"505 213 OFFCURVE",
"596 310 OFFCURVE",
"667 310 QCURVE SMOOTH",
"738 310 OFFCURVE",
"829 213 OFFCURVE",
"829 148 QCURVE SMOOTH",
"829 84 OFFCURVE",
"738 -13 OFFCURVE",
"667 -13 QCURVE SMOOTH",
"596 -13 OFFCURVE",
"505 84 OFFCURVE",
"505 148 QCURVE SMOOTH"
);
},
{
closed = 1;
nodes = (
"60 1369 OFFCURVE",
"151 1466 OFFCURVE",
"222 1466 QCURVE SMOOTH",
"293 1466 OFFCURVE",
"384 1369 OFFCURVE",
"384 1304 QCURVE SMOOTH",
"384 1240 OFFCURVE",
"293 1143 OFFCURVE",
"222 1143 QCURVE SMOOTH",
"151 1143 OFFCURVE",
"60 1240 OFFCURVE",
"60 1304 QCURVE SMOOTH"
);
}
);
width = 889;
}
);
unicode = 2052;
},
{
glyphname = divisionslash;
layers = (
{
layerId = "6BF8B6E1-1195-476D-8D60-16328723C279";
paths = (
{
closed = 1;
nodes = (
"554 1555 LINE",
"695 1512 LINE",
"79 -161 LINE",
"-62 -118 LINE"
);
}
);
width = 656;
}
);
unicode = 2215;
},
{
glyphname = bulletoperator;
layers = (
{
layerId = "6BF8B6E1-1195-476D-8D60-16328723C279";
paths = (
{
closed = 1;
nodes = (
"368 732 OFFCURVE",
"449 818 OFFCURVE",
"512 818 QCURVE SMOOTH",
"575 818 OFFCURVE",
"656 732 OFFCURVE",
"656 674 QCURVE SMOOTH",
"656 617 OFFCURVE",
"575 531 OFFCURVE",
"512 531 QCURVE SMOOTH",
"449 531 OFFCURVE",
"368 617 OFFCURVE",
"368 674 QCURVE SMOOTH"
);
}
);
width = 1024;
}
);
unicode = 2219;
},
{
glyphname = dollar;
layers = (
{
layerId = "6BF8B6E1-1195-476D-8D60-16328723C279";
paths = (
{
closed = 1;
nodes = (
"11 422 LINE",
"170 422 LINE",
"168 400 LINE SMOOTH",
"157 278 OFFCURVE",
"257 141 OFFCURVE",
"378 141 QCURVE SMOOTH",
"513 141 OFFCURVE",
"668 246 OFFCURVE",
"692 344 QCURVE SMOOTH",
"716 442 OFFCURVE",
"607 598 OFFCURVE",
"443 678 QCURVE SMOOTH",
"281 755 OFFCURVE",
"121 972 OFFCURVE",
"153 1135 QCURVE SMOOTH",
"184 1290 OFFCURVE",
"431 1457 OFFCURVE",
"622 1457 QCURVE SMOOTH",
"802 1457 OFFCURVE",
"973 1242 OFFCURVE",
"956 1061 QCURVE SMOOTH",
"954 1040 LINE",
"793 1040 LINE",
"795 1061 LINE SMOOTH",
"806 1176 OFFCURVE",
"714 1313 OFFCURVE",
"593 1313 QCURVE SMOOTH",
"463 1313 OFFCURVE",
"334 1214 OFFCURVE",
"316 1131 QCURVE SMOOTH",
"299 1048 OFFCURVE",
"388 893 OFFCURVE",
"559 804 QCURVE SMOOTH",
"717 723 OFFCURVE",
"894 514 OFFCURVE",
"858 342 QCURVE SMOOTH",
"822 169 OFFCURVE",
"561 -2 OFFCURVE",
"362 -2 QCURVE SMOOTH",
"174 -2 OFFCURVE",
"-10 202 OFFCURVE",
"8 400 QCURVE SMOOTH"
);
},
{
closed = 1;
nodes = (
"429 758 LINE",
"560 758 LINE",
"441 80 LINE",
"453 70 LINE",
"410 -170 LINE",
"265 -170 LINE"
);
},
{
closed = 1;
nodes = (
"553 1386 LINE",
"541 1396 LINE",
"575 1586 LINE",
"720 1586 LINE",
"574 758 LINE",
"442 758 LINE"
);
}
);
width = 1036;
}
);
unicode = 0024;
},
{
glyphname = cent;
layers = (
{
layerId = "6BF8B6E1-1195-476D-8D60-16328723C279";
paths = (
{
closed = 1;
nodes = (
"601 282 OFFCURVE",
"692 414 OFFCURVE",
"692 506 QCURVE",
"864 506 LINE",
"864 351 OFFCURVE",
"679 134 OFFCURVE",
"492 134 QCURVE SMOOTH",
"306 134 OFFCURVE",
"85 416 OFFCURVE",
"85 674 QCURVE SMOOTH",
"85 706 LINE SMOOTH",
"85 964 OFFCURVE",
"306 1246 OFFCURVE",
"500 1246 QCURVE SMOOTH",
"679 1246 OFFCURVE",
"864 1029 OFFCURVE",
"864 874 QCURVE",
"692 874 LINE",
"692 966 OFFCURVE",
"608 1097 OFFCURVE",
"499 1097 QCURVE SMOOTH",
"382 1097 OFFCURVE",
"267 901 OFFCURVE",
"267 736 QCURVE SMOOTH",
"267 644 LINE SMOOTH",
"267 479 OFFCURVE",
"378 282 OFFCURVE",
"490 282 QCURVE SMOOTH"
);
},
{
closed = 1;
nodes = (
"400 237 LINE",
"405 251 LINE",
"405 708 LINE",
"545 708 LINE",
"545 250 LINE",
"550 240 LINE",
"550 0 LINE",
"400 0 LINE"
);
},
{
closed = 1;
nodes = (
"405 1182 LINE",
"400 1192 LINE",
"400 1402 LINE",
"550 1402 LINE",
"550 1192 LINE",
"545 1179 LINE",
"545 708 LINE",
"405 708 LINE"
);
}
);
width = 935;
}
);
unicode = 00A2;
},
{
glyphname = sterling;
layers = (
{
layerId = "6BF8B6E1-1195-476D-8D60-16328723C279";
paths = (
{
closed = 1;
nodes = (
"36 0 LINE",
"36 160 LINE",
"92 160 LINE SMOOTH",
"184 160 OFFCURVE",
"264 324 OFFCURVE",
"250 467 QCURVE SMOOTH",
"195 1039 LINE SMOOTH",
"175 1250 OFFCURVE",
"349 1476 OFFCURVE",
"531 1476 QCURVE SMOOTH",
"701 1476 OFFCURVE",
"884 1283 OFFCURVE",
"884 1103 QCURVE SMOOTH",
"884 1087 LINE",
"692 1087 LINE",
"692 1103 LINE SMOOTH",
"692 1202 OFFCURVE",
"610 1309 OFFCURVE",
"533 1309 QCURVE SMOOTH",
"448 1309 OFFCURVE",
"371 1169 OFFCURVE",
"383 1039 QCURVE SMOOTH",
"434 508 LINE SMOOTH",
"447 372 OFFCURVE",
"392 207 OFFCURVE",
"322 166 QCURVE",
"928 166 LINE",
"928 0 LINE"
);
},
{
closed = 1;
nodes = (
"52 629 LINE",
"52 776 LINE",
"724 776 LINE",
"724 629 LINE"
);
}
);
width = 933;
}
);
unicode = 00A3;
},
{
glyphname = currency;
layers = (
{
guideLines = (
{
position = "{0, 901}";
},
{
position = "{0, 555}";
}
);
layerId = "6BF8B6E1-1195-476D-8D60-16328723C279";
paths = (
{
closed = 1;
nodes = (
"261 567 OFFCURVE",
"395 373 OFFCURVE",
"526 373 QCURVE SMOOTH",
"656 373 OFFCURVE",
"789 567 OFFCURVE",
"789 712 QCURVE SMOOTH",
"789 855 OFFCURVE",
"656 1049 OFFCURVE",
"526 1049 QCURVE SMOOTH",
"395 1049 OFFCURVE",
"261 855 OFFCURVE",
"261 712 QCURVE"
);
},
{
closed = 1;
nodes = (
"78 933 OFFCURVE",
"324 1225 OFFCURVE",
"525 1225 QCURVE SMOOTH",
"726 1225 OFFCURVE",
"972 933 OFFCURVE",
"972 718 QCURVE SMOOTH",
"972 504 OFFCURVE",
"726 209 OFFCURVE",
"525 209 QCURVE SMOOTH",
"324 209 OFFCURVE",
"78 504 OFFCURVE",
"78 718 QCURVE"
);
},
{
closed = 1;
nodes = (
"817 970 LINE",
"695 1097 LINE",
"897 1303 LINE",
"1019 1176 LINE"
);
},
{
closed = 1;
nodes = (
"133 148 LINE",
"12 274 LINE",
"214 479 LINE",
"335 354 LINE"
);
},
{
closed = 1;
nodes = (
"721 361 LINE",
"844 487 LINE",
"1046 282 LINE",
"923 155 LINE"
);
},
{
closed = 1;
nodes = (
"29 1190 LINE",
"150 1316 LINE",
"352 1110 LINE",
"231 984 LINE"
);
}
);
width = 1058;
}
);
unicode = 00A4;
userData = {
com.typemytype.robofont.guideline.magnetic.917FhrihjR = 5;
com.typemytype.robofont.guideline.magnetic.bRYxxRaQQf = 5;
};
},
{
glyphname = yen;
layers = (
{
layerId = "6BF8B6E1-1195-476D-8D60-16328723C279";
paths = (
{
closed = 1;
nodes = (
"59 470 LINE",
"923 470 LINE",
"923 311 LINE",
"59 311 LINE"
);
},
{
closed = 1;
nodes = (
"59 775 LINE",
"391 775 LINE",
"444 669 LINE",
"553 669 LINE",
"601 775 LINE",
"923 775 LINE",
"923 621 LINE",
"59 621 LINE"
);
},
{
closed = 1;
nodes = (
"402 548 LINE",
"-19 1456 LINE",
"190 1456 LINE",
"432 849 LINE SMOOTH",
"444 819 OFFCURVE",
"479 716 OFFCURVE",
"486 679 QCURVE",
"506 679 LINE",
"515 735 OFFCURVE",
"546 819 OFFCURVE",
"560 849 QCURVE SMOOTH",
"792 1456 LINE",
"993 1456 LINE",
"586 548 LINE",
"586 0 LINE",
"402 0 LINE"
);
}
);
width = 974;
}
);
unicode = 00A5;
},
{
glyphname = coloncurrency;
layers = (
{
guideLines = (
{
position = "{0, 1570}";
}
);
layerId = "6BF8B6E1-1195-476D-8D60-16328723C279";
paths = (
{
closed = 1;
nodes = (
"913 1324 LINE",
"900 1301 LINE",
"728 68 LINE",
"734 43 LINE",
"710 -125 LINE",
"551 -125 LINE",
"574 40 LINE",
"588 66 LINE",
"773 1361 LINE",
"766 1381 LINE",
"794 1570 LINE",
"952 1570 LINE"
);
},
{
closed = 1;
nodes = (
"675 1395 LINE",
"662 1374 LINE",
"475 66 LINE",
"481 39 LINE",
"458 -125 LINE",
"299 -125 LINE",
"334 122 LINE",
"348 148 LINE",
"524 1376 LINE",
"517 1399 LINE",
"542 1570 LINE",
"700 1570 LINE"
);
},
{
closed = 1;
nodes = (
"115 774 LINE SMOOTH",
"115 1138 OFFCURVE",
"401 1486 OFFCURVE",
"636 1486 QCURVE SMOOTH",
"858 1486 OFFCURVE",
"1108 1220 OFFCURVE",
"1108 1000 QCURVE SMOOTH",
"1108 990 LINE",
"924 990 LINE",
"924 1000 LINE SMOOTH",
"924 1129 OFFCURVE",
"796 1327 OFFCURVE",
"636 1327 QCURVE SMOOTH",
"469 1327 OFFCURVE",
"300 1073 OFFCURVE",
"300 815 QCURVE SMOOTH",
"300 642 LINE SMOOTH",
"300 395 OFFCURVE",
"483 129 OFFCURVE",
"635 129 QCURVE SMOOTH",
"779 129 OFFCURVE",
"918 334 OFFCURVE",
"924 456 QCURVE SMOOTH",
"924 466 LINE",
"1108 466 LINE",
"1108 456 LINE SMOOTH",
"1108 236 OFFCURVE",
"858 -30 OFFCURVE",
"636 -30 QCURVE SMOOTH",
"399 -30 OFFCURVE",
"115 323 OFFCURVE",
"115 682 QCURVE SMOOTH"
);
}
);
width = 1158;
}
);
unicode = 20A1;
userData = {
com.typemytype.robofont.guideline.magnetic.0DwZ2nfhdf = 5;
};
},
{
glyphname = franc;
layers = (
{
layerId = "6BF8B6E1-1195-476D-8D60-16328723C279";
paths = (
{
closed = 1;
nodes = (
"170 1456 LINE",
"942 1456 LINE",
"942 1303 LINE",
"354 1303 LINE",
"354 858 LINE",
"858 858 LINE",
"858 706 LINE",
"354 706 LINE",
"354 0 LINE",
"170 0 LINE"
);
},
{
closed = 1;
nodes = (
"20 450 LINE",
"685 450 LINE",
"685 300 LINE",
"20 300 LINE"
);
}
);
width = 1000;
}
);
unicode = 20A3;
},
{
glyphname = lira;
layers = (
{
layerId = "6BF8B6E1-1195-476D-8D60-16328723C279";
paths = (
{
closed = 1;
nodes = (
"36 0 LINE",
"36 160 LINE",
"92 160 LINE SMOOTH",
"184 160 OFFCURVE",
"264 324 OFFCURVE",
"250 467 QCURVE SMOOTH",
"195 1039 LINE SMOOTH",
"175 1250 OFFCURVE",
"349 1476 OFFCURVE",
"531 1476 QCURVE SMOOTH",
"701 1476 OFFCURVE",
"884 1283 OFFCURVE",
"884 1103 QCURVE SMOOTH",
"884 1087 LINE",
"692 1087 LINE",
"692 1103 LINE SMOOTH",
"692 1202 OFFCURVE",
"610 1309 OFFCURVE",
"533 1309 QCURVE SMOOTH",
"448 1309 OFFCURVE",
"371 1169 OFFCURVE",
"383 1039 QCURVE SMOOTH",
"434 508 LINE SMOOTH",
"447 372 OFFCURVE",
"392 207 OFFCURVE",
"322 166 QCURVE",
"928 166 LINE",
"928 0 LINE"
);
},
{
closed = 1;
nodes = (
"52 769 LINE",
"52 906 LINE",
"724 906 LINE",
"724 769 LINE"
);
},
{
closed = 1;
nodes = (
"52 439 LINE",
"52 576 LINE",
"724 576 LINE",
"724 439 LINE"
);
}
);
width = 933;
}
);
unicode = 20A4;
},
{
glyphname = naira;
layers = (
{
layerId = "6BF8B6E1-1195-476D-8D60-16328723C279";
paths = (
{
closed = 1;
nodes = (
"-21 983 LINE",
"161 983 LINE",
"161 973 LINE",
"747 973 LINE",
"747 983 LINE",
"939 985 LINE",
"939 856 LINE",
"747 854 LINE",
"747 859 LINE",
"161 859 LINE",
"161 854 LINE",
"-21 854 LINE"
);
},
{
closed = 1;
nodes = (
"-21 673 LINE",
"161 673 LINE",
"161 668 LINE",
"747 668 LINE",
"747 673 LINE",
"939 675 LINE",
"939 546 LINE",
"747 544 LINE",
"747 554 LINE",
"161 554 LINE",
"161 544 LINE",
"-21 544 LINE"
);
},
{
closed = 1;
nodes = (
"826 0 LINE",
"645 0 LINE",
"254 1112 LINE",
"232 1223 LINE",
"220 1223 LINE",
"233 1095 LINE",
"233 0 LINE",
"83 0 LINE",
"83 1456 LINE",
"269 1456 LINE",
"643 377 LINE",
"672 257 LINE",
"686 260 LINE",
"676 381 LINE",
"676 1456 LINE",
"826 1456 LINE"
);
}
);
width = 918;
}
);
unicode = 20A6;
},
{
glyphname = peseta;
layers = (
{
layerId = "6BF8B6E1-1195-476D-8D60-16328723C279";
paths = (
{
closed = 1;
nodes = (
"311 569 LINE",
"311 713 LINE",
"545 713 LINE",
"718 713 OFFCURVE",
"822 899 OFFCURVE",
"822 1009 QCURVE",
"822 1121 OFFCURVE",
"718 1308 OFFCURVE",
"545 1308 QCURVE",
"352 1308 LINE",
"352 0 LINE",
"167 0 LINE",
"167 1456 LINE",
"545 1456 LINE",
"791 1456 OFFCURVE",
"1008 1202 OFFCURVE",
"1008 1011 QCURVE",
"1008 819 OFFCURVE",
"791 569 OFFCURVE",
"545 569 QCURVE"
);
},
{
closed = 1;
nodes = (
"950 1024 LINE",
"1516 1024 LINE",
"1516 886 LINE",
"950 886 LINE"
);
},
{
closed = 1;
nodes = (
"1329 1345 LINE",
"1329 253 LINE",
"1329 177 OFFCURVE",
"1373 125 OFFCURVE",
"1422 125 QCURVE SMOOTH",
"1445 125 OFFCURVE",
"1488 134 OFFCURVE",
"1511 142 QCURVE",
"1511 0 LINE",
"1489 -12 OFFCURVE",
"1418 -30 OFFCURVE",
"1375 -30 QCURVE SMOOTH",
"1273 -30 OFFCURVE",
"1151 110 OFFCURVE",
"1151 260 QCURVE",
"1151 1345 LINE"
);
}
);
width = 1594;
}
);
unicode = 20A7;
},
{
glyphname = won;
layers = (
{
layerId = "6BF8B6E1-1195-476D-8D60-16328723C279";
paths = (
{
closed = 1;
nodes = (
"48 1013 LINE",
"336 1013 LINE",
"336 1003 LINE",
"1412 1003 LINE",
"1412 1013 LINE",
"1688 1015 LINE",
"1688 886 LINE",
"1412 884 LINE",
"1412 889 LINE",
"336 889 LINE",
"336 884 LINE",
"48 884 LINE"
);
},
{
closed = 1;
nodes = (
"79 653 LINE",
"407 653 LINE",
"407 648 LINE",
"1333 648 LINE",
"1333 653 LINE",
"1649 655 LINE",
"1649 526 LINE",
"1333 524 LINE",
"1333 534 LINE",
"407 534 LINE",
"407 524 LINE",
"79 524 LINE"
);
},
{
closed = 1;
nodes = (
"115 1456 LINE",
"289 1456 LINE",
"518 378 LINE",
"536 250 LINE",
"542 250 LINE",
"560 378 LINE SMOOTH",
"758 1456 LINE",
"956 1456 LINE",
"1184 378 LINE",
"1202 250 LINE",
"1208 250 LINE",
"1226 378 LINE SMOOTH",
"1425 1456 LINE",
"1587 1456 LINE",
"1289 -10 LINE",
"1111 -10 LINE",
"885 1100 LINE",
"864 1228 LINE",
"858 1228 LINE",
"837 1100 LINE SMOOTH",
"631 -10 LINE",
"453 -10 LINE"
);
}
);
width = 1736;
}
);
unicode = 20A9;
},
{
glyphname = dong;
layers = (
{
layerId = "6BF8B6E1-1195-476D-8D60-16328723C279";
paths = (
{
closed = 1;
nodes = (
"85 502 LINE SMOOTH",
"85 732 OFFCURVE",
"284 992 OFFCURVE",
"451 992 QCURVE SMOOTH",
"541 992 OFFCURVE",
"668 922 OFFCURVE",
"706 863 QCURVE",
"706 1456 LINE",
"884 1456 LINE",
"884 0 LINE",
"721 0 LINE",
"714 122 LINE",
"710 122 LINE",
"677 62 OFFCURVE",
"541 -20 OFFCURVE",
"451 -20 QCURVE SMOOTH",
"284 -20 OFFCURVE",
"85 240 OFFCURVE",
"85 470 QCURVE SMOOTH"
);
},
{
closed = 1;
nodes = (
"267 278 OFFCURVE",
"377 128 OFFCURVE",
"494 128 QCURVE SMOOTH",
"572 128 OFFCURVE",
"681 225 OFFCURVE",
"706 288 QCURVE",
"706 684 LINE",
"681 747 OFFCURVE",
"572 844 OFFCURVE",
"494 844 QCURVE SMOOTH",
"377 844 OFFCURVE",
"267 694 OFFCURVE",
"267 532 QCURVE SMOOTH",
"267 440 LINE SMOOTH"
);
},
{
closed = 1;
nodes = (
"345 1160 LINE",
"345 1298 LINE",
"981 1298 LINE",
"981 1160 LINE"
);
},
{
closed = 1;
nodes = (
"87 -262 LINE",
"87 -132 LINE",
"931 -132 LINE",
"931 -262 LINE"
);
}
);
width = 1032;
}
);
unicode = 20AB;
},
{
glyphname = Euro;
layers = (
{
layerId = "6BF8B6E1-1195-476D-8D60-16328723C279";
paths = (
{
closed = 1;
nodes = (
"727 831 LINE",
"22 831 LINE",
"22 983 LINE",
"724 983 LINE"
);
},
{
closed = 1;
nodes = (
"727 506 LINE",
"22 506 LINE",
"22 657 LINE",
"727 657 LINE"
);
},
{
closed = 1;
nodes = (
"163 903 LINE SMOOTH",
"163 1183 OFFCURVE",
"397 1484 OFFCURVE",
"614 1484 QCURVE SMOOTH",
"707 1484 OFFCURVE",
"874 1408 OFFCURVE",
"938 1337 QCURVE",
"821 1206 LINE",
"777 1254 OFFCURVE",
"677 1306 OFFCURVE",
"628 1306 QCURVE SMOOTH",
"490 1306 OFFCURVE",
"342 1099 OFFCURVE",
"342 906 QCURVE SMOOTH",
"342 541 LINE SMOOTH",
"342 350 OFFCURVE",
"501 145 OFFCURVE",
"649 145 QCURVE SMOOTH",
"694 145 OFFCURVE",
"797 195 OFFCURVE",
"848 242 QCURVE",
"951 126 LINE",
"890 51 OFFCURVE",
"717 -30 OFFCURVE",
"616 -30 QCURVE SMOOTH",
"398 -30 OFFCURVE",
"163 267 OFFCURVE",
"163 544 QCURVE SMOOTH"
);
}
);
width = 981;
}
);
unicode = 20AC;
},
{
glyphname = florin;
layers = (
{
layerId = "6BF8B6E1-1195-476D-8D60-16328723C279";
paths = (
{
closed = 1;
nodes = (
"788 744 LINE",
"515 744 LINE",
"515 111 LINE SMOOTH",
"515 -178 OFFCURVE",
"320 -437 OFFCURVE",
"103 -437 QCURVE SMOOTH",
"72 -437 OFFCURVE",
"19 -430 OFFCURVE",
"-9 -420 QCURVE",
"5 -271 LINE",
"20 -277 OFFCURVE",
"89 -284 OFFCURVE",
"103 -284 QCURVE SMOOTH",
"219 -284 OFFCURVE",
"326 -97 OFFCURVE",
"330 111 QCURVE SMOOTH",
"330 744 LINE",
"129 744 LINE",
"129 878 LINE",
"330 878 LINE",
"330 1126 LINE SMOOTH",
"330 1301 OFFCURVE",
"491 1487 OFFCURVE",
"648 1487 QCURVE SMOOTH",
"719 1487 OFFCURVE",
"820 1452 OFFCURVE",
"883 1404 QCURVE",
"802 1259 LINE",
"758 1294 OFFCURVE",
"694 1320 OFFCURVE",
"652 1320 QCURVE SMOOTH",
"582 1320 OFFCURVE",
"511 1224 OFFCURVE",
"515 1126 QCURVE SMOOTH",
"515 878 LINE",
"788 878 LINE"
);
}
);
width = 945;
}
);
unicode = 0192;
},
{
glyphname = uni20AD;
layers = (
{
layerId = "6BF8B6E1-1195-476D-8D60-16328723C279";
paths = (
{
closed = 1;
nodes = (
"130 1456 LINE",
"317 1456 LINE",
"317 769 LINE",
"835 1456 LINE",
"1037 1456 LINE",
"317 500 LINE",
"317 0 LINE",
"130 0 LINE"
);
},
{
closed = 1;
nodes = (
"441 756 LINE",
"557 901 LINE",
"1061 0 LINE",
"845 0 LINE"
);
},
{
closed = 1;
nodes = (
"-9 661 LINE",
"-9 809 LINE",
"267 809 LINE",
"267 661 LINE"
);
},
{
closed = 1;
nodes = (
"1021 661 LINE",
"590 661 LINE",
"590 809 LINE",
"1021 809 LINE"
);
}
);
width = 1024;
}
);
unicode = 20AD;
},
{
glyphname = uni20B1;
layers = (
{
layerId = "6BF8B6E1-1195-476D-8D60-16328723C279";
paths = (
{
closed = 1;
nodes = (
"187 421 LINE",
"187 577 LINE",
"402 577 LINE SMOOTH",
"556 577 OFFCURVE",
"668 759 OFFCURVE",
"668 945 QCURVE SMOOTH",
"668 1131 OFFCURVE",
"556 1300 OFFCURVE",
"402 1300 QCURVE SMOOTH",
"277 1300 LINE",
"277 0 LINE",
"89 0 LINE",
"89 1456 LINE",
"405 1456 LINE SMOOTH",
"640 1456 OFFCURVE",
"854 1203 OFFCURVE",
"854 955 QCURVE SMOOTH",
"854 725 OFFCURVE",
"639 421 OFFCURVE",
"404 421 QCURVE SMOOTH"
);
},
{
closed = 1;
nodes = (
"-1 1133 LINE",
"201 1133 LINE",
"201 1108 LINE",
"747 1108 LINE",
"747 1133 LINE",
"979 1135 LINE",
"979 986 LINE",
"767 984 LINE",
"767 999 LINE",
"201 999 LINE",
"201 984 LINE",
"-1 984 LINE"
);
},
{
closed = 1;
nodes = (
"-1 863 LINE",
"201 863 LINE",
"201 848 LINE",
"767 848 LINE",
"767 863 LINE",
"979 865 LINE",
"979 716 LINE",
"727 714 LINE",
"727 738 LINE",
"201 738 LINE",
"201 714 LINE",
"-1 714 LINE"
);
}
);
width = 984;
}
);
unicode = 20B1;
},
{
glyphname = uni20B2;
layers = (
{
layerId = "6BF8B6E1-1195-476D-8D60-16328723C279";
paths = (
{
closed = 1;
nodes = (
"463 57 LINE",
"481 71 LINE",
"481 708 LINE",
"603 708 LINE",
"603 70 LINE",
"625 60 LINE",
"625 -190 LINE",
"463 -190 LINE"
);
},
{
closed = 1;
nodes = (
"481 1342 LINE",
"466 1352 LINE",
"466 1582 LINE",
"618 1582 LINE",
"618 1352 LINE",
"603 1339 LINE",
"603 708 LINE",
"481 708 LINE"
);
},
{
closed = 1;
nodes = (
"955 452 LINE SMOOTH",
"955 259 OFFCURVE",
"734 -5 OFFCURVE",
"551 -5 QCURVE SMOOTH",
"330 -5 OFFCURVE",
"94 288 OFFCURVE",
"94 542 QCURVE SMOOTH",
"94 897 LINE SMOOTH",
"94 1196 OFFCURVE",
"330 1485 OFFCURVE",
"529 1485 QCURVE SMOOTH",
"707 1485 OFFCURVE",
"901 1340 OFFCURVE",
"949 1265 QCURVE",
"833 1131 LINE",
"778 1204 OFFCURVE",
"653 1309 OFFCURVE",
"537 1309 QCURVE SMOOTH",
"405 1309 OFFCURVE",
"288 1112 OFFCURVE",
"288 899 QCURVE SMOOTH",
"288 544 LINE SMOOTH",
"288 359 OFFCURVE",
"415 142 OFFCURVE",
"565 142 QCURVE SMOOTH",
"652 142 OFFCURVE",
"773 299 OFFCURVE",
"783 433 QCURVE SMOOTH",
"783 573 LINE",
"656 573 LINE",
"656 725 LINE",
"955 725 LINE"
);
}
);
width = 984;
}
);
unicode = 20B2;
},
{
glyphname = uni20B5;
layers = (
{
guideLines = (
{
position = "{0, -125}";
}
);
layerId = "6BF8B6E1-1195-476D-8D60-16328723C279";
paths = (
{
closed = 1;
nodes = (
"457 37 LINE",
"470 51 LINE",
"470 708 LINE",
"607 708 LINE",
"607 50 LINE",
"619 40 LINE",
"619 -190 LINE",
"457 -190 LINE"
);
},
{
closed = 1;
nodes = (
"470 1362 LINE",
"460 1372 LINE",
"460 1582 LINE",
"612 1582 LINE",
"612 1372 LINE",
"607 1359 LINE",
"607 708 LINE",
"470 708 LINE"
);
},
{
closed = 1;
nodes = (
"781 460 LINE",
"970 458 LINE",
"969 436 LINE SMOOTH",
"960 243 OFFCURVE",
"759 -25 OFFCURVE",
"545 -25 QCURVE SMOOTH",
"324 -25 OFFCURVE",
"102 237 OFFCURVE",
"102 462 QCURVE SMOOTH",
"102 1002 LINE SMOOTH",
"102 1216 OFFCURVE",
"324 1485 OFFCURVE",
"543 1485 QCURVE SMOOTH",
"760 1485 OFFCURVE",
"960 1236 OFFCURVE",
"969 1030 QCURVE SMOOTH",
"970 1008 LINE",
"776 1006 LINE",
"776 1030 LINE SMOOTH",
"776 1135 OFFCURVE",
"692 1329 OFFCURVE",
"546 1329 QCURVE SMOOTH",
"399 1329 OFFCURVE",
"296 1150 OFFCURVE",
"296 1004 QCURVE SMOOTH",
"296 464 LINE SMOOTH",
"296 311 OFFCURVE",
"409 122 OFFCURVE",
"559 122 QCURVE SMOOTH",
"677 122 OFFCURVE",
"781 302 OFFCURVE",
"781 436 QCURVE SMOOTH"
);
}
);
width = 1024;
}
);
unicode = 20B5;
userData = {
com.typemytype.robofont.guideline.magnetic.1Am3eQoiKr = 5;
};
},
{
glyphname = rupeeIndian;
layers = (
{
layerId = "6BF8B6E1-1195-476D-8D60-16328723C279";
paths = (
{
closed = 1;
nodes = (
"19 1085 LINE",
"910 1085 LINE",
"910 938 LINE",
"19 938 LINE"
);
},
{
closed = 1;
nodes = (
"580 267 LINE SMOOTH",
"486 439 OFFCURVE",
"282 568 OFFCURVE",
"92 578 QCURVE SMOOTH",
"19 583 LINE",
"19 728 LINE",
"267 728 LINE SMOOTH",
"428 728 OFFCURVE",
"577 866 OFFCURVE",
"577 1019 QCURVE SMOOTH",
"577 1145 OFFCURVE",
"452 1304 OFFCURVE",
"281 1303 QCURVE SMOOTH",
"19 1303 LINE",
"19 1456 LINE",
"919 1456 LINE",
"919 1304 LINE",
"684 1304 LINE",
"607 1312 LINE",
"609 1304 LINE",
"666 1276 OFFCURVE",
"754 1112 OFFCURVE",
"754 1019 QCURVE SMOOTH",
"754 842 OFFCURVE",
"586 664 OFFCURVE",
"395 642 QCURVE",
"489 619 OFFCURVE",
"678 459 OFFCURVE",
"759 317 QCURVE SMOOTH",
"929 0 LINE",
"726 0 LINE"
);
}
);
width = 944;
}
);
unicode = 20B9;
},
{
glyphname = liraTurkish;
layers = (
{
layerId = "6BF8B6E1-1195-476D-8D60-16328723C279";
paths = (
{
closed = 1;
nodes = (
"26 507 LINE",
"776 837 LINE",
"770 678 LINE",
"26 347 LINE"
);
},
{
closed = 1;
nodes = (
"180 1456 LINE",
"358 1456 LINE",
"358 149 LINE",
"439 149 LINE SMOOTH",
"591 149 OFFCURVE",
"755 344 OFFCURVE",
"755 521 QCURVE SMOOTH",
"755 558 LINE",
"935 558 LINE",
"935 523 LINE SMOOTH",
"935 267 OFFCURVE",
"659 -5 OFFCURVE",
"402 -2 QCURVE SMOOTH",
"180 0 LINE"
);
},
{
closed = 1;
nodes = (
"26 867 LINE",
"776 1197 LINE",
"770 1038 LINE",
"26 707 LINE"
);
}
);
width = 1024;
}
);
unicode = 20BA;
},
{
glyphname = manat;
layers = (
{
layerId = "6BF8B6E1-1195-476D-8D60-16328723C279";
paths = (
{
closed = 1;
nodes = (
"1022 0 LINE",
"840 0 LINE",
"840 916 LINE SMOOTH",
"840 1086 OFFCURVE",
"684 1256 OFFCURVE",
"545 1256 QCURVE SMOOTH",
"406 1256 OFFCURVE",
"250 1086 OFFCURVE",
"250 916 QCURVE SMOOTH",
"250 0 LINE",
"68 0 LINE",
"68 916 LINE SMOOTH",
"71 1166 OFFCURVE",
"336 1416 OFFCURVE",
"545 1416 QCURVE SMOOTH",
"755 1416 OFFCURVE",
"1019 1166 OFFCURVE",
"1022 916 QCURVE SMOOTH"
);
},
{
closed = 1;
nodes = (
"465 0 LINE",
"465 1582 LINE",
"625 1582 LINE",
"625 0 LINE"
);
}
);
width = 1130;
}
);
unicode = 20BC;
},
{
glyphname = ruble;
layers = (
{
layerId = "6BF8B6E1-1195-476D-8D60-16328723C279";
paths = (
{
closed = 1;
nodes = (
"30 615 LINE",
"30 764 LINE",
"446 764 LINE SMOOTH",
"609 764 OFFCURVE",
"762 913 OFFCURVE",
"762 1033 QCURVE SMOOTH",
"762 1138 OFFCURVE",
"615 1304 OFFCURVE",
"446 1302 QCURVE SMOOTH",
"363 1302 LINE",
"363 0 LINE",
"188 0 LINE",
"188 1456 LINE",
"446 1456 LINE SMOOTH",
"692 1456 OFFCURVE",
"954 1217 OFFCURVE",
"954 1035 QCURVE SMOOTH",
"954 835 OFFCURVE",
"692 616 OFFCURVE",
"446 615 QCURVE SMOOTH"
);
},
{
closed = 1;
nodes = (
"674 270 LINE",
"30 270 LINE",
"30 420 LINE",
"674 420 LINE"
);
}
);
width = 1024;
}
);
unicode = 20BD;
},
{
glyphname = asciicircum;
layers = (
{
layerId = "6BF8B6E1-1195-476D-8D60-16328723C279";
paths = (
{
closed = 1;
nodes = (
"544 1456 LINE",
"701 1456 LINE",
"962 720 LINE",
"784 720 LINE",
"601 1276 LINE",
"217 720 LINE",
"23 720 LINE"
);
}
);
width = 987;
}
);
unicode = 005E;
},
{
glyphname = asciitilde;
layers = (
{
layerId = "6BF8B6E1-1195-476D-8D60-16328723C279";
paths = (
{
closed = 1;
nodes = (
"297 734 LINE",
"329 776 OFFCURVE",
"398 818 OFFCURVE",
"439 818 QCURVE SMOOTH",
"471 818 OFFCURVE",
"544 793 OFFCURVE",
"589 768 QCURVE SMOOTH",
"627 746 OFFCURVE",
"691 725 OFFCURVE",
"717 725 QCURVE SMOOTH",
"763 725 OFFCURVE",
"836 779 OFFCURVE",
"869 829 QCURVE",
"833 626 LINE",
"802 586 OFFCURVE",
"731 543 OFFCURVE",
"688 543 QCURVE SMOOTH",
"660 543 OFFCURVE",
"595 564 OFFCURVE",
"558 585 QCURVE SMOOTH",
"513 610 OFFCURVE",
"441 635 OFFCURVE",
"411 635 QCURVE SMOOTH",
"367 635 OFFCURVE",
"296 584 OFFCURVE",
"261 532 QCURVE"
);
}
);
width = 1139;
}
);
unicode = 007E;
},
{
glyphname = acute;
layers = (
{
layerId = "6BF8B6E1-1195-476D-8D60-16328723C279";
paths = (
{
closed = 1;
nodes = (
"596 1584 LINE",
"749 1479 LINE",
"450 1204 LINE",
"355 1290 LINE"
);
}
);
width = 1024;
}
);
unicode = 00B4;
},
{
glyphname = grave;
layers = (
{
layerId = "6BF8B6E1-1195-476D-8D60-16328723C279";
paths = (
{
closed = 1;
nodes = (
"403 1479 LINE",
"570 1584 LINE",
"761 1283 LINE",
"645 1204 LINE"
);
}
);
width = 955;
}
);
unicode = 0060;
},
{
glyphname = hungarumlaut;
layers = (
{
layerId = "6BF8B6E1-1195-476D-8D60-16328723C279";
paths = (
{
closed = 1;
nodes = (
"564 1584 LINE",
"696 1479 LINE",
"421 1204 LINE",
"342 1290 LINE"
);
},
{
closed = 1;
nodes = (
"850 1584 LINE",
"982 1479 LINE",
"706 1204 LINE",
"628 1290 LINE"
);
}
);
width = 1024;
}
);
unicode = 02DD;
},
{
glyphname = circumflex;
layers = (
{
layerId = "6BF8B6E1-1195-476D-8D60-16328723C279";
paths = (
{
closed = 1;
nodes = (
"816 1203 LINE",
"662 1203 LINE",
"512 1362 LINE",
"363 1203 LINE",
"211 1203 LINE",
"456 1516 LINE",
"568 1516 LINE"
);
}
);
width = 1024;
}
);
unicode = 02C6;
},
{
glyphname = caron;
layers = (
{
layerId = "6BF8B6E1-1195-476D-8D60-16328723C279";
paths = (
{
closed = 1;
nodes = (
"211 1496 LINE",
"365 1496 LINE",
"515 1337 LINE",
"664 1496 LINE",
"816 1496 LINE",
"571 1183 LINE",
"459 1183 LINE"
);
}
);
width = 1024;
}
);
unicode = 02C7;
},
{
glyphname = breve;
layers = (
{
layerId = "6BF8B6E1-1195-476D-8D60-16328723C279";
paths = (
{
closed = 1;
nodes = (
"849 1464 LINE",
"814 1365 OFFCURVE",
"639 1198 OFFCURVE",
"513 1198 QCURVE SMOOTH",
"400 1198 OFFCURVE",
"219 1351 OFFCURVE",
"177 1465 QCURVE",
"281 1518 LINE",
"316 1461 OFFCURVE",
"435 1362 OFFCURVE",
"514 1362 QCURVE SMOOTH",
"598 1362 OFFCURVE",
"718 1457 OFFCURVE",
"754 1518 QCURVE"
);
}
);
width = 1022;
}
);
unicode = 02D8;
},
{
glyphname = tilde;
layers = (
{
layerId = "6BF8B6E1-1195-476D-8D60-16328723C279";
paths = (
{
closed = 1;
nodes = (
"189 1359 OFFCURVE",
"327 1457 OFFCURVE",
"394 1457 QCURVE SMOOTH",
"435 1457 OFFCURVE",
"510 1432 OFFCURVE",
"547 1408 QCURVE SMOOTH",
"581 1386 OFFCURVE",
"659 1342 OFFCURVE",
"697 1342 QCURVE SMOOTH",
"737 1342 OFFCURVE",
"807 1395 OFFCURVE",
"830 1431 QCURVE",
"911 1333 LINE",
"873 1262 OFFCURVE",
"740 1190 OFFCURVE",
"683 1190 QCURVE SMOOTH",
"634 1190 OFFCURVE",
"540 1233 OFFCURVE",
"509 1250 QCURVE SMOOTH",
"475 1269 OFFCURVE",
"407 1303 OFFCURVE",
"378 1303 QCURVE SMOOTH",
"331 1303 OFFCURVE",
"250 1231 OFFCURVE",
"232 1204 QCURVE",
"156 1296 LINE"
);
}
);
width = 1024;
}
);
unicode = 02DC;
},
{
glyphname = macron;
layers = (
{
layerId = "6BF8B6E1-1195-476D-8D60-16328723C279";
paths = (
{
closed = 1;
nodes = (
"776 1278 LINE",
"248 1278 LINE",
"248 1430 LINE",
"776 1430 LINE"
);
}
);
width = 1024;
}
);
unicode = 00AF;
},
{
glyphname = dieresis;
layers = (
{
layerId = "6BF8B6E1-1195-476D-8D60-16328723C279";
paths = (
{
closed = 1;
nodes = (
"227 1356 OFFCURVE",
"283 1418 OFFCURVE",
"336 1418 QCURVE SMOOTH",
"390 1418 OFFCURVE",
"446 1356 OFFCURVE",
"446 1311 QCURVE SMOOTH",
"446 1268 OFFCURVE",
"390 1207 OFFCURVE",
"336 1207 QCURVE SMOOTH",
"283 1207 OFFCURVE",
"227 1268 OFFCURVE",
"227 1311 QCURVE SMOOTH"
);
},
{
closed = 1;
nodes = (
"578 1354 OFFCURVE",
"633 1416 OFFCURVE",
"687 1416 QCURVE SMOOTH",
"740 1416 OFFCURVE",
"797 1354 OFFCURVE",
"797 1309 QCURVE SMOOTH",
"797 1266 OFFCURVE",
"740 1205 OFFCURVE",
"687 1205 QCURVE SMOOTH",
"633 1205 OFFCURVE",
"578 1266 OFFCURVE",
"578 1309 QCURVE SMOOTH"
);
}
);
width = 1024;
}
);
unicode = 00A8;
},
{
glyphname = dotaccent;
layers = (
{
layerId = "6BF8B6E1-1195-476D-8D60-16328723C279";
paths = (
{
closed = 1;
nodes = (
"392 1385 OFFCURVE",
"458 1457 OFFCURVE",
"512 1457 QCURVE SMOOTH",
"565 1457 OFFCURVE",
"632 1385 OFFCURVE",
"632 1341 QCURVE SMOOTH",
"632 1297 OFFCURVE",
"565 1226 OFFCURVE",
"512 1226 QCURVE SMOOTH",
"458 1226 OFFCURVE",
"392 1297 OFFCURVE",
"392 1341 QCURVE SMOOTH"
);
}
);
width = 1024;
}
);
unicode = 02D9;
},
{
glyphname = ring;
layers = (
{
layerId = "6BF8B6E1-1195-476D-8D60-16328723C279";
paths = (
{
closed = 1;
nodes = (
"286 1479 OFFCURVE",
"416 1607 OFFCURVE",
"512 1607 QCURVE SMOOTH",
"606 1607 OFFCURVE",
"738 1479 OFFCURVE",
"738 1389 QCURVE SMOOTH",
"738 1298 OFFCURVE",
"606 1175 OFFCURVE",
"512 1175 QCURVE SMOOTH",
"416 1175 OFFCURVE",
"286 1298 OFFCURVE",
"286 1389 QCURVE"
);
},
{
closed = 1;
nodes = (
"396 1345 OFFCURVE",
"461 1274 OFFCURVE",
"512 1274 QCURVE SMOOTH",
"563 1274 OFFCURVE",
"628 1343 OFFCURVE",
"628 1389 QCURVE SMOOTH",
"628 1435 OFFCURVE",
"563 1507 OFFCURVE",
"512 1507 QCURVE SMOOTH",
"461 1507 OFFCURVE",
"396 1435 OFFCURVE",
"396 1389 QCURVE"
);
}
);
width = 1024;
}
);
unicode = 02DA;
},
{
glyphname = cedilla;
layers = (
{
layerId = "6BF8B6E1-1195-476D-8D60-16328723C279";
paths = (
{
closed = 1;
nodes = (
"569 42 LINE",
"541 -53 LINE",
"598 -63 OFFCURVE",
"724 -139 OFFCURVE",
"724 -226 QCURVE SMOOTH",
"724 -319 OFFCURVE",
"550 -435 OFFCURVE",
"348 -435 QCURVE",
"341 -328 LINE",
"463 -328 OFFCURVE",
"542 -281 OFFCURVE",
"542 -228 QCURVE SMOOTH",
"542 -179 OFFCURVE",
"483 -142 OFFCURVE",
"399 -135 QCURVE",
"440 42 LINE"
);
}
);
width = 1024;
}
);
unicode = 00B8;
},
{
glyphname = ogonek;
layers = (
{
layerId = "6BF8B6E1-1195-476D-8D60-16328723C279";
paths = (
{
closed = 1;
nodes = (
"607 0 LINE",
"543 -48 OFFCURVE",
"436 -157 OFFCURVE",
"436 -222 QCURVE SMOOTH",
"436 -255 OFFCURVE",
"471 -295 OFFCURVE",
"514 -295 QCURVE SMOOTH",
"547 -295 OFFCURVE",
"599 -276 OFFCURVE",
"614 -268 QCURVE",
"628 -390 LINE",
"603 -405 OFFCURVE",
"526 -434 OFFCURVE",
"467 -434 QCURVE SMOOTH",
"386 -434 OFFCURVE",
"275 -336 OFFCURVE",
"275 -243 QCURVE SMOOTH",
"275 -163 OFFCURVE",
"397 -6 OFFCURVE",
"533 57 QCURVE"
);
}
);
width = 1024;
}
);
unicode = 02DB;
},
{
glyphname = copyright;
layers = (
{
guideLines = (
{
position = "{0, 901}";
},
{
position = "{0, 555}";
}
);
layerId = "6BF8B6E1-1195-476D-8D60-16328723C279";
paths = (
{
closed = 1;
nodes = (
"1109 546 LINE",
"1109 382 OFFCURVE",
"928 205 OFFCURVE",
"760 205 QCURVE SMOOTH",
"594 205 OFFCURVE",
"416 443 OFFCURVE",
"416 664 QCURVE SMOOTH",
"416 703 LINE SMOOTH",
"416 928 OFFCURVE",
"603 1170 OFFCURVE",
"777 1170 QCURVE SMOOTH",
"937 1170 OFFCURVE",
"1110 993 OFFCURVE",
"1110 829 QCURVE",
"928 829 LINE",
"928 914 OFFCURVE",
"849 1006 OFFCURVE",
"776 1006 QCURVE SMOOTH",
"696 1006 OFFCURVE",
"609 872 OFFCURVE",
"609 747 QCURVE SMOOTH",
"609 621 LINE SMOOTH",
"609 496 OFFCURVE",
"700 362 OFFCURVE",
"785 362 QCURVE SMOOTH",
"853 362 OFFCURVE",
"927 457 OFFCURVE",
"927 546 QCURVE"
);
},
{
closed = 1;
nodes = (
"183 400 OFFCURVE",
"510 4 OFFCURVE",
"775 4 QCURVE SMOOTH",
"1039 4 OFFCURVE",
"1366 400 OFFCURVE",
"1366 687 QCURVE SMOOTH",
"1366 975 OFFCURVE",
"1039 1367 OFFCURVE",
"775 1367 QCURVE SMOOTH",
"510 1367 OFFCURVE",
"183 975 OFFCURVE",
"183 687 QCURVE SMOOTH"
);
},
{
closed = 1;
nodes = (
"35 1039 OFFCURVE",
"448 1519 OFFCURVE",
"774 1519 QCURVE SMOOTH",
"1099 1519 OFFCURVE",
"1513 1039 OFFCURVE",
"1513 687 QCURVE SMOOTH",
"1513 337 OFFCURVE",
"1099 -147 OFFCURVE",
"774 -147 QCURVE SMOOTH",
"448 -147 OFFCURVE",
"35 337 OFFCURVE",
"35 687 QCURVE SMOOTH"
);
}
);
width = 1548;
}
);
leftKerningGroup = copyright;
rightKerningGroup = copyright;
unicode = 00A9;
userData = {
com.typemytype.robofont.guideline.magnetic.0Pjz0qKr8z = 5;
com.typemytype.robofont.guideline.magnetic.sJo8BlDiJ7 = 5;
};
},
{
glyphname = registered;
layers = (
{
layerId = "6BF8B6E1-1195-476D-8D60-16328723C279";
paths = (
{
closed = 1;
nodes = (
"35 1039 OFFCURVE",
"448 1519 OFFCURVE",
"774 1519 QCURVE SMOOTH",
"1099 1519 OFFCURVE",
"1513 1039 OFFCURVE",
"1513 687 QCURVE SMOOTH",
"1513 337 OFFCURVE",
"1099 -147 OFFCURVE",
"774 -147 QCURVE SMOOTH",
"448 -147 OFFCURVE",
"35 337 OFFCURVE",
"35 687 QCURVE SMOOTH"
);
},
{
closed = 1;
nodes = (
"183 400 OFFCURVE",
"510 4 OFFCURVE",
"775 4 QCURVE SMOOTH",
"1039 4 OFFCURVE",
"1366 400 OFFCURVE",
"1366 687 QCURVE SMOOTH",
"1366 975 OFFCURVE",
"1039 1367 OFFCURVE",
"775 1367 QCURVE SMOOTH",
"510 1367 OFFCURVE",
"183 975 OFFCURVE",
"183 687 QCURVE SMOOTH"
);
},
{
closed = 1;
nodes = (
"661 597 LINE",
"661 225 LINE",
"496 225 LINE",
"496 1158 LINE",
"768 1158 LINE SMOOTH",
"925 1158 OFFCURVE",
"1094 1012 OFFCURVE",
"1094 877 QCURVE SMOOTH",
"1094 770 OFFCURVE",
"1002 635 OFFCURVE",
"917 618 QCURVE",
"948 595 OFFCURVE",
"976 561 OFFCURVE",
"990 530 QCURVE SMOOTH",
"1118 243 LINE",
"1118 225 LINE",
"939 225 LINE",
"802 597 LINE"
);
},
{
closed = 1;
nodes = (
"661 1007 LINE",
"661 738 LINE",
"794 738 LINE SMOOTH",
"851 738 OFFCURVE",
"913 801 OFFCURVE",
"913 859 QCURVE SMOOTH",
"913 929 OFFCURVE",
"838 1006 OFFCURVE",
"769 1007 QCURVE SMOOTH"
);
}
);
width = 1548;
}
);
leftKerningGroup = copyright;
rightKerningGroup = copyright;
unicode = 00AE;
},
{
glyphname = trademark;
layers = (
{
layerId = "6BF8B6E1-1195-476D-8D60-16328723C279";
paths = (
{
closed = 1;
nodes = (
"30 1446 LINE",
"671 1446 LINE",
"671 1288 LINE",
"429 1288 LINE",
"429 690 LINE",
"273 690 LINE",
"273 1288 LINE",
"30 1288 LINE"
);
},
{
closed = 1;
nodes = (
"778 1446 LINE",
"933 1446 LINE",
"1164 866 LINE",
"1172 866 LINE",
"1407 1446 LINE",
"1562 1446 LINE",
"1562 690 LINE",
"1427 690 LINE",
"1427 1165 LINE",
"1416 1165 LINE",
"1230 690 LINE",
"1106 690 LINE",
"929 1165 LINE",
"918 1165 LINE",
"918 690 LINE",
"778 690 LINE"
);
}
);
width = 1727;
}
);
unicode = 2122;
},
{
glyphname = degree;
layers = (
{
layerId = "6BF8B6E1-1195-476D-8D60-16328723C279";
paths = (
{
closed = 1;
nodes = (
"141 1330 OFFCURVE",
"279 1477 OFFCURVE",
"386 1477 QCURVE SMOOTH",
"491 1477 OFFCURVE",
"627 1330 OFFCURVE",
"627 1217 QCURVE SMOOTH",
"627 1105 OFFCURVE",
"491 960 OFFCURVE",
"386 960 QCURVE SMOOTH",
"279 960 OFFCURVE",
"141 1105 OFFCURVE",
"141 1217 QCURVE"
);
},
{
closed = 1;
nodes = (
"265 1161 OFFCURVE",
"333 1088 OFFCURVE",
"386 1088 QCURVE SMOOTH",
"437 1088 OFFCURVE",
"503 1161 OFFCURVE",
"503 1217 QCURVE SMOOTH",
"503 1275 OFFCURVE",
"437 1349 OFFCURVE",
"386 1349 QCURVE SMOOTH",
"333 1349 OFFCURVE",
"265 1275 OFFCURVE",
"265 1217 QCURVE"
);
}
);
width = 765;
}
);
unicode = 00B0;
},
{
glyphname = diagonalbarL;
layers = (
{
layerId = "6BF8B6E1-1195-476D-8D60-16328723C279";
paths = (
{
closed = 1;
nodes = (
"0 584 LINE",
"664 995 LINE",
"745 860 LINE",
"80 446 LINE"
);
}
);
width = 741;
}
);
},
{
glyphname = diagonalbarO;
layers = (
{
layerId = "6BF8B6E1-1195-476D-8D60-16328723C279";
paths = (
{
closed = 1;
nodes = (
"57 86 LINE",
"75 81 LINE",
"281 871 LINE",
"389 803 LINE",
"196 54 LINE",
"216 50 LINE",
"173 -109 LINE",
"3 -109 LINE"
);
},
{
closed = 1;
nodes = (
"623 1618 LINE",
"570 1424 LINE",
"549 1428 LINE",
"389 803 LINE",
"281 871 LINE",
"429 1455 LINE",
"409 1460 LINE",
"452 1618 LINE"
);
}
);
width = 623;
}
);
},
{
glyphname = diagonalbarl;
layers = (
{
layerId = "6BF8B6E1-1195-476D-8D60-16328723C279";
paths = (
{
closed = 1;
nodes = (
"0 614 LINE",
"275 807 LINE",
"540 1026 LINE",
"620 884 LINE",
"350 690 LINE",
"84 469 LINE"
);
}
);
width = 629;
}
);
},
{
glyphname = diagonalbaro;
layers = (
{
layerId = "6BF8B6E1-1195-476D-8D60-16328723C279";
paths = (
{
closed = 1;
nodes = (
"-4 89 LINE",
"14 84 LINE",
"215 584 LINE",
"314 514 LINE",
"131 55 LINE",
"151 51 LINE",
"77 -123 LINE",
"-88 -118 LINE"
);
},
{
closed = 1;
nodes = (
"589 1141 LINE",
"511 948 LINE",
"490 953 LINE",
"314 514 LINE",
"215 584 LINE",
"374 981 LINE",
"354 987 LINE",
"418 1144 LINE"
);
}
);
width = 512;
}
);
},
{
glyphname = engtail;
layers = (
{
layerId = "6BF8B6E1-1195-476D-8D60-16328723C279";
paths = (
{
closed = 1;
nodes = (
"522 190 LINE",
"522 -195 LINE SMOOTH",
"522 -295 OFFCURVE",
"401 -443 OFFCURVE",
"269 -443 QCURVE SMOOTH",
"197 -443 OFFCURVE",
"67 -381 OFFCURVE",
"27 -329 QCURVE",
"90 -254 LINE",
"132 -295 OFFCURVE",
"227 -325 OFFCURVE",
"268 -325 QCURVE SMOOTH",
"312 -325 OFFCURVE",
"364 -265 OFFCURVE",
"364 -165 QCURVE",
"364 -112 OFFCURVE",
"364 255 OFFCURVE",
"364 150 QCURVE",
"439 190 LINE"
);
}
);
width = 629;
}
);
},
{
glyphname = horizontalbarH;
layers = (
{
layerId = "6BF8B6E1-1195-476D-8D60-16328723C279";
paths = (
{
closed = 1;
nodes = (
"1170 1025 LINE",
"1170 1162 LINE",
"1402 1164 LINE",
"1392 1027 LINE"
);
},
{
closed = 1;
nodes = (
"56 1162 LINE",
"295 1162 LINE",
"295 1025 LINE",
"65 1025 LINE"
);
},
{
closed = 1;
nodes = (
"295 1152 LINE",
"1170 1152 LINE",
"1170 1035 LINE",
"295 1035 LINE"
);
}
);
width = 1458;
}
);
},
{
glyphname = horizontalbarlc;
layers = (
{
layerId = "6BF8B6E1-1195-476D-8D60-16328723C279";
paths = (
{
closed = 1;
nodes = (
"29 656 LINE",
"40 802 LINE",
"301 802 LINE",
"536 802 LINE",
"536 656 LINE",
"261 656 LINE"
);
}
);
width = 536;
}
);
},
{
glyphname = idotless;
layers = (
{
layerId = "6BF8B6E1-1195-476D-8D60-16328723C279";
paths = (
{
closed = 1;
nodes = (
"210 1052 LINE",
"382 1052 LINE",
"197 0 LINE",
"24 0 LINE"
);
}
);
width = 477;
}
);
leftKerningGroup = mnpr_LC;
rightKerningGroup = u_LC;
},
{
glyphname = jdotless;
layers = (
{
layerId = "6BF8B6E1-1195-476D-8D60-16328723C279";
paths = (
{
closed = 1;
nodes = (
"-221 -265 LINE",
"-205 -271 OFFCURVE",
"-148 -285 OFFCURVE",
"-122 -285 QCURVE SMOOTH",
"-76 -285 OFFCURVE",
"-13 -213 OFFCURVE",
"1 -130 QCURVE SMOOTH",
"210 1052 LINE",
"382 1052 LINE",
"181 -90 LINE SMOOTH",
"149 -270 OFFCURVE",
"-1 -436 OFFCURVE",
"-117 -436 QCURVE SMOOTH",
"-150 -436 OFFCURVE",
"-228 -419 OFFCURVE",
"-247 -410 QCURVE"
);
}
);
width = 477;
}
);
rightKerningGroup = j_LC;
},
{
glyphname = zerosuperior;
layers = (
{
layerId = "6BF8B6E1-1195-476D-8D60-16328723C279";
paths = (
{
closed = 1;
nodes = (
"90 1181 LINE SMOOTH",
"114 1327 OFFCURVE",
"294 1497 OFFCURVE",
"425 1497 QCURVE SMOOTH",
"557 1496 OFFCURVE",
"676 1325 OFFCURVE",
"652 1179 QCURVE SMOOTH",
"622 995 LINE SMOOTH",
"598 849 OFFCURVE",
"419 679 OFFCURVE",
"288 679 QCURVE SMOOTH",
"156 680 OFFCURVE",
"36 851 OFFCURVE",
"60 997 QCURVE SMOOTH"
);
},
{
closed = 1;
nodes = (
"210 917 OFFCURVE",
"246 826 OFFCURVE",
"310 826 QCURVE SMOOTH",
"374 825 OFFCURVE",
"447 915 OFFCURVE",
"459 991 QCURVE SMOOTH",
"490 1185 LINE SMOOTH",
"502 1259 OFFCURVE",
"467 1350 OFFCURVE",
"403 1350 QCURVE SMOOTH",
"339 1351 OFFCURVE",
"265 1261 OFFCURVE",
"253 1185 QCURVE SMOOTH",
"222 991 LINE SMOOTH"
);
}
);
width = 697;
}
);
},
{
glyphname = gravecomb.case;
layers = (
{
layerId = "6BF8B6E1-1195-476D-8D60-16328723C279";
paths = (
{
closed = 1;
nodes = (
"233 1874 LINE",
"386 1974 LINE",
"588 1633 LINE",
"468 1574 LINE"
);
}
);
width = 1024;
}
);
},
{
glyphname = acutecomb.case;
layers = (
{
layerId = "6BF8B6E1-1195-476D-8D60-16328723C279";
paths = (
{
closed = 1;
nodes = (
"608 1974 LINE",
"761 1874 LINE",
"526 1574 LINE",
"406 1633 LINE"
);
}
);
width = 1024;
}
);
},
{
glyphname = circumflexcomb.case;
layers = (
{
layerId = "6BF8B6E1-1195-476D-8D60-16328723C279";
paths = (
{
closed = 1;
nodes = (
"838 1635 LINE",
"671 1633 LINE",
"505 1817 LINE",
"345 1635 LINE",
"172 1635 LINE",
"429 1975 LINE",
"573 1975 LINE"
);
}
);
width = 1024;
}
);
},
{
glyphname = tildecomb.case;
layers = (
{
layerId = "6BF8B6E1-1195-476D-8D60-16328723C279";
paths = (
{
closed = 1;
nodes = (
"142 1831 OFFCURVE",
"293 1944 OFFCURVE",
"370 1944 QCURVE SMOOTH",
"416 1944 OFFCURVE",
"498 1914 OFFCURVE",
"540 1886 QCURVE SMOOTH",
"570 1868 OFFCURVE",
"667 1812 OFFCURVE",
"714 1812 QCURVE SMOOTH",
"760 1812 OFFCURVE",
"845 1869 OFFCURVE",
"871 1908 QCURVE",
"939 1823 LINE",
"897 1741 OFFCURVE",
"758 1652 OFFCURVE",
"695 1652 QCURVE SMOOTH",
"642 1652 OFFCURVE",
"535 1701 OFFCURVE",
"503 1723 QCURVE SMOOTH",
"467 1748 OFFCURVE",
"384 1786 OFFCURVE",
"351 1786 QCURVE SMOOTH",
"298 1786 OFFCURVE",
"200 1707 OFFCURVE",
"180 1677 QCURVE",
"105 1762 LINE"
);
}
);
width = 1024;
}
);
},
{
glyphname = macroncomb.case;
layers = (
{
layerId = "6BF8B6E1-1195-476D-8D60-16328723C279";
paths = (
{
closed = 1;
nodes = (
"216 1830 LINE",
"808 1830 LINE",
"808 1674 LINE",
"216 1674 LINE"
);
}
);
width = 1024;
}
);
},
{
glyphname = brevecomb.case;
layers = (
{
layerId = "6BF8B6E1-1195-476D-8D60-16328723C279";
paths = (
{
closed = 1;
nodes = (
"896 1906 LINE",
"857 1807 OFFCURVE",
"656 1640 OFFCURVE",
"512 1640 QCURVE SMOOTH",
"384 1640 OFFCURVE",
"177 1793 OFFCURVE",
"129 1907 QCURVE",
"229 1976 LINE",
"272 1913 OFFCURVE",
"417 1809 OFFCURVE",
"512 1809 QCURVE SMOOTH",
"614 1809 OFFCURVE",
"760 1908 OFFCURVE",
"803 1976 QCURVE"
);
}
);
width = 1024;
}
);
},
{
glyphname = dotaccentcomb.case;
layers = (
{
layerId = "6BF8B6E1-1195-476D-8D60-16328723C279";
paths = (
{
closed = 1;
nodes = (
"391 1849 OFFCURVE",
"453 1910 OFFCURVE",
"512 1910 QCURVE SMOOTH",
"567 1910 OFFCURVE",
"633 1845 OFFCURVE",
"633 1792 QCURVE SMOOTH",
"633 1735 OFFCURVE",
"571 1674 OFFCURVE",
"512 1674 QCURVE SMOOTH",
"457 1674 OFFCURVE",
"391 1739 OFFCURVE",
"391 1792 QCURVE SMOOTH"
);
}
);
width = 1024;
}
);
},
{
glyphname = dieresiscomb.case;
layers = (
{
layerId = "6BF8B6E1-1195-476D-8D60-16328723C279";
paths = (
{
closed = 1;
nodes = (
"166 1842 OFFCURVE",
"226 1901 OFFCURVE",
"282 1901 QCURVE SMOOTH",
"335 1901 OFFCURVE",
"398 1838 OFFCURVE",
"398 1787 QCURVE SMOOTH",
"398 1733 OFFCURVE",
"339 1674 OFFCURVE",
"282 1674 QCURVE SMOOTH",
"229 1674 OFFCURVE",
"166 1736 OFFCURVE",
"166 1787 QCURVE SMOOTH"
);
},
{
closed = 1;
nodes = (
"626 1842 OFFCURVE",
"686 1901 OFFCURVE",
"742 1901 QCURVE SMOOTH",
"795 1901 OFFCURVE",
"858 1838 OFFCURVE",
"858 1787 QCURVE SMOOTH",
"858 1733 OFFCURVE",
"799 1674 OFFCURVE",
"742 1674 QCURVE SMOOTH",
"689 1674 OFFCURVE",
"626 1736 OFFCURVE",
"626 1787 QCURVE SMOOTH"
);
}
);
width = 1024;
}
);
},
{
glyphname = hookabovecomb.case;
layers = (
{
layerId = "6BF8B6E1-1195-476D-8D60-16328723C279";
paths = (
{
closed = 1;
nodes = (
"374 1616 LINE SMOOTH",
"374 1668 OFFCURVE",
"433 1738 OFFCURVE",
"509 1749 QCURVE SMOOTH",
"565 1757 OFFCURVE",
"605 1789 OFFCURVE",
"605 1830 QCURVE SMOOTH",
"605 1869 OFFCURVE",
"546 1905 OFFCURVE",
"492 1905 QCURVE SMOOTH",
"428 1905 OFFCURVE",
"316 1872 OFFCURVE",
"306 1864 QCURVE",
"252 1989 LINE",
"287 2008 OFFCURVE",
"441 2049 OFFCURVE",
"523 2049 QCURVE SMOOTH",
"643 2049 OFFCURVE",
"768 1935 OFFCURVE",
"768 1839 QCURVE SMOOTH",
"768 1738 OFFCURVE",
"640 1619 OFFCURVE",
"497 1608 QCURVE",
"497 1577 LINE",
"374 1577 LINE"
);
}
);
width = 1024;
}
);
},
{
glyphname = ringcomb.case;
layers = (
{
layerId = "6BF8B6E1-1195-476D-8D60-16328723C279";
paths = (
{
closed = 1;
nodes = (
"273 1922 OFFCURVE",
"408 2051 OFFCURVE",
"512 2051 QCURVE SMOOTH",
"616 2051 OFFCURVE",
"751 1922 OFFCURVE",
"751 1822 QCURVE SMOOTH",
"751 1722 OFFCURVE",
"616 1593 OFFCURVE",
"512 1593 QCURVE",
"408 1593 OFFCURVE",
"273 1722 OFFCURVE",
"273 1822 QCURVE SMOOTH"
);
},
{
closed = 1;
nodes = (
"399 1771 OFFCURVE",
"460 1709 OFFCURVE",
"512 1709 QCURVE SMOOTH",
"567 1709 OFFCURVE",
"625 1767 OFFCURVE",
"625 1822 QCURVE SMOOTH",
"625 1873 OFFCURVE",
"564 1935 OFFCURVE",
"512 1935 QCURVE SMOOTH",
"457 1935 OFFCURVE",
"399 1877 OFFCURVE",
"399 1822 QCURVE SMOOTH"
);
}
);
width = 1024;
}
);
},
{
glyphname = caroncomb.case;
layers = (
{
layerId = "6BF8B6E1-1195-476D-8D60-16328723C279";
paths = (
{
closed = 1;
nodes = (
"172 1953 LINE",
"339 1955 LINE",
"505 1791 LINE",
"665 1953 LINE",
"838 1953 LINE",
"581 1633 LINE",
"437 1633 LINE"
);
}
);
width = 1024;
}
);
},
{
glyphname = breveinvertedcomb.case;
layers = (
{
layerId = "6BF8B6E1-1195-476D-8D60-16328723C279";
paths = (
{
closed = 1;
nodes = (
"129 1683 LINE",
"168 1782 OFFCURVE",
"369 1949 OFFCURVE",
"513 1949 QCURVE SMOOTH",
"641 1949 OFFCURVE",
"848 1796 OFFCURVE",
"896 1682 QCURVE",
"796 1613 LINE",
"753 1676 OFFCURVE",
"608 1780 OFFCURVE",
"513 1780 QCURVE SMOOTH",
"411 1780 OFFCURVE",
"265 1681 OFFCURVE",
"222 1613 QCURVE"
);
}
);
width = 1024;
}
);
},
{
glyphname = horncomb.case;
layers = (
{
layerId = "6BF8B6E1-1195-476D-8D60-16328723C279";
paths = (
{
closed = 1;
nodes = (
"455 1456 LINE SMOOTH",
"518 1456 OFFCURVE",
"593 1487 OFFCURVE",
"593 1544 QCURVE SMOOTH",
"593 1585 OFFCURVE",
"582 1658 OFFCURVE",
"573 1694 QCURVE",
"693 1694 LINE",
"710 1663 OFFCURVE",
"744 1553 OFFCURVE",
"744 1494 QCURVE SMOOTH",
"744 1406 OFFCURVE",
"626 1341 OFFCURVE",
"530 1341 QCURVE SMOOTH",
"484 1341 OFFCURVE",
"408 1353 OFFCURVE",
"382 1362 QCURVE",
"382 1456 LINE"
);
}
);
width = 1024;
}
);
},
{
glyphname = commaaccentcomb.case;
layers = (
{
layerId = "6BF8B6E1-1195-476D-8D60-16328723C279";
paths = (
{
closed = 1;
nodes = (
"362 -544 OFFCURVE",
"399 -375 OFFCURVE",
"431 -236 QCURVE",
"645 -234 LINE",
"508 -651 LINE",
"333 -648 LINE"
);
}
);
width = 1024;
}
);
},
{
glyphname = cedillacomb.case;
layers = (
{
layerId = "6BF8B6E1-1195-476D-8D60-16328723C279";
paths = (
{
closed = 1;
nodes = (
"569 32 LINE",
"541 -93 LINE",
"620 -107 OFFCURVE",
"744 -199 OFFCURVE",
"744 -276 QCURVE SMOOTH",
"744 -379 OFFCURVE",
"520 -505 OFFCURVE",
"318 -505 QCURVE",
"311 -369 LINE",
"419 -370 OFFCURVE",
"542 -331 OFFCURVE",
"542 -278 QCURVE SMOOTH",
"542 -229 OFFCURVE",
"473 -192 OFFCURVE",
"389 -185 QCURVE",
"430 32 LINE"
);
}
);
width = 1024;
}
);
},
{
glyphname = ogonekcomb.case;
layers = (
{
layerId = "6BF8B6E1-1195-476D-8D60-16328723C279";
paths = (
{
closed = 1;
nodes = (
"221 -217 OFFCURVE",
"349 -41 OFFCURVE",
"468 51 QCURVE",
"563 0 LINE",
"456 -104 OFFCURVE",
"393 -199 OFFCURVE",
"393 -244 QCURVE SMOOTH",
"393 -292 OFFCURVE",
"453 -347 OFFCURVE",
"505 -347 QCURVE SMOOTH",
"552 -347 OFFCURVE",
"684 -301 OFFCURVE",
"746 -254 QCURVE",
"803 -357 LINE",
"758 -418 OFFCURVE",
"582 -497 OFFCURVE",
"478 -497 QCURVE SMOOTH",
"373 -497 OFFCURVE",
"221 -384 OFFCURVE",
"221 -306 QCURVE SMOOTH"
);
}
);
width = 1024;
}
);
},
{
glyphname = acutecombstack.case;
layers = (
{
layerId = "6BF8B6E1-1195-476D-8D60-16328723C279";
paths = (
{
closed = 1;
nodes = (
"605 1941 LINE",
"721 1777 LINE",
"384 1605 LINE",
"302 1715 LINE"
);
}
);
width = 1024;
}
);
},
{
glyphname = brevecombstack.case;
layers = (
{
layerId = "6BF8B6E1-1195-476D-8D60-16328723C279";
paths = (
{
closed = 1;
nodes = (
"877 1844 LINE",
"840 1757 OFFCURVE",
"649 1610 OFFCURVE",
"512 1610 QCURVE SMOOTH",
"390 1610 OFFCURVE",
"194 1745 OFFCURVE",
"148 1845 QCURVE",
"258 1910 LINE",
"297 1856 OFFCURVE",
"427 1769 OFFCURVE",
"512 1769 QCURVE SMOOTH",
"604 1769 OFFCURVE",
"735 1852 OFFCURVE",
"774 1910 QCURVE"
);
}
);
width = 1024;
}
);
},
{
glyphname = circumflexcombstack.case;
layers = (
{
layerId = "6BF8B6E1-1195-476D-8D60-16328723C279";
paths = (
{
closed = 1;
nodes = (
"838 1585 LINE",
"676 1583 LINE",
"505 1722 LINE",
"340 1585 LINE",
"172 1585 LINE",
"429 1875 LINE",
"573 1875 LINE"
);
}
);
width = 1024;
}
);
},
{
glyphname = dieresiscombstack.case;
layers = (
{
layerId = "6BF8B6E1-1195-476D-8D60-16328723C279";
paths = (
{
closed = 1;
nodes = (
"166 1782 OFFCURVE",
"226 1841 OFFCURVE",
"282 1841 QCURVE SMOOTH",
"335 1841 OFFCURVE",
"398 1778 OFFCURVE",
"398 1727 QCURVE SMOOTH",
"398 1673 OFFCURVE",
"339 1614 OFFCURVE",
"282 1614 QCURVE SMOOTH",
"229 1614 OFFCURVE",
"166 1676 OFFCURVE",
"166 1727 QCURVE SMOOTH"
);
},
{
closed = 1;
nodes = (
"626 1782 OFFCURVE",
"686 1841 OFFCURVE",
"742 1841 QCURVE SMOOTH",
"795 1841 OFFCURVE",
"858 1778 OFFCURVE",
"858 1727 QCURVE SMOOTH",
"858 1673 OFFCURVE",
"799 1614 OFFCURVE",
"742 1614 QCURVE SMOOTH",
"689 1614 OFFCURVE",
"626 1676 OFFCURVE",
"626 1727 QCURVE SMOOTH"
);
}
);
width = 1024;
}
);
},
{
glyphname = dotaccentcombstack.case;
layers = (
{
layerId = "6BF8B6E1-1195-476D-8D60-16328723C279";
paths = (
{
closed = 1;
nodes = (
"391 1849 OFFCURVE",
"453 1910 OFFCURVE",
"512 1910 QCURVE SMOOTH",
"567 1910 OFFCURVE",
"633 1845 OFFCURVE",
"633 1792 QCURVE SMOOTH",
"633 1735 OFFCURVE",
"571 1674 OFFCURVE",
"512 1674 QCURVE SMOOTH",
"457 1674 OFFCURVE",
"391 1739 OFFCURVE",
"391 1792 QCURVE SMOOTH"
);
}
);
width = 1024;
}
);
},
{
glyphname = gravecombstack.case;
layers = (
{
layerId = "6BF8B6E1-1195-476D-8D60-16328723C279";
paths = (
{
closed = 1;
nodes = (
"257 1756 LINE",
"364 1919 LINE",
"718 1686 LINE",
"640 1570 LINE"
);
}
);
width = 1024;
}
);
},
{
glyphname = hookabovecombstack.case;
layers = (
{
layerId = "6BF8B6E1-1195-476D-8D60-16328723C279";
paths = (
{
closed = 1;
nodes = (
"360 1601 LINE SMOOTH",
"360 1646 OFFCURVE",
"412 1698 OFFCURVE",
"479 1707 QCURVE SMOOTH",
"530 1714 OFFCURVE",
"555 1742 OFFCURVE",
"555 1778 QCURVE SMOOTH",
"555 1812 OFFCURVE",
"513 1833 OFFCURVE",
"464 1833 QCURVE SMOOTH",
"408 1833 OFFCURVE",
"309 1804 OFFCURVE",
"300 1797 QCURVE",
"252 1916 LINE",
"283 1933 OFFCURVE",
"419 1968 OFFCURVE",
"493 1968 QCURVE SMOOTH",
"599 1968 OFFCURVE",
"709 1869 OFFCURVE",
"709 1785 QCURVE SMOOTH",
"709 1698 OFFCURVE",
"616 1607 OFFCURVE",
"509 1597 QCURVE",
"509 1554 LINE",
"360 1554 LINE"
);
}
);
width = 1024;
}
);
},
{
glyphname = macroncombstack.case;
layers = (
{
layerId = "6BF8B6E1-1195-476D-8D60-16328723C279";
paths = (
{
closed = 1;
nodes = (
"216 1830 LINE",
"808 1830 LINE",
"808 1674 LINE",
"216 1674 LINE"
);
}
);
width = 1024;
}
);
},
{
glyphname = tildecombstack.case;
layers = (
{
layerId = "6BF8B6E1-1195-476D-8D60-16328723C279";
paths = (
{
closed = 1;
nodes = (
"213 1848 OFFCURVE",
"337 1922 OFFCURVE",
"404 1922 QCURVE SMOOTH",
"439 1922 OFFCURVE",
"512 1900 OFFCURVE",
"548 1874 QCURVE SMOOTH",
"578 1852 OFFCURVE",
"644 1817 OFFCURVE",
"676 1817 QCURVE SMOOTH",
"716 1817 OFFCURVE",
"763 1857 OFFCURVE",
"784 1896 QCURVE",
"878 1805 LINE",
"846 1731 OFFCURVE",
"732 1657 OFFCURVE",
"667 1657 QCURVE SMOOTH",
"618 1657 OFFCURVE",
"536 1692 OFFCURVE",
"506 1712 QCURVE SMOOTH",
"475 1733 OFFCURVE",
"411 1770 OFFCURVE",
"387 1770 QCURVE SMOOTH",
"351 1770 OFFCURVE",
"290 1715 OFFCURVE",
"271 1685 QCURVE",
"173 1776 LINE"
);
}
);
width = 1024;
}
);
},
{
glyphname = caroncomb.alt;
layers = (
{
layerId = "6BF8B6E1-1195-476D-8D60-16328723C279";
paths = (
{
closed = 1;
nodes = (
"488 1481 LINE",
"678 1427 LINE",
"514 1057 LINE",
"386 1092 LINE"
);
}
);
width = 1024;
}
);
},
{
glyphname = dollar.rvrn;
layers = (
{
layerId = "6BF8B6E1-1195-476D-8D60-16328723C279";
paths = (
{
closed = 1;
nodes = (
"11 422 LINE",
"170 422 LINE",
"168 400 LINE SMOOTH",
"157 278 OFFCURVE",
"257 141 OFFCURVE",
"378 141 QCURVE SMOOTH",
"513 141 OFFCURVE",
"668 246 OFFCURVE",
"692 344 QCURVE SMOOTH",
"716 442 OFFCURVE",
"607 598 OFFCURVE",
"443 678 QCURVE SMOOTH",
"281 755 OFFCURVE",
"121 972 OFFCURVE",
"153 1135 QCURVE SMOOTH",
"184 1290 OFFCURVE",
"431 1457 OFFCURVE",
"622 1457 QCURVE SMOOTH",
"802 1457 OFFCURVE",
"973 1242 OFFCURVE",
"956 1061 QCURVE SMOOTH",
"954 1040 LINE",
"793 1040 LINE",
"795 1061 LINE SMOOTH",
"806 1176 OFFCURVE",
"714 1313 OFFCURVE",
"593 1313 QCURVE SMOOTH",
"463 1313 OFFCURVE",
"334 1214 OFFCURVE",
"316 1131 QCURVE SMOOTH",
"299 1048 OFFCURVE",
"388 893 OFFCURVE",
"559 804 QCURVE SMOOTH",
"717 723 OFFCURVE",
"894 514 OFFCURVE",
"858 342 QCURVE SMOOTH",
"822 169 OFFCURVE",
"561 -2 OFFCURVE",
"362 -2 QCURVE SMOOTH",
"174 -2 OFFCURVE",
"-10 202 OFFCURVE",
"8 400 QCURVE SMOOTH"
);
},
{
closed = 1;
nodes = (
"313 103 LINE",
"444 103 LINE",
"441 80 LINE",
"453 70 LINE",
"410 -170 LINE",
"265 -170 LINE"
);
},
{
closed = 1;
nodes = (
"553 1386 LINE",
"541 1396 LINE",
"575 1586 LINE",
"720 1586 LINE",
"678 1349 LINE",
"546 1349 LINE"
);
}
);
width = 1036;
}
);
},
{
glyphname = zero.prop;
layers = (
{
layerId = "6BF8B6E1-1195-476D-8D60-16328723C279";
paths = (
{
closed = 1;
nodes = (
"118 1051 LINE SMOOTH",
"118 1244 OFFCURVE",
"330 1486 OFFCURVE",
"519 1486 QCURVE SMOOTH",
"706 1486 OFFCURVE",
"920 1244 OFFCURVE",
"920 1051 QCURVE SMOOTH",
"920 405 LINE SMOOTH",
"920 214 OFFCURVE",
"706 -30 OFFCURVE",
"519 -30 QCURVE SMOOTH",
"330 -30 OFFCURVE",
"118 214 OFFCURVE",
"118 405 QCURVE SMOOTH"
);
},
{
closed = 1;
nodes = (
"304 282 OFFCURVE",
"409 123 OFFCURVE",
"519 123 QCURVE SMOOTH",
"629 123 OFFCURVE",
"734 282 OFFCURVE",
"734 395 QCURVE SMOOTH",
"734 1061 LINE SMOOTH",
"734 1176 OFFCURVE",
"629 1333 OFFCURVE",
"519 1333 QCURVE SMOOTH",
"409 1333 OFFCURVE",
"304 1176 OFFCURVE",
"304 1061 QCURVE SMOOTH",
"304 395 LINE SMOOTH"
);
}
);
width = 1038;
}
);
},
{
glyphname = one.prop;
layers = (
{
layerId = "6BF8B6E1-1195-476D-8D60-16328723C279";
paths = (
{
closed = 1;
nodes = (
"323 1239 LINE",
"25 1113 LINE",
"25 1293 LINE",
"481 1476 LINE",
"507 1476 LINE",
"507 0 LINE",
"323 0 LINE"
);
}
);
width = 657;
}
);
},
{
glyphname = two.prop;
layers = (
{
layerId = "6BF8B6E1-1195-476D-8D60-16328723C279";
paths = (
{
closed = 1;
nodes = (
"110 136 LINE",
"556 751 LINE SMOOTH",
"636 856 OFFCURVE",
"717 1012 OFFCURVE",
"717 1105 QCURVE SMOOTH",
"717 1207 OFFCURVE",
"612 1333 OFFCURVE",
"518 1333 QCURVE SMOOTH",
"423 1333 OFFCURVE",
"292 1187 OFFCURVE",
"292 1030 QCURVE SMOOTH",
"292 1020 LINE",
"110 1020 LINE",
"110 1030 LINE SMOOTH",
"110 1244 OFFCURVE",
"346 1486 OFFCURVE",
"518 1486 QCURVE SMOOTH",
"689 1486 OFFCURVE",
"899 1276 OFFCURVE",
"899 1115 QCURVE SMOOTH",
"899 996 OFFCURVE",
"785 798 OFFCURVE",
"682 658 QCURVE SMOOTH",
"310 151 LINE",
"933 151 LINE",
"933 0 LINE",
"110 0 LINE"
);
}
);
width = 1038;
}
);
},
{
glyphname = three.prop;
layers = (
{
layerId = "6BF8B6E1-1195-476D-8D60-16328723C279";
paths = (
{
closed = 1;
nodes = (
"101 390 LINE",
"279 390 LINE",
"279 380 LINE SMOOTH",
"279 258 OFFCURVE",
"406 123 OFFCURVE",
"511 123 QCURVE SMOOTH",
"616 123 OFFCURVE",
"741 258 OFFCURVE",
"741 400 QCURVE SMOOTH",
"741 541 OFFCURVE",
"598 684 OFFCURVE",
"478 684 QCURVE SMOOTH",
"377 684 LINE",
"377 834 LINE",
"469 834 LINE SMOOTH",
"579 834 OFFCURVE",
"697 969 OFFCURVE",
"697 1091 QCURVE SMOOTH",
"697 1212 OFFCURVE",
"597 1333 OFFCURVE",
"511 1333 QCURVE SMOOTH",
"425 1333 OFFCURVE",
"314 1212 OFFCURVE",
"314 1100 QCURVE SMOOTH",
"314 1090 LINE",
"136 1090 LINE",
"136 1100 LINE SMOOTH",
"136 1260 OFFCURVE",
"349 1486 OFFCURVE",
"511 1486 QCURVE SMOOTH",
"674 1486 OFFCURVE",
"881 1270 OFFCURVE",
"881 1100 QCURVE SMOOTH",
"881 1000 OFFCURVE",
"786 816 OFFCURVE",
"685 766 QCURVE",
"685 762 LINE",
"795 730 OFFCURVE",
"927 540 OFFCURVE",
"927 401 QCURVE SMOOTH",
"927 200 OFFCURVE",
"691 -30 OFFCURVE",
"511 -30 QCURVE SMOOTH",
"331 -30 OFFCURVE",
"101 200 OFFCURVE",
"101 380 QCURVE SMOOTH"
);
}
);
width = 1038;
}
);
},
{
glyphname = four.prop;
layers = (
{
layerId = "6BF8B6E1-1195-476D-8D60-16328723C279";
paths = (
{
closed = 1;
nodes = (
"600 398 LINE",
"600 448 LINE",
"600 1088 LINE",
"588 1088 LINE",
"234 496 LINE",
"665 496 LINE",
"729 496 LINE",
"951 496 LINE",
"951 344 LINE",
"36 344 LINE",
"36 466 LINE",
"629 1456 LINE",
"772 1456 LINE",
"772 0 LINE",
"600 0 LINE"
);
}
);
width = 1000;
}
);
},
{
glyphname = five.prop;
layers = (
{
layerId = "6BF8B6E1-1195-476D-8D60-16328723C279";
paths = (
{
closed = 1;
nodes = (
"98 375 LINE",
"274 375 LINE",
"274 365 LINE SMOOTH",
"274 253 OFFCURVE",
"398 123 OFFCURVE",
"501 123 QCURVE SMOOTH",
"605 123 OFFCURVE",
"736 303 OFFCURVE",
"736 465 QCURVE SMOOTH",
"736 626 OFFCURVE",
"605 796 OFFCURVE",
"502 796 QCURVE SMOOTH",
"425 796 OFFCURVE",
"304 730 OFFCURVE",
"257 676 QCURVE",
"142 730 LINE",
"214 1456 LINE",
"853 1456 LINE",
"853 1292 LINE",
"364 1292 LINE",
"321 888 LINE",
"364 916 OFFCURVE",
"466 950 OFFCURVE",
"526 950 QCURVE SMOOTH",
"690 950 OFFCURVE",
"918 694 OFFCURVE",
"918 465 QCURVE SMOOTH",
"918 235 OFFCURVE",
"682 -30 OFFCURVE",
"501 -30 QCURVE SMOOTH",
"321 -30 OFFCURVE",
"98 195 OFFCURVE",
"98 365 QCURVE SMOOTH"
);
}
);
width = 1011;
}
);
},
{
glyphname = six.prop;
layers = (
{
layerId = "6BF8B6E1-1195-476D-8D60-16328723C279";
paths = (
{
closed = 1;
nodes = (
"96 644 LINE SMOOTH",
"96 1024 OFFCURVE",
"450 1486 OFFCURVE",
"775 1486 QCURVE SMOOTH",
"792 1486 LINE",
"792 1333 LINE",
"775 1333 LINE SMOOTH",
"544 1333 OFFCURVE",
"276 1004 OFFCURVE",
"276 654 QCURVE SMOOTH",
"276 604 LINE SMOOTH",
"276 341 OFFCURVE",
"424 123 OFFCURVE",
"536 123 QCURVE SMOOTH",
"647 123 OFFCURVE",
"770 302 OFFCURVE",
"770 464 QCURVE SMOOTH",
"770 625 OFFCURVE",
"647 801 OFFCURVE",
"536 801 QCURVE SMOOTH",
"431 801 OFFCURVE",
"270 624 OFFCURVE",
"270 464 QCURVE",
"203 464 LINE",
"203 683 OFFCURVE",
"404 954 OFFCURVE",
"569 954 QCURVE SMOOTH",
"741 954 OFFCURVE",
"952 683 OFFCURVE",
"952 464 QCURVE SMOOTH",
"952 244 OFFCURVE",
"716 -30 OFFCURVE",
"536 -30 QCURVE SMOOTH",
"356 -30 OFFCURVE",
"96 274 OFFCURVE",
"96 614 QCURVE SMOOTH"
);
}
);
width = 1028;
}
);
},
{
glyphname = seven.prop;
layers = (
{
layerId = "6BF8B6E1-1195-476D-8D60-16328723C279";
paths = (
{
closed = 1;
nodes = (
"688 1304 LINE",
"84 1304 LINE",
"84 1456 LINE",
"876 1456 LINE",
"876 1354 LINE",
"432 0 LINE",
"244 0 LINE"
);
}
);
width = 971;
}
);
},
{
glyphname = eight.prop;
layers = (
{
layerId = "6BF8B6E1-1195-476D-8D60-16328723C279";
paths = (
{
closed = 1;
nodes = (
"112 515 OFFCURVE",
"232 697 OFFCURVE",
"332 743 QCURVE",
"332 747 LINE",
"255 792 OFFCURVE",
"152 968 OFFCURVE",
"152 1087 QCURVE SMOOTH",
"152 1267 OFFCURVE",
"361 1486 OFFCURVE",
"519 1486 QCURVE SMOOTH",
"677 1486 OFFCURVE",
"886 1267 OFFCURVE",
"886 1087 QCURVE SMOOTH",
"886 968 OFFCURVE",
"782 792 OFFCURVE",
"706 747 QCURVE",
"706 743 LINE",
"806 697 OFFCURVE",
"926 516 OFFCURVE",
"926 386 QCURVE SMOOTH",
"926 188 OFFCURVE",
"694 -30 OFFCURVE",
"519 -30 QCURVE SMOOTH",
"344 -30 OFFCURVE",
"112 188 OFFCURVE",
"112 386 QCURVE SMOOTH"
);
},
{
closed = 1;
nodes = (
"292 274 OFFCURVE",
"411 123 OFFCURVE",
"519 123 QCURVE SMOOTH",
"626 123 OFFCURVE",
"745 274 OFFCURVE",
"745 395 QCURVE SMOOTH",
"745 517 OFFCURVE",
"626 668 OFFCURVE",
"519 668 QCURVE SMOOTH",
"411 668 OFFCURVE",
"292 517 OFFCURVE",
"292 395 QCURVE SMOOTH"
);
},
{
closed = 1;
nodes = (
"328 966 OFFCURVE",
"428 822 OFFCURVE",
"519 822 QCURVE SMOOTH",
"609 822 OFFCURVE",
"710 966 OFFCURVE",
"710 1078 QCURVE SMOOTH",
"710 1190 OFFCURVE",
"609 1333 OFFCURVE",
"519 1333 QCURVE SMOOTH",
"428 1333 OFFCURVE",
"328 1190 OFFCURVE",
"328 1078 QCURVE SMOOTH"
);
}
);
width = 1038;
}
);
},
{
glyphname = nine.prop;
layers = (
{
layerId = "6BF8B6E1-1195-476D-8D60-16328723C279";
paths = (
{
closed = 1;
nodes = (
"76 1218 OFFCURVE",
"312 1486 OFFCURVE",
"492 1486 QCURVE SMOOTH",
"673 1486 OFFCURVE",
"932 1182 OFFCURVE",
"932 842 QCURVE SMOOTH",
"932 812 LINE SMOOTH",
"932 432 OFFCURVE",
"578 -30 OFFCURVE",
"253 -30 QCURVE SMOOTH",
"236 -30 LINE",
"236 123 LINE",
"253 123 LINE SMOOTH",
"484 123 OFFCURVE",
"752 452 OFFCURVE",
"752 802 QCURVE SMOOTH",
"752 852 LINE SMOOTH",
"752 1115 OFFCURVE",
"604 1333 OFFCURVE",
"492 1333 QCURVE SMOOTH",
"381 1333 OFFCURVE",
"259 1159 OFFCURVE",
"259 1002 QCURVE SMOOTH",
"259 846 OFFCURVE",
"381 675 OFFCURVE",
"492 675 QCURVE SMOOTH",
"597 675 OFFCURVE",
"758 846 OFFCURVE",
"758 1002 QCURVE",
"826 1002 LINE",
"826 787 OFFCURVE",
"624 522 OFFCURVE",
"459 522 QCURVE SMOOTH",
"288 522 OFFCURVE",
"76 787 OFFCURVE",
"76 1002 QCURVE SMOOTH"
);
}
);
width = 1028;
}
);
},
{
glyphname = .notdef;
layers = (
{
layerId = "6BF8B6E1-1195-476D-8D60-16328723C279";
paths = (
{
closed = 1;
nodes = (
"127 1456 LINE",
"127 1402 LINE",
"777 1402 LINE",
"777 1456 LINE"
);
},
{
closed = 1;
nodes = (
"100 1456 LINE",
"100 0 LINE",
"154 0 LINE",
"154 1456 LINE"
);
},
{
closed = 1;
nodes = (
"808 0 LINE",
"754 0 LINE",
"754 1456 LINE",
"808 1456 LINE"
);
},
{
closed = 1;
nodes = (
"127 54 LINE",
"127 0 LINE",
"777 0 LINE",
"777 54 LINE"
);
},
{
closed = 1;
nodes = (
"184 30 LINE",
"126 30 LINE",
"719 1426 LINE",
"777 1426 LINE"
);
},
{
closed = 1;
nodes = (
"777 30 LINE",
"184 1426 LINE",
"126 1426 LINE",
"719 30 LINE"
);
}
